<svg xmlns="http://www.w3.org/2000/svg" xmlns:xlink="http://www.w3.org/1999/xlink" contentStyleType="text/css" data-diagram-type="ACTIVITY" height="1258px" preserveAspectRatio="none" style="width:813px;height:1258px;background:#FFFFFF;" version="1.1" viewBox="0 0 813 1258" width="813px" zoomAndPan="magnify"><?plantuml 1.2026.3beta5?><defs/><g><g class="title" data-source-line="1"><text fill="#000000" font-family="sans-serif" font-size="14" font-weight="700" lengthAdjust="spacing" textLength="388.7803" x="208.819" y="22.9951">Customer Support Automation - Activity Diagram</text></g><g class="start_entity" data-qualified-name="start" data-source-line="3" id="ent0002"><ellipse cx="204.89" cy="53.2969" fill="#222222" rx="10" ry="10" style="stroke:#222222;stroke-width:1;"/></g><rect fill="#F1F1F1" height="33.9688" rx="12.5" ry="12.5" style="stroke:#181818;stroke-width:0.5;" width="156.9688" x="126.4" y="104.2969"/><text fill="#000000" font-family="sans-serif" font-size="12" lengthAdjust="spacing" textLength="136.9688" x="136.4" y="125.4355">Receive inbound email</text><rect fill="#F1F1F1" height="33.9688" rx="12.5" ry="12.5" style="stroke:#181818;stroke-width:0.5;" width="236.0234" x="86.88" y="179.2669"/><text fill="#000000" font-family="sans-serif" font-size="12" lengthAdjust="spacing" textLength="216.0234" x="96.88" y="200.4055">Parse metadata, body, attachments</text><g class="entity" data-qualified-name=".7" id="ent0008"><polygon fill="#F1F1F1" points="204.89,254.2269,216.89,266.2269,204.89,278.2269,192.89,266.2269,204.89,254.2269" style="stroke:#181818;stroke-width:0.5;"/></g><rect fill="#F1F1F1" height="33.9688" rx="12.5" ry="12.5" style="stroke:#181818;stroke-width:0.5;" width="149.0703" x="44.35" y="332.2269"/><text fill="#000000" font-family="sans-serif" font-size="12" lengthAdjust="spacing" textLength="129.0703" x="54.35" y="353.3655">Link to existing ticket</text><rect fill="#F1F1F1" height="33.9688" rx="12.5" ry="12.5" style="stroke:#181818;stroke-width:0.5;" width="223.7773" x="7" y="475.1369"/><text fill="#000000" font-family="sans-serif" font-size="12" lengthAdjust="spacing" textLength="203.7773" x="17" y="496.2755">Send duplicate acknowledgement</text><g class="end_entity" data-qualified-name="end" data-source-line="9" id="ent0014"><ellipse cx="131.89" cy="1233.8869" fill="none" rx="11" ry="11" style="stroke:#222222;stroke-width:1.5;"/><ellipse cx="131.89" cy="1233.8869" fill="#222222" rx="6" ry="6" style="stroke:#222222;stroke-width:1;"/></g><rect fill="#F1F1F1" height="33.9688" rx="12.5" ry="12.5" style="stroke:#181818;stroke-width:0.5;" width="155.873" x="212.95" y="332.2269"/><text fill="#000000" font-family="sans-serif" font-size="12" lengthAdjust="spacing" textLength="135.873" x="222.95" y="353.3655">Create message event</text><rect fill="#F1F1F1" height="47.9375" rx="12.5" ry="12.5" style="stroke:#181818;stroke-width:0.5;" width="258.6406" x="161.57" y="407.1969"/><text fill="#000000" font-family="sans-serif" font-size="12" lengthAdjust="spacing" textLength="78.252" x="171.57" y="428.3355">Run AI triage</text><text fill="#000000" font-family="sans-serif" font-size="12" lengthAdjust="spacing" textLength="238.6406" x="171.57" y="442.3043">(intent, entities, sentiment, confidence)</text><g class="entity" data-qualified-name=".20" id="ent0021"><polygon fill="#F1F1F1" points="290.89,529.1069,302.89,541.1069,290.89,553.1069,278.89,541.1069,290.89,529.1069" style="stroke:#181818;stroke-width:0.5;"/></g><rect fill="#F1F1F1" height="33.9688" rx="12.5" ry="12.5" style="stroke:#181818;stroke-width:0.5;" width="232.7246" x="149.53" y="607.1069"/><text fill="#000000" font-family="sans-serif" font-size="12" lengthAdjust="spacing" textLength="212.7246" x="159.53" y="628.2455">Update existing Monday.com ticket</text><rect fill="#F1F1F1" height="33.9688" rx="12.5" ry="12.5" style="stroke:#181818;stroke-width:0.5;" width="206.873" x="402.45" y="607.1069"/><text fill="#000000" font-family="sans-serif" font-size="12" lengthAdjust="spacing" textLength="186.873" x="412.45" y="628.2455">Create new Monday.com ticket</text><rect fill="#F1F1F1" height="33.9688" rx="12.5" ry="12.5" style="stroke:#181818;stroke-width:0.5;" width="292.8184" x="357.48" y="682.0769"/><text fill="#000000" font-family="sans-serif" font-size="12" lengthAdjust="spacing" textLength="272.8184" x="367.48" y="703.2155">Send acknowledgement with ticket reference</text><g class="entity" data-qualified-name=".29" id="ent0030"><polygon fill="#F1F1F1" points="498.89,757.0469,510.89,769.0469,498.89,781.0469,486.89,769.0469,498.89,757.0469" style="stroke:#181818;stroke-width:0.5;"/></g><rect fill="#F1F1F1" height="33.9688" rx="12.5" ry="12.5" style="stroke:#181818;stroke-width:0.5;" width="170.8906" x="185.44" y="835.0469"/><text fill="#000000" font-family="sans-serif" font-size="12" lengthAdjust="spacing" textLength="150.8906" x="195.44" y="856.1855">Send follow-up questions</text><rect fill="#F1F1F1" height="33.9688" rx="12.5" ry="12.5" style="stroke:#181818;stroke-width:0.5;" width="162.0781" x="178.85" y="910.0169"/><text fill="#000000" font-family="sans-serif" font-size="12" lengthAdjust="spacing" textLength="142.0781" x="188.85" y="931.1555">Wait for customer reply</text><rect fill="#F1F1F1" height="33.9688" rx="12.5" ry="12.5" style="stroke:#181818;stroke-width:0.5;" width="195.998" x="150.89" y="997.9769"/><text fill="#000000" font-family="sans-serif" font-size="12" lengthAdjust="spacing" textLength="175.998" x="160.89" y="1019.1155">Append reply to same thread</text><rect fill="#F1F1F1" height="33.9688" rx="12.5" ry="12.5" style="stroke:#181818;stroke-width:0.5;" width="199.5371" x="399.12" y="835.0469"/><text fill="#000000" font-family="sans-serif" font-size="12" lengthAdjust="spacing" textLength="179.5371" x="409.12" y="856.1855">Proceed with available details</text><g class="entity" data-qualified-name=".40" id="ent0041"><polygon fill="#F1F1F1" points="498.89,914.9969,510.89,926.9969,498.89,938.9969,486.89,926.9969,498.89,914.9969" style="stroke:#181818;stroke-width:0.5;"/></g><rect fill="#F1F1F1" height="33.9688" rx="12.5" ry="12.5" style="stroke:#181818;stroke-width:0.5;" width="174.7871" x="366.5" y="997.9769"/><text fill="#000000" font-family="sans-serif" font-size="12" lengthAdjust="spacing" textLength="154.7871" x="376.5" y="1019.1155">Escalate to support agent</text><rect fill="#F1F1F1" height="33.9688" rx="12.5" ry="12.5" style="stroke:#181818;stroke-width:0.5;" width="181.5371" x="317.12" y="1072.9469"/><text fill="#000000" font-family="sans-serif" font-size="12" lengthAdjust="spacing" textLength="161.5371" x="327.12" y="1094.0855">Agent reviews AI summary</text><rect fill="#F1F1F1" height="33.9688" rx="12.5" ry="12.5" style="stroke:#181818;stroke-width:0.5;" width="249.6992" x="279.04" y="1147.9169"/><text fill="#000000" font-family="sans-serif" font-size="12" lengthAdjust="spacing" textLength="229.6992" x="289.04" y="1169.0555">Agent approves or overrides response</text><rect fill="#F1F1F1" height="33.9688" rx="12.5" ry="12.5" style="stroke:#181818;stroke-width:0.5;" width="199.4141" x="561.18" y="997.9769"/><text fill="#000000" font-family="sans-serif" font-size="12" lengthAdjust="spacing" textLength="179.4141" x="571.18" y="1019.1155">Continue automated handling</text><rect fill="#F1F1F1" height="33.9688" rx="12.5" ry="12.5" style="stroke:#181818;stroke-width:0.5;" width="277.0684" x="522.35" y="1072.9469"/><text fill="#000000" font-family="sans-serif" font-size="12" lengthAdjust="spacing" textLength="257.0684" x="532.35" y="1094.0855">Send status/resolution update to customer</text><rect fill="#F1F1F1" height="33.9688" rx="12.5" ry="12.5" style="stroke:#181818;stroke-width:0.5;" width="224.3398" x="548.72" y="1147.9169"/><text fill="#000000" font-family="sans-serif" font-size="12" lengthAdjust="spacing" textLength="204.3398" x="558.72" y="1169.0555">Update ticket state and audit logs</text><!--link start to Receive inbound email--><g class="link" data-entity-1="ent0002" data-entity-2="ent0003" data-link-type="dependency" data-source-line="3" id="lnk4"><path d="M204.89,63.7469 C204.89,74.2269 204.89,85.3069 204.89,97.9569" fill="none" id="start-to-Receive inbound email" style="stroke:#181818;stroke-width:1;"/><polygon fill="#181818" points="204.89,103.9569,208.89,94.9569,204.89,98.9569,200.89,94.9569,204.89,103.9569" style="stroke:#181818;stroke-width:1;"/></g><!--link Receive inbound email to Parse metadata, body, attachments--><g class="link" data-entity-1="ent0003" data-entity-2="ent0005" data-link-type="dependency" data-source-line="4" id="lnk6"><path d="M204.89,138.4669 C204.89,150.4769 204.89,160.7869 204.89,172.8469" fill="none" id="Receive inbound email-to-Parse metadata, body, attachments" style="stroke:#181818;stroke-width:1;"/><polygon fill="#181818" points="204.89,178.8469,208.89,169.8469,204.89,173.8469,200.89,169.8469,204.89,178.8469" style="stroke:#181818;stroke-width:1;"/></g><!--link Parse metadata, body, attachments to #7--><g class="link" data-entity-1="ent0005" data-entity-2="ent0008" data-link-type="dependency" data-source-line="6" id="lnk9"><path d="M204.89,213.7069 C204.89,226.1169 204.89,236.8369 204.89,247.8169" fill="none" id="Parse metadata, body, attachments-to-#7" style="stroke:#181818;stroke-width:1;"/><polygon fill="#181818" points="204.89,253.8169,208.89,244.8169,204.89,248.8169,200.89,244.8169,204.89,253.8169" style="stroke:#181818;stroke-width:1;"/><text fill="#000000" font-family="sans-serif" font-size="11" lengthAdjust="spacing" textLength="123.417" x="61.5872" y="246.0623">Duplicate submission?</text></g><!--link #7 to Link to existing ticket--><g class="link" data-entity-1="ent0008" data-entity-2="ent0010" data-link-type="dependency" data-source-line="7" id="lnk11"><path d="M198.98,272.7969 C186.23,284.8069 160.0886,309.4241 140.6186,327.7541" fill="none" id="#7-to-Link to existing ticket" style="stroke:#181818;stroke-width:1;"/><polygon fill="#181818" points="136.25,331.8669,145.5448,328.6101,139.8905,328.4395,140.061,322.7852,136.25,331.8669" style="stroke:#181818;stroke-width:1;"/><text fill="#000000" font-family="sans-serif" font-size="11" lengthAdjust="spacing" textLength="19.0083" x="170.89" y="309.4373">yes</text></g><!--link Link to existing ticket to Send duplicate acknowledgement--><g class="link" data-entity-1="ent0010" data-entity-2="ent0012" data-link-type="dependency" data-source-line="8" id="lnk13"><path d="M118.89,366.6569 C118.89,393.8069 118.89,441.7069 118.89,468.7869" fill="none" id="Link to existing ticket-to-Send duplicate acknowledgement" style="stroke:#181818;stroke-width:1;"/><polygon fill="#181818" points="118.89,474.7869,122.89,465.7869,118.89,469.7869,114.89,465.7869,118.89,474.7869" style="stroke:#181818;stroke-width:1;"/></g><!--link Send duplicate acknowledgement to end--><g class="link" data-entity-1="ent0012" data-entity-2="ent0014" data-link-type="dependency" data-source-line="9" id="lnk15"><path d="M118.89,509.6069 C118.89,526.9169 118.89,554.9269 118.89,579.1069 C118.89,579.1069 118.89,579.1069 118.89,1165.9069 C118.89,1186.5169 123.1814,1204.3053 127.0314,1217.2653" fill="none" id="Send duplicate acknowledgement-to-end" style="stroke:#181818;stroke-width:1;"/><polygon fill="#181818" points="128.74,1223.0169,130.0115,1213.2504,127.3162,1218.2239,122.3427,1215.5286,128.74,1223.0169" style="stroke:#181818;stroke-width:1;"/></g><!--link #7 to Create message event--><g class="link" data-entity-1="ent0008" data-entity-2="ent0016" data-link-type="dependency" data-source-line="11" id="lnk17"><path d="M210.8,272.7969 C223.55,284.8069 249.6924,309.4229 269.1524,327.7529" fill="none" id="#7-to-Create message event" style="stroke:#181818;stroke-width:1;"/><polygon fill="#181818" points="273.52,331.8669,269.7113,322.7843,269.8804,328.4386,264.226,328.6077,273.52,331.8669" style="stroke:#181818;stroke-width:1;"/><text fill="#000000" font-family="sans-serif" font-size="11" lengthAdjust="spacing" textLength="13.7017" x="250.89" y="309.4373">no</text></g><!--link Create message event to Run AI triage\n(intent, entities, sentiment, confidence)--><g class="link" data-entity-1="ent0016" data-entity-2="ent0018" data-link-type="dependency" data-source-line="14" id="lnk19"><path d="M290.89,366.3969 C290.89,377.9869 290.89,387.7669 290.89,400.7369" fill="none" id="Create message event-to-Run AI triage\n(intent, entities, sentiment, confidence)" style="stroke:#181818;stroke-width:1;"/><polygon fill="#181818" points="290.89,406.7369,294.89,397.7369,290.89,401.7369,286.89,397.7369,290.89,406.7369" style="stroke:#181818;stroke-width:1;"/></g><!--link Run AI triage\n(intent, entities, sentiment, confidence) to #20--><g class="link" data-entity-1="ent0018" data-entity-2="ent0021" data-link-type="dependency" data-source-line="16" id="lnk22"><path d="M290.89,455.5869 C290.89,478.1569 290.89,505.3569 290.89,522.6569" fill="none" id="Run AI triage\n(intent, entities, sentiment, confidence)-to-#20" style="stroke:#181818;stroke-width:1;"/><polygon fill="#181818" points="290.89,528.6569,294.89,519.6569,290.89,523.6569,286.89,519.6569,290.89,528.6569" style="stroke:#181818;stroke-width:1;"/><text fill="#000000" font-family="sans-serif" font-size="11" lengthAdjust="spacing" textLength="124.228" x="146.9433" y="521.0279">Existing thread found?</text></g><!--link #20 to Update existing Monday.com ticket--><g class="link" data-entity-1="ent0021" data-entity-2="ent0023" data-link-type="dependency" data-source-line="17" id="lnk24"><path d="M288.21,550.7769 C284.11,564.0769 277.9507,584.0241 272.7307,600.9241" fill="none" id="#20-to-Update existing Monday.com ticket" style="stroke:#181818;stroke-width:1;"/><polygon fill="#181818" points="270.96,606.6569,277.4379,599.2382,272.4356,601.8796,269.7942,596.8773,270.96,606.6569" style="stroke:#181818;stroke-width:1;"/><text fill="#000000" font-family="sans-serif" font-size="11" lengthAdjust="spacing" textLength="19.0083" x="280.89" y="584.3173">yes</text></g><!--link #20 to Create new Monday.com ticket--><g class="link" data-entity-1="ent0021" data-entity-2="ent0025" data-link-type="dependency" data-source-line="19" id="lnk26"><path d="M299.32,545.2769 C326.02,555.3369 404.4751,584.8919 456.7751,604.5919" fill="none" id="#20-to-Create new Monday.com ticket" style="stroke:#181818;stroke-width:1;"/><polygon fill="#181818" points="462.39,606.7069,455.3777,599.7912,457.7109,604.9444,452.5577,607.2777,462.39,606.7069" style="stroke:#181818;stroke-width:1;"/><text fill="#000000" font-family="sans-serif" font-size="11" lengthAdjust="spacing" textLength="13.7017" x="404.89" y="584.3173">no</text></g><!--link Create new Monday.com ticket to Send acknowledgement with ticket reference--><g class="link" data-entity-1="ent0025" data-entity-2="ent0027" data-link-type="dependency" data-source-line="22" id="lnk28"><path d="M505.44,641.2869 C505.12,653.2969 504.8341,663.5991 504.5041,675.6591" fill="none" id="Create new Monday.com ticket-to-Send acknowledgement with ticket reference" style="stroke:#181818;stroke-width:1;"/><polygon fill="#181818" points="504.34,681.6569,508.5847,672.7697,504.4768,676.6587,500.5877,672.5508,504.34,681.6569" style="stroke:#181818;stroke-width:1;"/></g><!--link Send acknowledgement with ticket reference to #29--><g class="link" data-entity-1="ent0027" data-entity-2="ent0030" data-link-type="dependency" data-source-line="24" id="lnk31"><path d="M502.68,716.5169 C501.74,729.2469 500.9068,740.5128 500.1068,751.4728" fill="none" id="Send acknowledgement with ticket reference-to-#29" style="stroke:#181818;stroke-width:1;"/><polygon fill="#181818" points="499.67,757.4569,504.3146,748.772,500.034,752.4701,496.3358,748.1896,499.67,757.4569" style="stroke:#181818;stroke-width:1;"/><text fill="#000000" font-family="sans-serif" font-size="11" lengthAdjust="spacing" textLength="87.001" x="391.8442" y="747.2883">Missing details?</text></g><!--link #29 to Send follow-up questions--><g class="link" data-entity-1="ent0030" data-entity-2="ent0032" data-link-type="dependency" data-source-line="25" id="lnk33"><path d="M490.5,773.0169 C462.79,782.8669 378.3642,812.8593 322.5442,832.6793" fill="none" id="#29-to-Send follow-up questions" style="stroke:#181818;stroke-width:1;"/><polygon fill="#181818" points="316.89,834.6869,326.7096,835.4449,321.6018,833.0139,324.0328,827.906,316.89,834.6869" style="stroke:#181818;stroke-width:1;"/><text fill="#000000" font-family="sans-serif" font-size="11" lengthAdjust="spacing" textLength="19.0083" x="405.89" y="812.2573">yes</text></g><!--link Send follow-up questions to Wait for customer reply--><g class="link" data-entity-1="ent0032" data-entity-2="ent0034" data-link-type="dependency" data-source-line="26" id="lnk35"><path d="M268.45,869.2169 C266.64,881.2269 265.0753,891.6041 263.2553,903.6641" fill="none" id="Send follow-up questions-to-Wait for customer reply" style="stroke:#181818;stroke-width:1;"/><polygon fill="#181818" points="262.36,909.5969,267.6582,901.2945,263.1061,904.6529,259.7478,900.1008,262.36,909.5969" style="stroke:#181818;stroke-width:1;"/></g><!--link Wait for customer reply to Append reply to same thread--><g class="link" data-entity-1="ent0034" data-entity-2="ent0036" data-link-type="dependency" data-source-line="27" id="lnk37"><path d="M257.82,944.1669 C255.87,959.4369 253.71,976.2752 251.75,991.6252" fill="none" id="Wait for customer reply-to-Append reply to same thread" style="stroke:#181818;stroke-width:1;"/><polygon fill="#181818" points="250.99,997.5769,256.0977,989.156,251.6233,992.6171,248.1621,988.1427,250.99,997.5769" style="stroke:#181818;stroke-width:1;"/></g><!--link #29 to Proceed with available details--><g class="link" data-entity-1="ent0030" data-entity-2="ent0038" data-link-type="dependency" data-source-line="29" id="lnk39"><path d="M498.89,781.6469 C498.89,795.5569 498.89,812.9469 498.89,828.6869" fill="none" id="#29-to-Proceed with available details" style="stroke:#181818;stroke-width:1;"/><polygon fill="#181818" points="498.89,834.6869,502.89,825.6869,498.89,829.6869,494.89,825.6869,498.89,834.6869" style="stroke:#181818;stroke-width:1;"/><text fill="#000000" font-family="sans-serif" font-size="11" lengthAdjust="spacing" textLength="13.7017" x="499.89" y="812.2573">no</text></g><!--link Proceed with available details to #40--><g class="link" data-entity-1="ent0038" data-entity-2="ent0041" data-link-type="dependency" data-source-line="32" id="lnk42"><path d="M498.89,869.2169 C498.89,882.9969 498.89,896.4169 498.89,908.6069" fill="none" id="Proceed with available details-to-#40" style="stroke:#181818;stroke-width:1;"/><polygon fill="#181818" points="498.89,914.6069,502.89,905.6069,498.89,909.6069,494.89,905.6069,498.89,914.6069" style="stroke:#181818;stroke-width:1;"/><text fill="#000000" font-family="sans-serif" font-size="11" lengthAdjust="spacing" textLength="156.8091" x="322.2161" y="905.2994">Low confidence or high risk?</text></g><!--link #40 to Escalate to support agent--><g class="link" data-entity-1="ent0041" data-entity-2="ent0043" data-link-type="dependency" data-source-line="33" id="lnk44"><path d="M491.69,932.3169 C482.58,938.2169 467.18,949.7069 459.89,963.9769 C454.56,974.4069 453.2246,981.6172 453.1146,991.8372" fill="none" id="#40-to-Escalate to support agent" style="stroke:#181818;stroke-width:1;"/><polygon fill="#181818" points="453.05,997.8369,457.1466,988.8804,453.1038,992.8372,449.1471,988.7943,453.05,997.8369" style="stroke:#181818;stroke-width:1;"/><text fill="#000000" font-family="sans-serif" font-size="11" lengthAdjust="spacing" textLength="19.0083" x="460.89" y="975.1873">yes</text></g><!--link Escalate to support agent to Agent reviews AI summary--><g class="link" data-entity-1="ent0043" data-entity-2="ent0045" data-link-type="dependency" data-source-line="34" id="lnk46"><path d="M443.68,1032.1569 C436.11,1044.1669 429.0289,1055.4007 421.4289,1067.4607" fill="none" id="Escalate to support agent-to-Agent reviews AI summary" style="stroke:#181818;stroke-width:1;"/><polygon fill="#181818" points="418.23,1072.5369,426.4124,1067.0553,420.8957,1068.3068,419.6442,1062.7901,418.23,1072.5369" style="stroke:#181818;stroke-width:1;"/></g><!--link Agent reviews AI summary to Agent approves or overrides response--><g class="link" data-entity-1="ent0045" data-entity-2="ent0047" data-link-type="dependency" data-source-line="35" id="lnk48"><path d="M407,1107.1269 C406.34,1119.1369 405.7781,1129.4559 405.1181,1141.5059" fill="none" id="Agent reviews AI summary-to-Agent approves or overrides response" style="stroke:#181818;stroke-width:1;"/><polygon fill="#181818" points="404.79,1147.4969,409.2762,1138.7291,405.0634,1142.5044,401.2882,1138.2916,404.79,1147.4969" style="stroke:#181818;stroke-width:1;"/></g><!--link #40 to Continue automated handling--><g class="link" data-entity-1="ent0041" data-entity-2="ent0049" data-link-type="dependency" data-source-line="37" id="lnk50"><path d="M506.27,931.9169 C527.81,943.3469 586.1995,974.3353 624.7895,994.8053" fill="none" id="#40-to-Continue automated handling" style="stroke:#181818;stroke-width:1;"/><polygon fill="#181818" points="630.09,997.6169,624.0137,989.8658,625.673,995.2739,620.2649,996.9331,630.09,997.6169" style="stroke:#181818;stroke-width:1;"/><text fill="#000000" font-family="sans-serif" font-size="11" lengthAdjust="spacing" textLength="13.7017" x="589.89" y="975.1873">no</text></g><!--link Continue automated handling to Send status/resolution update to customer--><g class="link" data-entity-1="ent0049" data-entity-2="ent0051" data-link-type="dependency" data-source-line="40" id="lnk52"><path d="M660.89,1032.1569 C660.89,1044.1669 660.89,1054.4769 660.89,1066.5369" fill="none" id="Continue automated handling-to-Send status/resolution update to customer" style="stroke:#181818;stroke-width:1;"/><polygon fill="#181818" points="660.89,1072.5369,664.89,1063.5369,660.89,1067.5369,656.89,1063.5369,660.89,1072.5369" style="stroke:#181818;stroke-width:1;"/></g><!--link Send status/resolution update to customer to Update ticket state and audit logs--><g class="link" data-entity-1="ent0051" data-entity-2="ent0053" data-link-type="dependency" data-source-line="41" id="lnk54"><path d="M660.89,1107.1269 C660.89,1119.1369 660.89,1129.4469 660.89,1141.4969" fill="none" id="Send status/resolution update to customer-to-Update ticket state and audit logs" style="stroke:#181818;stroke-width:1;"/><polygon fill="#181818" points="660.89,1147.4969,664.89,1138.4969,660.89,1142.4969,656.89,1138.4969,660.89,1147.4969" style="stroke:#181818;stroke-width:1;"/></g><!--link Update ticket state and audit logs to end--><g class="link" data-entity-1="ent0053" data-entity-2="ent0014" data-link-type="dependency" data-source-line="42" id="lnk55"><path d="M548.22,1180.6869 C545.08,1181.0969 541.96,1181.4969 538.89,1181.8869 C381.73,1202.0269 196.265,1224.9533 148.855,1230.7933" fill="none" id="Update ticket state and audit logs-to-end" style="stroke:#181818;stroke-width:1;"/><polygon fill="#181818" points="142.9,1231.5269,152.3215,1234.3966,147.8625,1230.9156,151.3435,1226.4566,142.9,1231.5269" style="stroke:#181818;stroke-width:1;"/></g><?plantuml-src TLFDRfn03Bxp51QdfDfjtw3LAicXKY95YQeUsXvc6GFM3ZDqx87ozlK0eL5ABlnwxE_FGk8GRX9Bw332S-hx40LEIT-DKF1mX5CbD91CS4kcYQOhYgiFrt0yVeRo2Ika0O7yEIHl0Jj3hYpcVuycCaA7OgmHSu1piDC1Z8YfsWwzS5aKL4Dvctf7bH44JkUEc7NgbnAaHLz07lDZGlu5vJtv2qW0_4Civ1iGgYuevL84vJCg0BirCzN5Xz6XRJ1FUobJw0KwnhMr3zhv9c8-qI6pQH1mcEkr7TN5mkKfUJXz1Ocg0FxqL-H5QmwW5n92FW3dnsx-M0LVaqLVuVLAyMw3tEee2tKMQu_Zjzvc91l5X-2jcJvMeTlOlWFUuxXR_Oh4BD0RMM0aQTTgY5XZpBXNs0_P34LXrKDol0Tuxba7vy9uJ3tyJiWvDRovyjsGQ464wYLZ4NitRVzFVPzRp1-pksmwN6Nwd-jZ31MYNK2RGK6PiyPtnRUnpTZlm_ZA2500BJKjHEBB7eyxhepBEcO8wnAerVzoKvxoc-8S24VEOU3KTIPERmfCtySm8EU9UezH0R0UurvLmHtxWkR69ythidBAhZNUEjLznpqM8ua_QRlWqhoUQKcCmduHU5s_DKghjVcWpiW1I5OTSQ7XfL0NuYy0?></g></svg>