<svg xmlns="http://www.w3.org/2000/svg" xmlns:xlink="http://www.w3.org/1999/xlink" contentStyleType="text/css" data-diagram-type="CLASS" height="666px" preserveAspectRatio="none" style="width:1296px;height:666px;background:#FFFFFF;" version="1.1" viewBox="0 0 1296 666" width="1296px" zoomAndPan="magnify"><?plantuml 1.2026.3beta5?><defs/><g><g class="title" data-source-line="4"><text fill="#000000" font-family="sans-serif" font-size="14" font-weight="700" lengthAdjust="spacing" textLength="369.5986" x="459.7763" y="22.9951">Customer Support Automation - Class Diagram</text></g><!--class Customer--><g class="entity" data-qualified-name="Customer" data-source-line="6" id="ent0002"><rect fill="#F1F1F1" height="113.1875" rx="2.5" ry="2.5" style="stroke:#181818;stroke-width:0.5;" width="161.9736" x="360.08" y="44.2969"/><ellipse cx="402.9664" cy="60.2969" fill="#ADD1B2" rx="11" ry="11" style="stroke:#181818;stroke-width:1;"/><path d="M405.9351,65.9375 Q405.357,66.2344 404.7164,66.375 Q404.0758,66.5313 403.3726,66.5313 Q400.8726,66.5313 399.5445,64.8906 Q398.232,63.2344 398.232,60.1094 Q398.232,56.9844 399.5445,55.3281 Q400.8726,53.6719 403.3726,53.6719 Q404.0758,53.6719 404.7164,53.8281 Q405.3726,53.9844 405.9351,54.2813 L405.9351,57 Q405.3101,56.4219 404.7164,56.1563 Q404.1226,55.875 403.4976,55.875 Q402.1539,55.875 401.4664,56.9531 Q400.7789,58.0156 400.7789,60.1094 Q400.7789,62.2031 401.4664,63.2813 Q402.1539,64.3438 403.4976,64.3438 Q404.1226,64.3438 404.7164,64.0781 Q405.3101,63.7969 405.9351,63.2188 L405.9351,65.9375 Z " fill="#000000"/><text fill="#000000" font-family="sans-serif" font-size="14" lengthAdjust="spacing" textLength="68.0039" x="423.1633" y="65.1436">Customer</text><line style="stroke:#181818;stroke-width:0.5;" x1="361.08" x2="521.0536" y1="76.2969" y2="76.2969"/><text fill="#000000" font-family="sans-serif" font-size="14" lengthAdjust="spacing" textLength="148.3809" x="366.08" y="93.292">+customer_id: String</text><text fill="#000000" font-family="sans-serif" font-size="14" lengthAdjust="spacing" textLength="102.3818" x="366.08" y="109.5889">+name: String</text><text fill="#000000" font-family="sans-serif" font-size="14" lengthAdjust="spacing" textLength="101.2881" x="366.08" y="125.8857">+email: String</text><text fill="#000000" font-family="sans-serif" font-size="14" lengthAdjust="spacing" textLength="149.9736" x="366.08" y="142.1826">+organization: String</text><line style="stroke:#181818;stroke-width:0.5;" x1="361.08" x2="521.0536" y1="149.4844" y2="149.4844"/></g><!--class Ticket--><g class="entity" data-qualified-name="Ticket" data-source-line="13" id="ent0003"><rect fill="#F1F1F1" height="178.375" rx="2.5" ry="2.5" style="stroke:#181818;stroke-width:0.5;" width="180.335" x="420.9" y="234.4869"/><ellipse cx="485.6432" cy="250.4869" fill="#ADD1B2" rx="11" ry="11" style="stroke:#181818;stroke-width:1;"/><path d="M488.6119,256.1275 Q488.0338,256.4244 487.3932,256.565 Q486.7525,256.7213 486.0494,256.7213 Q483.5494,256.7213 482.2213,255.0806 Q480.9088,253.4244 480.9088,250.2994 Q480.9088,247.1744 482.2213,245.5181 Q483.5494,243.8619 486.0494,243.8619 Q486.7525,243.8619 487.3932,244.0181 Q488.0494,244.1744 488.6119,244.4713 L488.6119,247.19 Q487.9869,246.6119 487.3932,246.3463 Q486.7994,246.065 486.1744,246.065 Q484.8307,246.065 484.1432,247.1431 Q483.4557,248.2056 483.4557,250.2994 Q483.4557,252.3931 484.1432,253.4713 Q484.8307,254.5338 486.1744,254.5338 Q486.7994,254.5338 487.3932,254.2681 Q487.9869,253.9869 488.6119,253.4088 L488.6119,256.1275 Z " fill="#000000"/><text fill="#000000" font-family="sans-serif" font-size="14" lengthAdjust="spacing" textLength="42.3486" x="506.1432" y="255.3336">Ticket</text><line style="stroke:#181818;stroke-width:0.5;" x1="421.9" x2="600.235" y1="266.4869" y2="266.4869"/><text fill="#000000" font-family="sans-serif" font-size="14" lengthAdjust="spacing" textLength="121.7412" x="426.9" y="283.482">+ticket_id: String</text><text fill="#000000" font-family="sans-serif" font-size="14" lengthAdjust="spacing" textLength="118.0771" x="426.9" y="299.7789">+channel: String</text><text fill="#000000" font-family="sans-serif" font-size="14" lengthAdjust="spacing" textLength="124.5508" x="426.9" y="316.0757">+category: String</text><text fill="#000000" font-family="sans-serif" font-size="14" lengthAdjust="spacing" textLength="113.1963" x="426.9" y="332.3726">+priority: String</text><text fill="#000000" font-family="sans-serif" font-size="14" lengthAdjust="spacing" textLength="105.6973" x="426.9" y="348.6695">+status: String</text><text fill="#000000" font-family="sans-serif" font-size="14" lengthAdjust="spacing" textLength="105.9365" x="426.9" y="364.9664">+owner: String</text><text fill="#000000" font-family="sans-serif" font-size="14" lengthAdjust="spacing" textLength="163.7549" x="426.9" y="381.2632">+created_at: DateTime</text><text fill="#000000" font-family="sans-serif" font-size="14" lengthAdjust="spacing" textLength="168.335" x="426.9" y="397.5601">+updated_at: DateTime</text><line style="stroke:#181818;stroke-width:0.5;" x1="421.9" x2="600.235" y1="404.8619" y2="404.8619"/></g><!--class Message--><g class="entity" data-qualified-name="Message" data-source-line="24" id="ent0004"><rect fill="#F1F1F1" height="162.0781" rx="2.5" ry="2.5" style="stroke:#181818;stroke-width:0.5;" width="176.5684" x="173.79" y="489.8569"/><ellipse cx="227.1445" cy="505.8569" fill="#ADD1B2" rx="11" ry="11" style="stroke:#181818;stroke-width:1;"/><path d="M230.1132,511.4975 Q229.5351,511.7944 228.8945,511.935 Q228.2539,512.0913 227.5507,512.0913 Q225.0507,512.0913 223.7226,510.4506 Q222.4101,508.7944 222.4101,505.6694 Q222.4101,502.5444 223.7226,500.8881 Q225.0507,499.2319 227.5507,499.2319 Q228.2539,499.2319 228.8945,499.3881 Q229.5507,499.5444 230.1132,499.8412 L230.1132,502.56 Q229.4882,501.9819 228.8945,501.7162 Q228.3007,501.435 227.6757,501.435 Q226.332,501.435 225.6445,502.5131 Q224.957,503.5756 224.957,505.6694 Q224.957,507.7631 225.6445,508.8412 Q226.332,509.9037 227.6757,509.9037 Q228.3007,509.9037 228.8945,509.6381 Q229.4882,509.3569 230.1132,508.7787 L230.1132,511.4975 Z " fill="#000000"/><text fill="#000000" font-family="sans-serif" font-size="14" lengthAdjust="spacing" textLength="61.3594" x="247.6445" y="510.7036">Message</text><line style="stroke:#181818;stroke-width:0.5;" x1="174.79" x2="349.3584" y1="521.8569" y2="521.8569"/><text fill="#000000" font-family="sans-serif" font-size="14" lengthAdjust="spacing" textLength="145.373" x="179.79" y="538.852">+message_id: String</text><text fill="#000000" font-family="sans-serif" font-size="14" lengthAdjust="spacing" textLength="121.7412" x="179.79" y="555.1489">+ticket_id: String</text><text fill="#000000" font-family="sans-serif" font-size="14" lengthAdjust="spacing" textLength="124.3389" x="179.79" y="571.4457">+direction: String</text><text fill="#000000" font-family="sans-serif" font-size="14" lengthAdjust="spacing" textLength="113.4219" x="179.79" y="587.7426">+subject: String</text><text fill="#000000" font-family="sans-serif" font-size="14" lengthAdjust="spacing" textLength="86.4609" x="179.79" y="604.0395">+body: Text</text><text fill="#000000" font-family="sans-serif" font-size="14" lengthAdjust="spacing" textLength="133.9844" x="179.79" y="620.3364">+attachments: List</text><text fill="#000000" font-family="sans-serif" font-size="14" lengthAdjust="spacing" textLength="164.5684" x="179.79" y="636.6332">+timestamp: DateTime</text><line style="stroke:#181818;stroke-width:0.5;" x1="174.79" x2="349.3584" y1="643.935" y2="643.935"/></g><!--class AIInsight--><g class="entity" data-qualified-name="AIInsight" data-source-line="34" id="ent0005"><rect fill="#F1F1F1" height="145.7813" rx="2.5" ry="2.5" style="stroke:#181818;stroke-width:0.5;" width="184.3408" x="901.9" y="498.0069"/><ellipse cx="959.2501" cy="514.0069" fill="#ADD1B2" rx="11" ry="11" style="stroke:#181818;stroke-width:1;"/><path d="M962.2188,519.6475 Q961.6407,519.9444 961.0001,520.085 Q960.3595,520.2413 959.6563,520.2413 Q957.1563,520.2413 955.8282,518.6006 Q954.5157,516.9444 954.5157,513.8194 Q954.5157,510.6944 955.8282,509.0381 Q957.1563,507.3819 959.6563,507.3819 Q960.3595,507.3819 961.0001,507.5381 Q961.6563,507.6944 962.2188,507.9913 L962.2188,510.71 Q961.5938,510.1319 961.0001,509.8663 Q960.4063,509.585 959.7813,509.585 Q958.4376,509.585 957.7501,510.6631 Q957.0626,511.7256 957.0626,513.8194 Q957.0626,515.9131 957.7501,516.9913 Q958.4376,518.0538 959.7813,518.0538 Q960.4063,518.0538 961.0001,517.7881 Q961.5938,517.5069 962.2188,516.9288 L962.2188,519.6475 Z " fill="#000000"/><text fill="#000000" font-family="sans-serif" font-size="14" lengthAdjust="spacing" textLength="61.1406" x="979.7501" y="518.8536">AIInsight</text><line style="stroke:#181818;stroke-width:0.5;" x1="902.9" x2="1085.2408" y1="530.0069" y2="530.0069"/><text fill="#000000" font-family="sans-serif" font-size="14" lengthAdjust="spacing" textLength="121.7412" x="907.9" y="547.002">+ticket_id: String</text><text fill="#000000" font-family="sans-serif" font-size="14" lengthAdjust="spacing" textLength="103.9063" x="907.9" y="563.2989">+intent: String</text><text fill="#000000" font-family="sans-serif" font-size="14" lengthAdjust="spacing" textLength="102.5938" x="907.9" y="579.5957">+entities: Map</text><text fill="#000000" font-family="sans-serif" font-size="14" lengthAdjust="spacing" textLength="133.4512" x="907.9" y="595.8926">+sentiment: String</text><text fill="#000000" font-family="sans-serif" font-size="14" lengthAdjust="spacing" textLength="132.1113" x="907.9" y="612.1895">+confidence: Float</text><text fill="#000000" font-family="sans-serif" font-size="14" lengthAdjust="spacing" textLength="172.3408" x="907.9" y="628.4864">+recommendations: List</text><line style="stroke:#181818;stroke-width:0.5;" x1="902.9" x2="1085.2408" y1="635.7881" y2="635.7881"/></g><!--class AuditEvent--><g class="entity" data-qualified-name="AuditEvent" data-source-line="43" id="ent0006"><rect fill="#F1F1F1" height="145.7813" rx="2.5" ry="2.5" style="stroke:#181818;stroke-width:0.5;" width="176.5684" x="442.79" y="498.0069"/><ellipse cx="488.413" cy="514.0069" fill="#ADD1B2" rx="11" ry="11" style="stroke:#181818;stroke-width:1;"/><path d="M491.3818,519.6475 Q490.8037,519.9444 490.163,520.085 Q489.5224,520.2413 488.8193,520.2413 Q486.3193,520.2413 484.9912,518.6006 Q483.6787,516.9444 483.6787,513.8194 Q483.6787,510.6944 484.9912,509.0381 Q486.3193,507.3819 488.8193,507.3819 Q489.5224,507.3819 490.163,507.5381 Q490.8193,507.6944 491.3818,507.9913 L491.3818,510.71 Q490.7568,510.1319 490.163,509.8663 Q489.5693,509.585 488.9443,509.585 Q487.6005,509.585 486.913,510.6631 Q486.2255,511.7256 486.2255,513.8194 Q486.2255,515.9131 486.913,516.9913 Q487.6005,518.0538 488.9443,518.0538 Q489.5693,518.0538 490.163,517.7881 Q490.7568,517.5069 491.3818,516.9288 L491.3818,519.6475 Z " fill="#000000"/><text fill="#000000" font-family="sans-serif" font-size="14" lengthAdjust="spacing" textLength="76.8223" x="508.913" y="518.8536">AuditEvent</text><line style="stroke:#181818;stroke-width:0.5;" x1="443.79" x2="618.3584" y1="530.0069" y2="530.0069"/><text fill="#000000" font-family="sans-serif" font-size="14" lengthAdjust="spacing" textLength="122.3291" x="448.79" y="547.002">+event_id: String</text><text fill="#000000" font-family="sans-serif" font-size="14" lengthAdjust="spacing" textLength="98.7656" x="448.79" y="563.2989">+actor: String</text><text fill="#000000" font-family="sans-serif" font-size="14" lengthAdjust="spacing" textLength="105.7725" x="448.79" y="579.5957">+action: String</text><text fill="#000000" font-family="sans-serif" font-size="14" lengthAdjust="spacing" textLength="105.4922" x="448.79" y="595.8926">+target: String</text><text fill="#000000" font-family="sans-serif" font-size="14" lengthAdjust="spacing" textLength="164.5684" x="448.79" y="612.1895">+timestamp: DateTime</text><text fill="#000000" font-family="sans-serif" font-size="14" lengthAdjust="spacing" textLength="118.2959" x="448.79" y="628.4864">+metadata: Map</text><line style="stroke:#181818;stroke-width:0.5;" x1="443.79" x2="618.3584" y1="635.7881" y2="635.7881"/></g><!--class ListenerService--><g class="entity" data-qualified-name="ListenerService" data-source-line="52" id="ent0007"><rect fill="#F1F1F1" height="96.8906" rx="2.5" ry="2.5" style="stroke:#181818;stroke-width:0.5;" width="146.1416" x="7" y="275.2269"/><ellipse cx="24.7325" cy="291.2269" fill="#ADD1B2" rx="11" ry="11" style="stroke:#181818;stroke-width:1;"/><path d="M27.7013,296.8675 Q27.1231,297.1644 26.4825,297.305 Q25.8419,297.4613 25.1388,297.4613 Q22.6388,297.4613 21.3106,295.8206 Q19.9981,294.1644 19.9981,291.0394 Q19.9981,287.9144 21.3106,286.2581 Q22.6388,284.6019 25.1388,284.6019 Q25.8419,284.6019 26.4825,284.7581 Q27.1388,284.9144 27.7013,285.2113 L27.7013,287.93 Q27.0763,287.3519 26.4825,287.0863 Q25.8888,286.805 25.2638,286.805 Q23.92,286.805 23.2325,287.8831 Q22.545,288.9456 22.545,291.0394 Q22.545,293.1331 23.2325,294.2113 Q23.92,295.2738 25.2638,295.2738 Q25.8888,295.2738 26.4825,295.0081 Q27.0763,294.7269 27.7013,294.1488 L27.7013,296.8675 Z " fill="#000000"/><text fill="#000000" font-family="sans-serif" font-size="14" lengthAdjust="spacing" textLength="108.0693" x="39.3397" y="296.0736">ListenerService</text><line style="stroke:#181818;stroke-width:0.5;" x1="8" x2="152.1416" y1="307.2269" y2="307.2269"/><line style="stroke:#181818;stroke-width:0.5;" x1="8" x2="152.1416" y1="315.2269" y2="315.2269"/><text fill="#000000" font-family="sans-serif" font-size="14" lengthAdjust="spacing" textLength="104.542" x="13" y="332.222">+ingestEmail()</text><text fill="#000000" font-family="sans-serif" font-size="14" lengthAdjust="spacing" textLength="123.1426" x="13" y="348.5189">+parseMessage()</text><text fill="#000000" font-family="sans-serif" font-size="14" lengthAdjust="spacing" textLength="134.1416" x="13" y="364.8157">+detectDuplicate()</text></g><!--class TriageService--><g class="entity" data-qualified-name="TriageService" data-source-line="58" id="ent0008"><rect fill="#F1F1F1" height="96.8906" rx="2.5" ry="2.5" style="stroke:#181818;stroke-width:0.5;" width="151.2959" x="1043.42" y="275.2269"/><ellipse cx="1068.8952" cy="291.2269" fill="#ADD1B2" rx="11" ry="11" style="stroke:#181818;stroke-width:1;"/><path d="M1071.864,296.8675 Q1071.2859,297.1644 1070.6452,297.305 Q1070.0046,297.4613 1069.3015,297.4613 Q1066.8015,297.4613 1065.4734,295.8206 Q1064.1609,294.1644 1064.1609,291.0394 Q1064.1609,287.9144 1065.4734,286.2581 Q1066.8015,284.6019 1069.3015,284.6019 Q1070.0046,284.6019 1070.6452,284.7581 Q1071.3015,284.9144 1071.864,285.2113 L1071.864,287.93 Q1071.239,287.3519 1070.6452,287.0863 Q1070.0515,286.805 1069.4265,286.805 Q1068.0827,286.805 1067.3952,287.8831 Q1066.7077,288.9456 1066.7077,291.0394 Q1066.7077,293.1331 1067.3952,294.2113 Q1068.0827,295.2738 1069.4265,295.2738 Q1070.0515,295.2738 1070.6452,295.0081 Q1071.239,294.7269 1071.864,294.1488 L1071.864,296.8675 Z " fill="#000000"/><text fill="#000000" font-family="sans-serif" font-size="14" lengthAdjust="spacing" textLength="96.0176" x="1085.2231" y="296.0736">TriageService</text><line style="stroke:#181818;stroke-width:0.5;" x1="1044.42" x2="1193.7159" y1="307.2269" y2="307.2269"/><line style="stroke:#181818;stroke-width:0.5;" x1="1044.42" x2="1193.7159" y1="315.2269" y2="315.2269"/><text fill="#000000" font-family="sans-serif" font-size="14" lengthAdjust="spacing" textLength="115.9785" x="1049.42" y="332.222">+classifyIntent()</text><text fill="#000000" font-family="sans-serif" font-size="14" lengthAdjust="spacing" textLength="124.9473" x="1049.42" y="348.5189">+extractEntities()</text><text fill="#000000" font-family="sans-serif" font-size="14" lengthAdjust="spacing" textLength="139.2959" x="1049.42" y="364.8157">+scoreConfidence()</text></g><!--class TicketSyncService--><g class="entity" data-qualified-name="TicketSyncService" data-source-line="64" id="ent0009"><rect fill="#F1F1F1" height="96.8906" rx="2.5" ry="2.5" style="stroke:#181818;stroke-width:0.5;" width="163.4639" x="772.34" y="52.4469"/><ellipse cx="788.9743" cy="68.4469" fill="#ADD1B2" rx="11" ry="11" style="stroke:#181818;stroke-width:1;"/><path d="M791.9431,74.0875 Q791.365,74.3844 790.7243,74.525 Q790.0837,74.6812 789.3806,74.6812 Q786.8806,74.6812 785.5525,73.0406 Q784.24,71.3844 784.24,68.2594 Q784.24,65.1344 785.5525,63.4781 Q786.8806,61.8219 789.3806,61.8219 Q790.0837,61.8219 790.7243,61.9781 Q791.3806,62.1344 791.9431,62.4312 L791.9431,65.15 Q791.3181,64.5719 790.7243,64.3062 Q790.1306,64.025 789.5056,64.025 Q788.1618,64.025 787.4743,65.1031 Q786.7868,66.1656 786.7868,68.2594 Q786.7868,70.3531 787.4743,71.4312 Q788.1618,72.4937 789.5056,72.4937 Q790.1306,72.4937 790.7243,72.2281 Q791.3181,71.9469 791.9431,71.3687 L791.9431,74.0875 Z " fill="#000000"/><text fill="#000000" font-family="sans-serif" font-size="14" lengthAdjust="spacing" textLength="127.832" x="803.3375" y="73.2936">TicketSyncService</text><line style="stroke:#181818;stroke-width:0.5;" x1="773.34" x2="934.8039" y1="84.4469" y2="84.4469"/><line style="stroke:#181818;stroke-width:0.5;" x1="773.34" x2="934.8039" y1="92.4469" y2="92.4469"/><text fill="#000000" font-family="sans-serif" font-size="14" lengthAdjust="spacing" textLength="109.751" x="778.34" y="109.442">+createTicket()</text><text fill="#000000" font-family="sans-serif" font-size="14" lengthAdjust="spacing" textLength="114.3311" x="778.34" y="125.7389">+updateTicket()</text><text fill="#000000" font-family="sans-serif" font-size="14" lengthAdjust="spacing" textLength="151.4639" x="778.34" y="142.0357">+syncThreadEvents()</text></g><!--class CommunicationService--><g class="entity" data-qualified-name="CommunicationService" data-source-line="70" id="ent0010"><rect fill="#F1F1F1" height="96.8906" rx="2.5" ry="2.5" style="stroke:#181818;stroke-width:0.5;" width="198.0947" x="188.02" y="275.2269"/><ellipse cx="204.8235" cy="291.2269" fill="#ADD1B2" rx="11" ry="11" style="stroke:#181818;stroke-width:1;"/><path d="M207.7923,296.8675 Q207.2141,297.1644 206.5735,297.305 Q205.9329,297.4613 205.2298,297.4613 Q202.7298,297.4613 201.4016,295.8206 Q200.0891,294.1644 200.0891,291.0394 Q200.0891,287.9144 201.4016,286.2581 Q202.7298,284.6019 205.2298,284.6019 Q205.9329,284.6019 206.5735,284.7581 Q207.2298,284.9144 207.7923,285.2113 L207.7923,287.93 Q207.1673,287.3519 206.5735,287.0863 Q205.9798,286.805 205.3548,286.805 Q204.011,286.805 203.3235,287.8831 Q202.636,288.9456 202.636,291.0394 Q202.636,293.1331 203.3235,294.2113 Q204.011,295.2738 205.3548,295.2738 Q205.9798,295.2738 206.5735,295.0081 Q207.1673,294.7269 207.7923,294.1488 L207.7923,296.8675 Z " fill="#000000"/><text fill="#000000" font-family="sans-serif" font-size="14" lengthAdjust="spacing" textLength="162.0869" x="219.2243" y="296.0736">CommunicationService</text><line style="stroke:#181818;stroke-width:0.5;" x1="189.02" x2="385.1147" y1="307.2269" y2="307.2269"/><line style="stroke:#181818;stroke-width:0.5;" x1="189.02" x2="385.1147" y1="315.2269" y2="315.2269"/><text fill="#000000" font-family="sans-serif" font-size="14" lengthAdjust="spacing" textLength="186.0947" x="194.02" y="332.222">+sendAcknowledgement()</text><text fill="#000000" font-family="sans-serif" font-size="14" lengthAdjust="spacing" textLength="119.8682" x="194.02" y="348.5189">+sendFollowUp()</text><text fill="#000000" font-family="sans-serif" font-size="14" lengthAdjust="spacing" textLength="168.4375" x="194.02" y="364.8157">+sendLifecycleUpdate()</text></g><!--class OrchestrationService--><g class="entity" data-qualified-name="OrchestrationService" data-source-line="76" id="ent0011"><rect fill="#F1F1F1" height="96.8906" rx="2.5" ry="2.5" style="stroke:#181818;stroke-width:0.5;" width="179.6357" x="557.25" y="52.4469"/><ellipse cx="572.25" cy="68.4469" fill="#ADD1B2" rx="11" ry="11" style="stroke:#181818;stroke-width:1;"/><path d="M575.2188,74.0875 Q574.6406,74.3844 574,74.525 Q573.3594,74.6812 572.6563,74.6812 Q570.1563,74.6812 568.8281,73.0406 Q567.5156,71.3844 567.5156,68.2594 Q567.5156,65.1344 568.8281,63.4781 Q570.1563,61.8219 572.6563,61.8219 Q573.3594,61.8219 574,61.9781 Q574.6563,62.1344 575.2188,62.4312 L575.2188,65.15 Q574.5938,64.5719 574,64.3062 Q573.4063,64.025 572.7813,64.025 Q571.4375,64.025 570.75,65.1031 Q570.0625,66.1656 570.0625,68.2594 Q570.0625,70.3531 570.75,71.4312 Q571.4375,72.4937 572.7813,72.4937 Q573.4063,72.4937 574,72.2281 Q574.5938,71.9469 575.2188,71.3687 L575.2188,74.0875 Z " fill="#000000"/><text fill="#000000" font-family="sans-serif" font-size="14" lengthAdjust="spacing" textLength="147.6357" x="586.25" y="73.2936">OrchestrationService</text><line style="stroke:#181818;stroke-width:0.5;" x1="558.25" x2="735.8857" y1="84.4469" y2="84.4469"/><line style="stroke:#181818;stroke-width:0.5;" x1="558.25" x2="735.8857" y1="92.4469" y2="92.4469"/><text fill="#000000" font-family="sans-serif" font-size="14" lengthAdjust="spacing" textLength="119.2256" x="563.25" y="109.442">+advanceState()</text><text fill="#000000" font-family="sans-serif" font-size="14" lengthAdjust="spacing" textLength="142.0713" x="563.25" y="125.7389">+handleEscalation()</text><text fill="#000000" font-family="sans-serif" font-size="14" lengthAdjust="spacing" textLength="130.3408" x="563.25" y="142.0357">+retryFailedStep()</text></g><!--class MondayClient--><g class="entity" data-qualified-name="MondayClient" data-source-line="82" id="ent0012"><rect fill="#F1F1F1" height="80.5938" rx="2.5" ry="2.5" style="stroke:#181818;stroke-width:0.5;" width="127.7988" x="758.17" y="283.3769"/><ellipse cx="773.17" cy="299.3769" fill="#ADD1B2" rx="11" ry="11" style="stroke:#181818;stroke-width:1;"/><path d="M776.1388,305.0175 Q775.5606,305.3144 774.92,305.455 Q774.2794,305.6113 773.5763,305.6113 Q771.0763,305.6113 769.7481,303.9706 Q768.4356,302.3144 768.4356,299.1894 Q768.4356,296.0644 769.7481,294.4081 Q771.0763,292.7519 773.5763,292.7519 Q774.2794,292.7519 774.92,292.9081 Q775.5763,293.0644 776.1388,293.3613 L776.1388,296.08 Q775.5138,295.5019 774.92,295.2363 Q774.3263,294.955 773.7013,294.955 Q772.3575,294.955 771.67,296.0331 Q770.9825,297.0956 770.9825,299.1894 Q770.9825,301.2831 771.67,302.3613 Q772.3575,303.4238 773.7013,303.4238 Q774.3263,303.4238 774.92,303.1581 Q775.5138,302.8769 776.1388,302.2988 L776.1388,305.0175 Z " fill="#000000"/><text fill="#000000" font-family="sans-serif" font-size="14" lengthAdjust="spacing" textLength="95.7988" x="787.17" y="304.2236">MondayClient</text><line style="stroke:#181818;stroke-width:0.5;" x1="759.17" x2="884.9688" y1="315.3769" y2="315.3769"/><line style="stroke:#181818;stroke-width:0.5;" x1="759.17" x2="884.9688" y1="323.3769" y2="323.3769"/><text fill="#000000" font-family="sans-serif" font-size="14" lengthAdjust="spacing" textLength="99.2715" x="764.17" y="340.372">+createItem()</text><text fill="#000000" font-family="sans-serif" font-size="14" lengthAdjust="spacing" textLength="103.8516" x="764.17" y="356.6689">+updateItem()</text></g><!--class ClaudeClient--><g class="entity" data-qualified-name="ClaudeClient" data-source-line="87" id="ent0013"><rect fill="#F1F1F1" height="80.5938" rx="2.5" ry="2.5" style="stroke:#181818;stroke-width:0.5;" width="136.1611" x="1144.99" y="530.5969"/><ellipse cx="1166.7462" cy="546.5969" fill="#ADD1B2" rx="11" ry="11" style="stroke:#181818;stroke-width:1;"/><path d="M1169.7149,552.2375 Q1169.1368,552.5344 1168.4962,552.675 Q1167.8555,552.8313 1167.1524,552.8313 Q1164.6524,552.8313 1163.3243,551.1906 Q1162.0118,549.5344 1162.0118,546.4094 Q1162.0118,543.2844 1163.3243,541.6281 Q1164.6524,539.9719 1167.1524,539.9719 Q1167.8555,539.9719 1168.4962,540.1281 Q1169.1524,540.2844 1169.7149,540.5813 L1169.7149,543.3 Q1169.0899,542.7219 1168.4962,542.4563 Q1167.9024,542.175 1167.2774,542.175 Q1165.9337,542.175 1165.2462,543.2531 Q1164.5587,544.3156 1164.5587,546.4094 Q1164.5587,548.5031 1165.2462,549.5813 Q1165.9337,550.6438 1167.2774,550.6438 Q1167.9024,550.6438 1168.4962,550.3781 Q1169.0899,550.0969 1169.7149,549.5188 L1169.7149,552.2375 Z " fill="#000000"/><text fill="#000000" font-family="sans-serif" font-size="14" lengthAdjust="spacing" textLength="89.1475" x="1182.2475" y="551.4436">ClaudeClient</text><line style="stroke:#181818;stroke-width:0.5;" x1="1145.99" x2="1280.1511" y1="562.5969" y2="562.5969"/><line style="stroke:#181818;stroke-width:0.5;" x1="1145.99" x2="1280.1511" y1="570.5969" y2="570.5969"/><text fill="#000000" font-family="sans-serif" font-size="14" lengthAdjust="spacing" textLength="113.0254" x="1150.99" y="587.592">+analyzeIssue()</text><text fill="#000000" font-family="sans-serif" font-size="14" lengthAdjust="spacing" textLength="124.1611" x="1150.99" y="603.8889">+draftResponse()</text></g><!--class MongoRepository--><g class="entity" data-qualified-name="MongoRepository" data-source-line="92" id="ent0014"><rect fill="#F1F1F1" height="96.8906" rx="2.5" ry="2.5" style="stroke:#181818;stroke-width:0.5;" width="187.5947" x="654.27" y="522.4569"/><ellipse cx="684.3687" cy="538.4569" fill="#ADD1B2" rx="11" ry="11" style="stroke:#181818;stroke-width:1;"/><path d="M687.3375,544.0975 Q686.7594,544.3944 686.1187,544.535 Q685.4781,544.6913 684.775,544.6913 Q682.275,544.6913 680.9469,543.0506 Q679.6344,541.3944 679.6344,538.2694 Q679.6344,535.1444 680.9469,533.4881 Q682.275,531.8319 684.775,531.8319 Q685.4781,531.8319 686.1187,531.9881 Q686.775,532.1444 687.3375,532.4413 L687.3375,535.16 Q686.7125,534.5819 686.1187,534.3163 Q685.525,534.035 684.9,534.035 Q683.5562,534.035 682.8687,535.1131 Q682.1812,536.1756 682.1812,538.2694 Q682.1812,540.3631 682.8687,541.4413 Q683.5562,542.5038 684.9,542.5038 Q685.525,542.5038 686.1187,542.2381 Q686.7125,541.9569 687.3375,541.3788 L687.3375,544.0975 Z " fill="#000000"/><text fill="#000000" font-family="sans-serif" font-size="14" lengthAdjust="spacing" textLength="122.042" x="701.724" y="543.3036">MongoRepository</text><line style="stroke:#181818;stroke-width:0.5;" x1="655.27" x2="840.8647" y1="554.4569" y2="554.4569"/><line style="stroke:#181818;stroke-width:0.5;" x1="655.27" x2="840.8647" y1="562.4569" y2="562.4569"/><text fill="#000000" font-family="sans-serif" font-size="14" lengthAdjust="spacing" textLength="96.0654" x="660.27" y="579.452">+save(entity)</text><text fill="#000000" font-family="sans-serif" font-size="14" lengthAdjust="spacing" textLength="92.9141" x="660.27" y="595.7489">+findById(id)</text><text fill="#000000" font-family="sans-serif" font-size="14" lengthAdjust="spacing" textLength="175.5947" x="660.27" y="612.0457">+findByThread(threadId)</text></g><!--link Customer to Ticket--><g class="link" data-entity-1="ent0002" data-entity-2="ent0003" data-link-type="dependency" data-source-line="98" id="lnk15"><path codeLine="98" d="M444.86,157.9369 C446.78,173.2369 449.69,189.6769 454.07,204.4869 C456.98,214.3169 458.358,218.7837 462.388,228.6337" fill="none" id="Customer-to-Ticket" style="stroke:#181818;stroke-width:1;"/><polygon fill="#181818" points="464.66,234.1869,464.9541,224.3424,462.7667,229.5592,457.5498,227.3718,464.66,234.1869" style="stroke:#181818;stroke-width:1;"/><text fill="#000000" font-family="sans-serif" font-size="13" lengthAdjust="spacing" textLength="39.2158" x="455.07" y="200.5538">opens</text><text fill="#000000" font-family="sans-serif" font-size="13" lengthAdjust="spacing" textLength="8.271" x="436.8518" y="177.4746">1</text><text fill="#000000" font-family="sans-serif" font-size="13" lengthAdjust="spacing" textLength="23.0356" x="437.0469" y="223.5304">0..*</text></g><!--link Ticket to Message--><g class="link" data-entity-1="ent0003" data-entity-2="ent0004" data-link-type="dependency" data-source-line="99" id="lnk16"><path codeLine="99" d="M438.92,413.1869 C424.84,429.1569 409.85,445.3369 395.07,459.8569 C381.28,473.4069 370.5638,483.2118 355.4138,496.1418" fill="none" id="Ticket-to-Message" style="stroke:#181818;stroke-width:1;"/><polygon fill="#181818" points="350.85,500.0369,360.2924,497.2368,354.6532,496.791,355.099,491.1517,350.85,500.0369" style="stroke:#181818;stroke-width:1;"/><text fill="#000000" font-family="sans-serif" font-size="13" lengthAdjust="spacing" textLength="55.0278" x="410.07" y="455.9238">contains</text><text fill="#000000" font-family="sans-serif" font-size="13" lengthAdjust="spacing" textLength="8.271" x="424.8628" y="432.9897">1</text><text fill="#000000" font-family="sans-serif" font-size="13" lengthAdjust="spacing" textLength="23.0356" x="358.2153" y="491.3542">0..*</text></g><!--link Ticket to AIInsight--><g class="link" data-entity-1="ent0003" data-entity-2="ent0005" data-link-type="dependency" data-source-line="100" id="lnk17"><path codeLine="100" d="M601.49,397.1769 C610.24,402.8569 619.18,408.1869 628.07,412.8569 C723.87,463.1969 760.63,444.8969 859.07,489.8569 C873.07,496.2569 882.2275,500.8085 896.1675,508.5685" fill="none" id="Ticket-to-AIInsight" style="stroke:#181818;stroke-width:1;"/><polygon fill="#181818" points="901.41,511.4869,895.4919,503.6144,897.0413,509.0549,891.6008,510.6044,901.41,511.4869" style="stroke:#181818;stroke-width:1;"/><text fill="#000000" font-family="sans-serif" font-size="13" lengthAdjust="spacing" textLength="22.9785" x="772.07" y="455.9238">has</text><text fill="#000000" font-family="sans-serif" font-size="13" lengthAdjust="spacing" textLength="8.271" x="609.3206" y="399.7151">1</text><text fill="#000000" font-family="sans-serif" font-size="13" lengthAdjust="spacing" textLength="23.0356" x="870.762" y="503.6449">0..*</text></g><!--link Ticket to AuditEvent--><g class="link" data-entity-1="ent0003" data-entity-2="ent0006" data-link-type="dependency" data-source-line="101" id="lnk18"><path codeLine="101" d="M518.29,413.2069 C520.55,440.9169 522.5339,465.1766 524.6839,491.6266" fill="none" id="Ticket-to-AuditEvent" style="stroke:#181818;stroke-width:1;"/><polygon fill="#181818" points="525.17,497.6069,528.4277,488.3124,524.7649,492.6233,520.454,488.9605,525.17,497.6069" style="stroke:#181818;stroke-width:1;"/><text fill="#000000" font-family="sans-serif" font-size="13" lengthAdjust="spacing" textLength="26.5903" x="523.07" y="455.9238">logs</text><text fill="#000000" font-family="sans-serif" font-size="13" lengthAdjust="spacing" textLength="8.271" x="510.5576" y="433.0113">1</text><text fill="#000000" font-family="sans-serif" font-size="13" lengthAdjust="spacing" textLength="23.0356" x="500.5129" y="486.9797">0..*</text></g><!--link ListenerService to Message--><g class="link" data-entity-1="ent0007" data-entity-2="ent0004" data-link-type="dependency" data-source-line="103" id="lnk19"><path codeLine="103" d="M67.48,372.3569 C62.97,399.6769 62.16,433.6369 77.07,459.8569 C98.04,496.7269 131.3547,519.9745 167.9847,537.2745" fill="none" id="ListenerService-to-Message" style="stroke:#181818;stroke-width:1;"/><polygon fill="#181818" points="173.41,539.8369,166.9802,532.3765,168.8889,537.7016,163.5637,539.6103,173.41,539.8369" style="stroke:#181818;stroke-width:1;"/><text fill="#000000" font-family="sans-serif" font-size="13" lengthAdjust="spacing" textLength="48.3247" x="78.07" y="455.9238">creates</text></g><!--link TriageService to AIInsight--><g class="link" data-entity-1="ent0008" data-entity-2="ent0005" data-link-type="dependency" data-source-line="104" id="lnk20"><path codeLine="104" d="M1103.59,372.3869 C1094.32,398.7769 1081.55,431.8169 1067.07,459.8569 C1060.6,472.3869 1056.2326,480.1731 1048.4626,492.4831" fill="none" id="TriageService-to-AIInsight" style="stroke:#181818;stroke-width:1;"/><polygon fill="#181818" points="1045.26,497.5569,1053.4464,492.0812,1047.9288,493.3287,1046.6813,487.8111,1045.26,497.5569" style="stroke:#181818;stroke-width:1;"/><text fill="#000000" font-family="sans-serif" font-size="13" lengthAdjust="spacing" textLength="65.6665" x="1074.07" y="455.9238">generates</text></g><!--link TicketSyncService to Ticket--><g class="link" data-entity-1="ent0009" data-entity-2="ent0003" data-link-type="dependency" data-source-line="105" id="lnk21"><path codeLine="105" d="M772.08,148.6669 C718.74,179.3569 654.37,216.9369 628.07,234.4869 C619.39,240.2669 615.379,242.9747 606.549,249.2947" fill="none" id="TicketSyncService-to-Ticket" style="stroke:#181818;stroke-width:1;"/><polygon fill="#181818" points="601.67,252.7869,611.3166,250.8014,605.7359,249.8768,606.6605,244.296,601.67,252.7869" style="stroke:#181818;stroke-width:1;"/><text fill="#000000" font-family="sans-serif" font-size="13" lengthAdjust="spacing" textLength="59.8584" x="705.07" y="200.5538">manages</text></g><!--link CommunicationService to Message--><g class="link" data-entity-1="ent0010" data-entity-2="ent0004" data-link-type="dependency" data-source-line="106" id="lnk22"><path codeLine="106" d="M273.06,372.5169 C267.51,393.8469 261.81,419.3969 259.07,442.8569 C257.32,457.8669 256.6968,467.9469 256.7568,483.4369" fill="none" id="CommunicationService-to-Message" style="stroke:#181818;stroke-width:1;"/><polygon fill="#181818" points="256.78,489.4369,260.7451,480.4214,256.7606,484.4369,252.7452,480.4524,256.78,489.4369" style="stroke:#181818;stroke-width:1;"/><text fill="#000000" font-family="sans-serif" font-size="13" lengthAdjust="spacing" textLength="38.0352" x="260.07" y="455.9238">sends</text></g><!--link OrchestrationService to Ticket--><g class="link" data-entity-1="ent0011" data-entity-2="ent0003" data-link-type="dependency" data-source-line="107" id="lnk23"><path codeLine="107" d="M603.29,149.5469 C593.39,161.4869 583.36,174.5769 575.07,187.4869 C565.74,202.0169 559.6179,212.7476 551.6979,228.6276" fill="none" id="OrchestrationService-to-Ticket" style="stroke:#181818;stroke-width:1;"/><polygon fill="#181818" points="549.02,233.9969,556.6163,227.7282,551.2516,229.5225,549.4573,224.1577,549.02,233.9969" style="stroke:#181818;stroke-width:1;"/><text fill="#000000" font-family="sans-serif" font-size="13" lengthAdjust="spacing" textLength="68.707" x="576.07" y="200.5538">transitions</text></g><!--link TicketSyncService to MondayClient--><g class="link" data-entity-1="ent0009" data-entity-2="ent0012" data-link-type="dependency" data-source-line="109" id="lnk24"><path codeLine="109" d="M847.13,149.7969 C841.36,189.6169 834.1014,239.679 828.6814,277.039" fill="none" id="TicketSyncService-to-MondayClient" style="stroke:#181818;stroke-width:1;"/><polygon fill="#181818" points="827.82,282.9769,833.0707,274.6444,828.5379,278.0287,825.1536,273.4958,827.82,282.9769" style="stroke:#181818;stroke-width:1;"/><text fill="#000000" font-family="sans-serif" font-size="13" lengthAdjust="spacing" textLength="29.7832" x="841.07" y="200.5538">uses</text></g><!--link TriageService to ClaudeClient--><g class="link" data-entity-1="ent0008" data-entity-2="ent0013" data-link-type="dependency" data-source-line="110" id="lnk25"><path codeLine="110" d="M1143.21,372.6169 C1153.42,393.8469 1165.02,419.3069 1174.07,442.8569 C1185.11,471.6069 1193.6155,499.1538 1200.7755,524.4438" fill="none" id="TriageService-to-ClaudeClient" style="stroke:#181818;stroke-width:1;"/><polygon fill="#181818" points="1202.41,530.2169,1203.807,520.4676,1201.048,525.406,1196.1096,522.6469,1202.41,530.2169" style="stroke:#181818;stroke-width:1;"/><text fill="#000000" font-family="sans-serif" font-size="13" lengthAdjust="spacing" textLength="29.7832" x="1181.07" y="455.9238">uses</text></g><!--link ListenerService to MongoRepository--><g class="link" data-entity-1="ent0007" data-entity-2="ent0014" data-link-type="dependency" data-source-line="112" id="lnk26"><path codeLine="112" d="M107.85,372.5169 C128.51,403.2269 159.7,440.8169 198.07,459.8569 C285.66,503.3269 545.1,456.6569 637.07,489.8569 C657.41,497.1969 672.4849,505.8706 689.6949,518.5906" fill="none" id="ListenerService-to-MongoRepository" style="stroke:#181818;stroke-width:1;"/><polygon fill="#181818" points="694.52,522.1569,689.6598,513.5907,690.4991,519.185,684.9048,520.0242,694.52,522.1569" style="stroke:#181818;stroke-width:1;"/><text fill="#000000" font-family="sans-serif" font-size="13" lengthAdjust="spacing" textLength="50.6226" x="199.07" y="455.9238">persists</text></g><!--link TriageService to MongoRepository--><g class="link" data-entity-1="ent0008" data-entity-2="ent0014" data-link-type="dependency" data-source-line="113" id="lnk27"><path codeLine="113" d="M1078.14,372.4969 C1051.33,401.2469 1014.13,436.6469 975.07,459.8569 C938.46,481.6169 922.86,472.2969 884.07,489.8569 C863.61,499.1269 847.4793,507.6379 827.9693,519.0479" fill="none" id="TriageService-to-MongoRepository" style="stroke:#181818;stroke-width:1;"/><polygon fill="#181818" points="822.79,522.0769,832.5783,520.9862,827.1061,519.5527,828.5396,514.0805,822.79,522.0769" style="stroke:#181818;stroke-width:1;"/><text fill="#000000" font-family="sans-serif" font-size="13" lengthAdjust="spacing" textLength="50.6226" x="998.07" y="455.9238">persists</text></g><!--link TicketSyncService to MongoRepository--><g class="link" data-entity-1="ent0009" data-entity-2="ent0014" data-link-type="dependency" data-source-line="114" id="lnk28"><path codeLine="114" d="M876.93,149.8169 C903.46,212.5169 939.23,324.7569 903.07,412.8569 C885.18,456.4469 853.3022,490.5573 820.2222,518.2273" fill="none" id="TicketSyncService-to-MongoRepository" style="stroke:#181818;stroke-width:1;"/><polygon fill="#181818" points="815.62,522.0769,825.0898,519.3707,819.4552,518.8689,819.957,513.2343,815.62,522.0769" style="stroke:#181818;stroke-width:1;"/><text fill="#000000" font-family="sans-serif" font-size="13" lengthAdjust="spacing" textLength="50.6226" x="919.07" y="328.2338">persists</text></g><!--link CommunicationService to MongoRepository--><g class="link" data-entity-1="ent0010" data-entity-2="ent0014" data-link-type="dependency" data-source-line="115" id="lnk29"><path codeLine="115" d="M291.3,372.4969 C296.61,402.3969 308.5,439.0569 335.07,459.8569 C388.17,501.4369 574,465.9869 637.07,489.8569 C657.07,497.4269 671.8853,506.0137 688.9753,518.5737" fill="none" id="CommunicationService-to-MongoRepository" style="stroke:#181818;stroke-width:1;"/><polygon fill="#181818" points="693.81,522.1269,688.9267,513.5739,689.7811,519.1659,684.1891,520.0202,693.81,522.1269" style="stroke:#181818;stroke-width:1;"/><text fill="#000000" font-family="sans-serif" font-size="13" lengthAdjust="spacing" textLength="50.6226" x="336.07" y="455.9238">persists</text></g><!--link OrchestrationService to MongoRepository--><g class="link" data-entity-1="ent0011" data-entity-2="ent0014" data-link-type="dependency" data-source-line="116" id="lnk30"><path codeLine="116" d="M650.17,149.6669 C654.93,211.2669 666.01,321.3369 689.07,412.8569 C698.53,450.4169 711.784,485.7977 724.544,516.4477" fill="none" id="OrchestrationService-to-MongoRepository" style="stroke:#181818;stroke-width:1;"/><polygon fill="#181818" points="726.85,521.9869,727.0837,512.1408,724.9283,517.3709,719.6982,515.2155,726.85,521.9869" style="stroke:#181818;stroke-width:1;"/><text fill="#000000" font-family="sans-serif" font-size="13" lengthAdjust="spacing" textLength="50.6226" x="690.07" y="328.2338">persists</text></g><?plantuml-src VLJ1Rjim3BtxAuISiWqjkciE0x8q1GAq6D2avuAH64UhBHaIdSuTzk-ZfCIndRYdHC_auoFv9BAL82ksbiYMGcc7ahGrcN_JfW87fP05U3ydSdfR4wwaDMlzWU8koqXJWM9HUqv59zPrLLb7Obxp6GABk16Ba2tkDUJCbMMHx9poDnFYcpoUNhMQYJNNCNc03PJOFMC9kkW2rkLWz4UirEB_JZKsMhuXfGeK_m_uvHwCmHwZ1CBSkgQBLKvRfwc7UGAgVK_Bkq7NetB8PEeLQ2Rk-Tz6bnZmkbANU2lw2Rs779FgCXq6ig_sqkwjfxBU_cQq2ssjuaOs-8V22OX0xaiqnBqyQa-9d-iIbDKrVVFLodYTxp-RgpR4ZBtD6NQAHYxo15LK5f1o4CN6scc5HlBM7meBKGstPKkEL77B9vbdFRNIj3mmKnA4uUz03qYoRW0C9aNWSgJ-b2-d45T2m58WTTBA2AAG3R16Tz3ok3vcOefbSEtqItGIE8_73IT48V62xkkgqC5w39xjw_ZAO8ymVj2xPXK7d1XuauxxMHudd40lhSD5EyuURTpOkZ6oJntTcZucZkJJBk8vQRFdG1K7xhkq2rvIRK8JFDaUCwzQpUMRiUy5gXpBLdduy62Bmhw_L6VaKUzGDhB0brY_M-ENatiUgBki0Ue0tEUQKWOZVBLLWKileOZX2NL8hddWVQ1Q4rPTyYVB5ciMXMwjb4Qo8Yox0pcUpuqNK2live61eld0bVVrQSiETlIClc83uw1eRf-nibwpHPlZmE20qtXZcfYzqqRzR5PggbNdd1OnfVYpKf6qVLKdtoVYvkQ7cDpTtdwTd5x2cR0L6fyTZuEWqyip4tmF2VHeuFa9c8azZ4QTB-PC53RtMJQy926wKpMEc-bwlWyntO9v84Xn5qOEiMsh9Q-1hrzsrPZzoi5sFhlghXubVsCTyHdAHihtN3GJjR_QKCypnwZhqnduOoOgT9u3hx5-5ZmcTYnXV6hZEQC37C_v3m00?></g></svg>