<svg xmlns="http://www.w3.org/2000/svg" xmlns:xlink="http://www.w3.org/1999/xlink" contentStyleType="text/css" data-diagram-type="DESCRIPTION" height="820px" preserveAspectRatio="none" style="width:1664px;height:820px;background:#FFFFFF;" version="1.1" viewBox="0 0 1664 820" width="1664px" zoomAndPan="magnify"><?plantuml 1.2026.3beta5?><defs/><g><g class="title" data-source-line="3"><text fill="#000000" font-family="sans-serif" font-size="14" font-weight="700" lengthAdjust="spacing" textLength="423.835" x="616.5825" y="22.9951">Customer Support Automation - Deployment Diagram</text></g><!--cluster Customer Channel--><g class="cluster" data-qualified-name="Customer Channel" data-source-line="5" id="ent0002"><polygon fill="none" points="42,520.1869,52,510.1869,262,510.1869,262,595.4769,252,605.4769,42,605.4769,42,520.1869" style="stroke:#181818;stroke-width:1;"/><line style="stroke:#181818;stroke-width:1;" x1="252" x2="262" y1="520.1869" y2="510.1869"/><line style="stroke:#181818;stroke-width:1;" x1="42" x2="252" y1="520.1869" y2="520.1869"/><line style="stroke:#181818;stroke-width:1;" x1="252" x2="252" y1="520.1869" y2="605.4769"/><text fill="#000000" font-family="sans-serif" font-size="14" font-weight="700" lengthAdjust="spacing" textLength="144.6621" x="75.6689" y="536.182">Customer Channel</text></g><!--cluster Email Provider--><g class="cluster" data-qualified-name="Email Provider" data-source-line="9" id="ent0004"><polygon fill="none" points="51,707.4769,61,697.4769,242,697.4769,242,782.7769,232,792.7769,51,792.7769,51,707.4769" style="stroke:#181818;stroke-width:1;"/><line style="stroke:#181818;stroke-width:1;" x1="232" x2="242" y1="707.4769" y2="697.4769"/><line style="stroke:#181818;stroke-width:1;" x1="51" x2="232" y1="707.4769" y2="707.4769"/><line style="stroke:#181818;stroke-width:1;" x1="232" x2="232" y1="707.4769" y2="792.7769"/><text fill="#000000" font-family="sans-serif" font-size="14" font-weight="700" lengthAdjust="spacing" textLength="115.1992" x="84.9004" y="723.472">Email Provider</text></g><!--cluster Docker Host / Kubernetes Node--><g class="cluster" data-qualified-name="Docker Host . Kubernetes Node" data-source-line="13" id="ent0006"><polygon fill="none" points="295,53.2969,305,43.2969,1035,43.2969,1035,635.4769,1025,645.4769,295,645.4769,295,53.2969" style="stroke:#181818;stroke-width:1;"/><line style="stroke:#181818;stroke-width:1;" x1="1025" x2="1035" y1="53.2969" y2="43.2969"/><line style="stroke:#181818;stroke-width:1;" x1="295" x2="1025" y1="53.2969" y2="53.2969"/><line style="stroke:#181818;stroke-width:1;" x1="1025" x2="1025" y1="53.2969" y2="645.4769"/><text fill="#000000" font-family="sans-serif" font-size="14" font-weight="700" lengthAdjust="spacing" textLength="248.2881" x="536.856" y="69.292">Docker Host / Kubernetes Node</text></g><!--cluster Support Automation Stack--><g class="cluster" data-qualified-name="Docker Host . Kubernetes Node.Support Automation Stack" data-source-line="14" id="ent0007"><polygon fill="none" points="327,109.2969,337,99.2969,1003,99.2969,1003,603.4769,993,613.4769,327,613.4769,327,109.2969" style="stroke:#181818;stroke-width:1;"/><line style="stroke:#181818;stroke-width:1;" x1="993" x2="1003" y1="109.2969" y2="99.2969"/><line style="stroke:#181818;stroke-width:1;" x1="327" x2="993" y1="109.2969" y2="109.2969"/><line style="stroke:#181818;stroke-width:1;" x1="993" x2="993" y1="109.2969" y2="613.4769"/><text fill="#000000" font-family="sans-serif" font-size="14" font-weight="700" lengthAdjust="spacing" textLength="209.1113" x="556.4443" y="125.292">Support Automation Stack</text></g><!--cluster Data Layer--><g class="cluster" data-qualified-name="Data Layer" data-source-line="25" id="ent0015"><polygon fill="none" points="905,704.4769,915,694.4769,1066,694.4769,1066,785.7769,1056,795.7769,905,795.7769,905,704.4769" style="stroke:#181818;stroke-width:1;"/><line style="stroke:#181818;stroke-width:1;" x1="1056" x2="1066" y1="704.4769" y2="694.4769"/><line style="stroke:#181818;stroke-width:1;" x1="905" x2="1056" y1="704.4769" y2="704.4769"/><line style="stroke:#181818;stroke-width:1;" x1="1056" x2="1056" y1="704.4769" y2="795.7769"/><text fill="#000000" font-family="sans-serif" font-size="14" font-weight="700" lengthAdjust="spacing" textLength="85.9756" x="938.5122" y="720.472">Data Layer</text></g><!--cluster External SaaS--><g class="cluster" data-qualified-name="External SaaS" data-source-line="29" id="ent0017"><polygon fill="none" points="342,707.4769,352,697.4769,661,697.4769,661,782.7769,651,792.7769,342,792.7769,342,707.4769" style="stroke:#181818;stroke-width:1;"/><line style="stroke:#181818;stroke-width:1;" x1="651" x2="661" y1="707.4769" y2="697.4769"/><line style="stroke:#181818;stroke-width:1;" x1="342" x2="651" y1="707.4769" y2="707.4769"/><line style="stroke:#181818;stroke-width:1;" x1="651" x2="651" y1="707.4769" y2="792.7769"/><text fill="#000000" font-family="sans-serif" font-size="14" font-weight="700" lengthAdjust="spacing" textLength="109.833" x="442.5835" y="723.472">External SaaS</text></g><!--cluster Platform Tooling--><g class="cluster" data-qualified-name="Platform Tooling" data-source-line="34" id="ent0020"><polygon fill="none" points="1108,259.5869,1118,249.5869,1639,249.5869,1639,334.8869,1629,344.8869,1108,344.8869,1108,259.5869" style="stroke:#181818;stroke-width:1;"/><line style="stroke:#181818;stroke-width:1;" x1="1629" x2="1639" y1="259.5869" y2="249.5869"/><line style="stroke:#181818;stroke-width:1;" x1="1108" x2="1629" y1="259.5869" y2="259.5869"/><line style="stroke:#181818;stroke-width:1;" x1="1629" x2="1629" y1="259.5869" y2="344.8869"/><text fill="#000000" font-family="sans-serif" font-size="14" font-weight="700" lengthAdjust="spacing" textLength="131.6465" x="1303.6768" y="275.582">Platform Tooling</text></g><!--entity Customer Email Client--><g class="entity" data-qualified-name="Customer Channel.Customer Email Client" data-source-line="6" id="ent0003"><rect fill="#F1F1F1" height="39.2969" rx="2.5" ry="2.5" style="stroke:#181818;stroke-width:0.5;" width="186.2764" x="58.86" y="550.1869"/><polygon fill="#F1F1F1" points="228.1364,555.1869,228.1364,569.1869,240.1364,569.1869,240.1364,561.1869,234.1364,555.1869,228.1364,555.1869" style="stroke:#181818;stroke-width:0.5;"/><line style="stroke:#181818;stroke-width:0.5;" x1="234.1364" x2="234.1364" y1="555.1869" y2="561.1869"/><line style="stroke:#181818;stroke-width:0.5;" x1="240.1364" x2="234.1364" y1="561.1869" y2="561.1869"/><text fill="#000000" font-family="sans-serif" font-size="14" lengthAdjust="spacing" textLength="156.2764" x="68.86" y="576.182">Customer Email Client</text></g><!--entity SMTP Server--><g class="entity" data-qualified-name="Email Provider.SMTP Server" data-source-line="10" id="ent0005"><rect fill="#F1F1F1" height="39.2969" rx="2.5" ry="2.5" style="stroke:#181818;stroke-width:0.5;" width="118.3203" x="74.84" y="737.4769"/><polygon fill="#F1F1F1" points="176.1603,742.4769,176.1603,756.4769,188.1603,756.4769,188.1603,748.4769,182.1603,742.4769,176.1603,742.4769" style="stroke:#181818;stroke-width:0.5;"/><line style="stroke:#181818;stroke-width:0.5;" x1="182.1603" x2="182.1603" y1="742.4769" y2="748.4769"/><line style="stroke:#181818;stroke-width:0.5;" x1="188.1603" x2="182.1603" y1="748.4769" y2="748.4769"/><text fill="#000000" font-family="sans-serif" font-size="14" lengthAdjust="spacing" textLength="88.3203" x="84.84" y="763.472">SMTP Server</text></g><!--entity listener-service container--><g class="entity" data-qualified-name="Docker Host . Kubernetes Node.Support Automation Stack.listener-service container" data-source-line="15" id="ent0008"><rect fill="#F1F1F1" height="39.2969" rx="2.5" ry="2.5" style="stroke:#181818;stroke-width:0.5;" width="208.4043" x="350.8" y="147.2969"/><polygon fill="#F1F1F1" points="542.2043,152.2969,542.2043,166.2969,554.2043,166.2969,554.2043,158.2969,548.2043,152.2969,542.2043,152.2969" style="stroke:#181818;stroke-width:0.5;"/><line style="stroke:#181818;stroke-width:0.5;" x1="548.2043" x2="548.2043" y1="152.2969" y2="158.2969"/><line style="stroke:#181818;stroke-width:0.5;" x1="554.2043" x2="548.2043" y1="158.2969" y2="158.2969"/><text fill="#000000" font-family="sans-serif" font-size="14" lengthAdjust="spacing" textLength="178.4043" x="360.8" y="173.292">listener-service container</text></g><!--entity triage-service container--><g class="entity" data-qualified-name="Docker Host . Kubernetes Node.Support Automation Stack.triage-service container" data-source-line="16" id="ent0009"><rect fill="#F1F1F1" height="39.2969" rx="2.5" ry="2.5" style="stroke:#181818;stroke-width:0.5;" width="197.2002" x="528.4" y="289.5869"/><polygon fill="#F1F1F1" points="708.6002,294.5869,708.6002,308.5869,720.6002,308.5869,720.6002,300.5869,714.6002,294.5869,708.6002,294.5869" style="stroke:#181818;stroke-width:0.5;"/><line style="stroke:#181818;stroke-width:0.5;" x1="714.6002" x2="714.6002" y1="294.5869" y2="300.5869"/><line style="stroke:#181818;stroke-width:0.5;" x1="720.6002" x2="714.6002" y1="300.5869" y2="300.5869"/><text fill="#000000" font-family="sans-serif" font-size="14" lengthAdjust="spacing" textLength="167.2002" x="538.4" y="315.582">triage-service container</text></g><!--entity ticket-sync-service container--><g class="entity" data-qualified-name="Docker Host . Kubernetes Node.Support Automation Stack.ticket-sync-service container" data-source-line="17" id="ent0010"><rect fill="#F1F1F1" height="39.2969" rx="2.5" ry="2.5" style="stroke:#181818;stroke-width:0.5;" width="232.4736" x="649.76" y="550.1869"/><polygon fill="#F1F1F1" points="865.2336,555.1869,865.2336,569.1869,877.2336,569.1869,877.2336,561.1869,871.2336,555.1869,865.2336,555.1869" style="stroke:#181818;stroke-width:0.5;"/><line style="stroke:#181818;stroke-width:0.5;" x1="871.2336" x2="871.2336" y1="555.1869" y2="561.1869"/><line style="stroke:#181818;stroke-width:0.5;" x1="877.2336" x2="871.2336" y1="561.1869" y2="561.1869"/><text fill="#000000" font-family="sans-serif" font-size="14" lengthAdjust="spacing" textLength="202.4736" x="659.76" y="576.182">ticket-sync-service container</text></g><!--entity communication-service container--><g class="entity" data-qualified-name="Docker Host . Kubernetes Node.Support Automation Stack.communication-service container" data-source-line="18" id="ent0011"><rect fill="#F1F1F1" height="39.2969" rx="2.5" ry="2.5" style="stroke:#181818;stroke-width:0.5;" width="264.2539" x="350.87" y="550.1869"/><polygon fill="#F1F1F1" points="598.1239,555.1869,598.1239,569.1869,610.1239,569.1869,610.1239,561.1869,604.1239,555.1869,598.1239,555.1869" style="stroke:#181818;stroke-width:0.5;"/><line style="stroke:#181818;stroke-width:0.5;" x1="604.1239" x2="604.1239" y1="555.1869" y2="561.1869"/><line style="stroke:#181818;stroke-width:0.5;" x1="610.1239" x2="604.1239" y1="561.1869" y2="561.1869"/><text fill="#000000" font-family="sans-serif" font-size="14" lengthAdjust="spacing" textLength="234.2539" x="360.87" y="576.182">communication-service container</text></g><!--entity orchestration-service container--><g class="entity" data-qualified-name="Docker Host . Kubernetes Node.Support Automation Stack.orchestration-service container" data-source-line="19" id="ent0012"><rect fill="#F1F1F1" height="39.2969" rx="2.5" ry="2.5" style="stroke:#181818;stroke-width:0.5;" width="249.4268" x="551.29" y="407.8869"/><polygon fill="#F1F1F1" points="783.7168,412.8869,783.7168,426.8869,795.7168,426.8869,795.7168,418.8869,789.7168,412.8869,783.7168,412.8869" style="stroke:#181818;stroke-width:0.5;"/><line style="stroke:#181818;stroke-width:0.5;" x1="789.7168" x2="789.7168" y1="412.8869" y2="418.8869"/><line style="stroke:#181818;stroke-width:0.5;" x1="795.7168" x2="789.7168" y1="418.8869" y2="418.8869"/><text fill="#000000" font-family="sans-serif" font-size="14" lengthAdjust="spacing" textLength="219.4268" x="561.29" y="433.882">orchestration-service container</text></g><!--entity admin-api container--><g class="entity" data-qualified-name="Docker Host . Kubernetes Node.Support Automation Stack.admin-api container" data-source-line="20" id="ent0013"><rect fill="#F1F1F1" height="39.2969" rx="2.5" ry="2.5" style="stroke:#181818;stroke-width:0.5;" width="171.0596" x="594.47" y="147.2969"/><polygon fill="#F1F1F1" points="748.5296,152.2969,748.5296,166.2969,760.5296,166.2969,760.5296,158.2969,754.5296,152.2969,748.5296,152.2969" style="stroke:#181818;stroke-width:0.5;"/><line style="stroke:#181818;stroke-width:0.5;" x1="754.5296" x2="754.5296" y1="152.2969" y2="158.2969"/><line style="stroke:#181818;stroke-width:0.5;" x1="760.5296" x2="754.5296" y1="158.2969" y2="158.2969"/><text fill="#000000" font-family="sans-serif" font-size="14" lengthAdjust="spacing" textLength="141.0596" x="604.47" y="173.292">admin-api container</text></g><!--entity redis queue/cache--><g class="entity" data-qualified-name="Docker Host . Kubernetes Node.Support Automation Stack.redis queue.cache" data-source-line="21" id="ent0014"><rect fill="#F1F1F1" height="39.2969" rx="2.5" ry="2.5" style="stroke:#181818;stroke-width:0.5;" width="158.9258" x="800.54" y="147.2969"/><polygon fill="#F1F1F1" points="942.4658,152.2969,942.4658,166.2969,954.4658,166.2969,954.4658,158.2969,948.4658,152.2969,942.4658,152.2969" style="stroke:#181818;stroke-width:0.5;"/><line style="stroke:#181818;stroke-width:0.5;" x1="948.4658" x2="948.4658" y1="152.2969" y2="158.2969"/><line style="stroke:#181818;stroke-width:0.5;" x1="954.4658" x2="948.4658" y1="158.2969" y2="158.2969"/><text fill="#000000" font-family="sans-serif" font-size="14" lengthAdjust="spacing" textLength="128.9258" x="810.54" y="173.292">redis queue/cache</text></g><!--entity MongoDB--><g class="entity" data-qualified-name="Data Layer.MongoDB" data-source-line="26" id="ent0016"><path d="M941.32,744.4769 C941.32,734.4769 984.9972,734.4769 984.9972,734.4769 C984.9972,734.4769 1028.6745,734.4769 1028.6745,744.4769 L1028.6745,769.7738 C1028.6745,779.7738 984.9972,779.7738 984.9972,779.7738 C984.9972,779.7738 941.32,779.7738 941.32,769.7738 L941.32,744.4769" fill="#F1F1F1" style="stroke:#181818;stroke-width:0.5;"/><path d="M941.32,744.4769 C941.32,754.4769 984.9972,754.4769 984.9972,754.4769 C984.9972,754.4769 1028.6745,754.4769 1028.6745,744.4769" fill="none" style="stroke:#181818;stroke-width:0.5;"/><text fill="#000000" font-family="sans-serif" font-size="14" lengthAdjust="spacing" textLength="67.3545" x="951.32" y="771.472">MongoDB</text></g><!--entity Monday.com API--><g class="entity" data-qualified-name="External SaaS.Monday.com API" data-source-line="30" id="ent0018"><rect fill="#F1F1F1" height="39.2969" rx="2.5" ry="2.5" style="stroke:#181818;stroke-width:0.5;" width="146.2178" x="498.89" y="737.4769"/><polygon fill="#F1F1F1" points="628.1078,742.4769,628.1078,756.4769,640.1078,756.4769,640.1078,748.4769,634.1078,742.4769,628.1078,742.4769" style="stroke:#181818;stroke-width:0.5;"/><line style="stroke:#181818;stroke-width:0.5;" x1="634.1078" x2="634.1078" y1="742.4769" y2="748.4769"/><line style="stroke:#181818;stroke-width:0.5;" x1="640.1078" x2="634.1078" y1="748.4769" y2="748.4769"/><text fill="#000000" font-family="sans-serif" font-size="14" lengthAdjust="spacing" textLength="116.2178" x="508.89" y="763.472">Monday.com API</text></g><!--entity Claude API--><g class="entity" data-qualified-name="External SaaS.Claude API" data-source-line="31" id="ent0019"><rect fill="#F1F1F1" height="39.2969" rx="2.5" ry="2.5" style="stroke:#181818;stroke-width:0.5;" width="105.2158" x="358.39" y="737.4769"/><polygon fill="#F1F1F1" points="446.6058,742.4769,446.6058,756.4769,458.6058,756.4769,458.6058,748.4769,452.6058,742.4769,446.6058,742.4769" style="stroke:#181818;stroke-width:0.5;"/><line style="stroke:#181818;stroke-width:0.5;" x1="452.6058" x2="452.6058" y1="742.4769" y2="748.4769"/><line style="stroke:#181818;stroke-width:0.5;" x1="458.6058" x2="452.6058" y1="748.4769" y2="748.4769"/><text fill="#000000" font-family="sans-serif" font-size="14" lengthAdjust="spacing" textLength="75.2158" x="368.39" y="763.472">Claude API</text></g><!--entity Jenkins CI/CD--><g class="entity" data-qualified-name="Platform Tooling.Jenkins CI.CD" data-source-line="35" id="ent0021"><rect fill="#F1F1F1" height="39.2969" rx="2.5" ry="2.5" style="stroke:#181818;stroke-width:0.5;" width="123.4063" x="1499.3" y="289.5869"/><polygon fill="#F1F1F1" points="1605.7063,294.5869,1605.7063,308.5869,1617.7063,308.5869,1617.7063,300.5869,1611.7063,294.5869,1605.7063,294.5869" style="stroke:#181818;stroke-width:0.5;"/><line style="stroke:#181818;stroke-width:0.5;" x1="1611.7063" x2="1611.7063" y1="294.5869" y2="300.5869"/><line style="stroke:#181818;stroke-width:0.5;" x1="1617.7063" x2="1611.7063" y1="300.5869" y2="300.5869"/><text fill="#000000" font-family="sans-serif" font-size="14" lengthAdjust="spacing" textLength="93.4063" x="1509.3" y="315.582">Jenkins CI/CD</text></g><!--entity Secret Manager--><g class="entity" data-qualified-name="Platform Tooling.Secret Manager" data-source-line="36" id="ent0022"><rect fill="#F1F1F1" height="39.2969" rx="2.5" ry="2.5" style="stroke:#181818;stroke-width:0.5;" width="140.8721" x="1123.56" y="289.5869"/><polygon fill="#F1F1F1" points="1247.4321,294.5869,1247.4321,308.5869,1259.4321,308.5869,1259.4321,300.5869,1253.4321,294.5869,1247.4321,294.5869" style="stroke:#181818;stroke-width:0.5;"/><line style="stroke:#181818;stroke-width:0.5;" x1="1253.4321" x2="1253.4321" y1="294.5869" y2="300.5869"/><line style="stroke:#181818;stroke-width:0.5;" x1="1259.4321" x2="1253.4321" y1="300.5869" y2="300.5869"/><text fill="#000000" font-family="sans-serif" font-size="14" lengthAdjust="spacing" textLength="110.8721" x="1133.56" y="315.582">Secret Manager</text></g><!--entity Monitoring/Logging--><g class="entity" data-qualified-name="Platform Tooling.Monitoring.Logging" data-source-line="37" id="ent0023"><rect fill="#F1F1F1" height="39.2969" rx="2.5" ry="2.5" style="stroke:#181818;stroke-width:0.5;" width="165.3721" x="1299.31" y="289.5869"/><polygon fill="#F1F1F1" points="1447.6821,294.5869,1447.6821,308.5869,1459.6821,308.5869,1459.6821,300.5869,1453.6821,294.5869,1447.6821,294.5869" style="stroke:#181818;stroke-width:0.5;"/><line style="stroke:#181818;stroke-width:0.5;" x1="1453.6821" x2="1453.6821" y1="294.5869" y2="300.5869"/><line style="stroke:#181818;stroke-width:0.5;" x1="1459.6821" x2="1453.6821" y1="300.5869" y2="300.5869"/><text fill="#000000" font-family="sans-serif" font-size="14" lengthAdjust="spacing" textLength="135.3721" x="1309.31" y="315.582">Monitoring/Logging</text></g><!--link Customer Email Client to SMTP Server--><g class="link" data-entity-1="ent0003" data-entity-2="ent0005" data-link-type="dependency" data-source-line="40" id="lnk24"><path d="M146.3,589.7069 C141.13,607.8969 133.88,636.2769 131,661.4769 C130.14,668.9869 130.85,670.9269 131,678.4769 C131.39,698.4469 132.0553,715.2832 132.7753,730.9932" fill="none" id="Customer Email Client-to-SMTP Server" style="stroke:#181818;stroke-width:1;"/><polygon fill="#181818" points="133.05,736.9869,136.6338,727.8132,132.8211,731.9921,128.6422,728.1794,133.05,736.9869" style="stroke:#181818;stroke-width:1;"/><text fill="#000000" font-family="sans-serif" font-size="13" lengthAdjust="spacing" textLength="139.1406" x="132" y="674.5438">send support request</text></g><!--link SMTP Server to listener-service container--><g class="link" data-entity-1="ent0005" data-entity-2="ent0008" data-link-type="dependency" data-source-line="41" id="lnk25"><path d="M109.02,737.2269 C71.77,706.6769 6,642.5769 6,570.8269 C6,308.2369 6,308.2369 6,308.2369 C6,236.4169 211.9721,197.856 344.6321,180.256" fill="none" id="SMTP Server-to-listener-service container" style="stroke:#181818;stroke-width:1;"/><polygon fill="#181818" points="350.58,179.4669,341.1321,176.6853,345.6234,180.1245,342.1842,184.6158,350.58,179.4669" style="stroke:#181818;stroke-width:1;"/><text fill="#000000" font-family="sans-serif" font-size="13" lengthAdjust="spacing" textLength="115.3433" x="7" y="432.1038">inbound message</text></g><!--link listener-service container to triage-service container--><g class="link" data-entity-1="ent0008" data-entity-2="ent0009" data-link-type="dependency" data-source-line="43" id="lnk26"><path d="M478.2,186.8669 C511.02,213.6369 566.0511,258.5138 598.9711,285.3738" fill="none" id="listener-service container-to-triage-service container" style="stroke:#181818;stroke-width:1;"/><polygon fill="#181818" points="603.62,289.1669,599.1754,280.3779,599.7459,286.0059,594.1179,286.5765,603.62,289.1669" style="stroke:#181818;stroke-width:1;"/><text fill="#000000" font-family="sans-serif" font-size="13" lengthAdjust="spacing" textLength="113.623" x="531" y="229.6538">normalized event</text></g><!--link triage-service container to Claude API--><g class="link" data-entity-1="ent0009" data-entity-2="ent0019" data-link-type="dependency" data-source-line="44" id="lnk27"><path d="M570.74,329.3369 C501.57,356.0869 386.78,411.8269 333,502.1869 C292.81,569.6969 287.09,607.1369 320,678.4769 C331.66,703.7469 351.0116,720.5635 371.6116,733.9735" fill="none" id="triage-service container-to-Claude API" style="stroke:#181818;stroke-width:1;"/><polygon fill="#181818" points="376.64,737.2469,371.2796,728.9845,372.4496,734.5191,366.9151,735.6891,376.64,737.2469" style="stroke:#181818;stroke-width:1;"/><text fill="#000000" font-family="sans-serif" font-size="13" lengthAdjust="spacing" textLength="98.8774" x="350" y="490.2538">classify/extract</text></g><!--link triage-service container to orchestration-service container--><g class="link" data-entity-1="ent0009" data-entity-2="ent0012" data-link-type="dependency" data-source-line="45" id="lnk28"><path d="M634.98,329.1769 C644.09,350.8069 656.5802,380.4477 665.6902,402.0677" fill="none" id="triage-service container-to-orchestration-service container" style="stroke:#181818;stroke-width:1;"/><polygon fill="#181818" points="668.02,407.5969,668.2114,397.7499,666.0785,402.9892,660.8391,400.8563,668.02,407.5969" style="stroke:#181818;stroke-width:1;"/><text fill="#000000" font-family="sans-serif" font-size="13" lengthAdjust="spacing" textLength="79.4663" x="655" y="373.9538">triage result</text></g><!--link orchestration-service container to ticket-sync-service container--><g class="link" data-entity-1="ent0012" data-entity-2="ent0010" data-link-type="dependency" data-source-line="47" id="lnk29"><path d="M688.14,447.4569 C705.31,474.2369 733.3004,517.8566 750.5304,544.7166" fill="none" id="orchestration-service container-to-ticket-sync-service container" style="stroke:#181818;stroke-width:1;"/><polygon fill="#181818" points="753.77,549.7669,752.2774,540.0318,751.0703,545.5583,745.5438,544.3512,753.77,549.7669" style="stroke:#181818;stroke-width:1;"/><text fill="#000000" font-family="sans-serif" font-size="13" lengthAdjust="spacing" textLength="105.498" x="716" y="490.2538">ticket command</text></g><!--link ticket-sync-service container to Monday.com API--><g class="link" data-entity-1="ent0010" data-entity-2="ent0018" data-link-type="dependency" data-source-line="48" id="lnk30"><path d="M736.13,589.8569 C710.49,606.9369 673.32,633.5569 645,661.4769 C620.91,685.2269 601.2702,712.1361 587.7302,732.1661" fill="none" id="ticket-sync-service container-to-Monday.com API" style="stroke:#181818;stroke-width:1;"/><polygon fill="#181818" points="584.37,737.1369,592.7242,731.9208,587.1702,732.9945,586.0964,727.4405,584.37,737.1369" style="stroke:#181818;stroke-width:1;"/><text fill="#000000" font-family="sans-serif" font-size="13" lengthAdjust="spacing" textLength="125.2393" x="646" y="674.5438">create/update item</text></g><!--link orchestration-service container to communication-service container--><g class="link" data-entity-1="ent0012" data-entity-2="ent0011" data-link-type="dependency" data-source-line="50" id="lnk31"><path d="M550.91,446.5069 C533.37,453.6869 516.94,463.5769 504,477.1869 C485.44,496.7069 482.0917,523.1369 482.0517,543.7269" fill="none" id="orchestration-service container-to-communication-service container" style="stroke:#181818;stroke-width:1;"/><polygon fill="#181818" points="482.04,549.7269,486.0575,540.7347,482.0497,544.7269,478.0575,540.7191,482.04,549.7269" style="stroke:#181818;stroke-width:1;"/><text fill="#000000" font-family="sans-serif" font-size="13" lengthAdjust="spacing" textLength="193.8003" x="505" y="490.2538">outbound message command</text></g><!--link communication-service container to SMTP Server--><g class="link" data-entity-1="ent0011" data-entity-2="ent0005" data-link-type="dependency" data-source-line="51" id="lnk32"><path d="M446.97,589.9669 C379.91,625.5669 242.0394,698.7632 175.1394,734.2832" fill="none" id="communication-service container-to-SMTP Server" style="stroke:#181818;stroke-width:1;"/><polygon fill="#181818" points="169.84,737.0969,179.6648,736.4093,174.2561,734.7522,175.9133,729.3435,169.84,737.0969" style="stroke:#181818;stroke-width:1;"/><text fill="#000000" font-family="sans-serif" font-size="13" lengthAdjust="spacing" textLength="68.2944" x="309" y="674.5438">send reply</text></g><!--link listener-service container to MongoDB--><g class="link" data-entity-1="ent0008" data-entity-2="ent0016" data-link-type="dependency" data-source-line="53" id="lnk33"><path d="M535.1,187.0469 C571.19,195.7969 614.3,206.4669 653,216.5869 C903.47,282.1269 1041.94,254.4869 1174,477.1869 C1196.53,515.1769 1308.99,326.5069 1140,653.4769 C1117.33,697.3469 1071.9306,723.1442 1034.6106,738.6542" fill="none" id="listener-service container-to-MongoDB" style="stroke:#181818;stroke-width:1;"/><polygon fill="#181818" points="1029.07,740.9569,1038.9159,741.1966,1033.6871,739.038,1035.8458,733.8092,1029.07,740.9569" style="stroke:#181818;stroke-width:1;"/><text fill="#000000" font-family="sans-serif" font-size="13" lengthAdjust="spacing" textLength="113.1787" x="1153" y="432.1038">persist messages</text></g><!--link triage-service container to MongoDB--><g class="link" data-entity-1="ent0009" data-entity-2="ent0016" data-link-type="dependency" data-source-line="54" id="lnk34"><path d="M670.59,329.2269 C777.18,375.6369 1043.12,491.2769 1053,494.1869 C1063.37,497.2369 1094.01,493.9369 1101,502.1869 C1144.46,553.4869 1128.61,592.1669 1101,653.4769 C1085.26,688.4169 1056.1174,712.9767 1028.9274,730.8067" fill="none" id="triage-service container-to-MongoDB" style="stroke:#181818;stroke-width:1;"/><polygon fill="#181818" points="1023.91,734.0969,1033.6296,732.5065,1028.0912,731.355,1029.2427,725.8166,1023.91,734.0969" style="stroke:#181818;stroke-width:1;"/><text fill="#000000" font-family="sans-serif" font-size="13" lengthAdjust="spacing" textLength="115.4385" x="1054" y="490.2538">persist AI insights</text></g><!--link ticket-sync-service container to MongoDB--><g class="link" data-entity-1="ent0010" data-entity-2="ent0016" data-link-type="dependency" data-source-line="55" id="lnk35"><path d="M769.7,589.9369 C775.16,613.5169 787.51,653.5369 812,678.4769 C847.41,714.5369 896.7743,733.6417 935.2643,744.4717" fill="none" id="ticket-sync-service container-to-MongoDB" style="stroke:#181818;stroke-width:1;"/><polygon fill="#181818" points="941.04,746.0969,933.4598,739.8087,936.2269,744.7426,931.293,747.5097,941.04,746.0969" style="stroke:#181818;stroke-width:1;"/><text fill="#000000" font-family="sans-serif" font-size="13" lengthAdjust="spacing" textLength="145.8311" x="813" y="674.5438">persist ticket mapping</text></g><!--link orchestration-service container to MongoDB--><g class="link" data-entity-1="ent0012" data-entity-2="ent0016" data-link-type="dependency" data-source-line="56" id="lnk36"><path d="M798.63,447.6369 C834.99,458.4869 872.41,475.5069 900,502.1869 C966.84,566.8169 980.7458,679.4686 983.7958,728.2786" fill="none" id="orchestration-service container-to-MongoDB" style="stroke:#181818;stroke-width:1;"/><polygon fill="#181818" points="984.17,734.2669,987.6009,725.0349,983.8582,729.2766,979.6165,725.5339,984.17,734.2669" style="stroke:#181818;stroke-width:1;"/><text fill="#000000" font-family="sans-serif" font-size="13" lengthAdjust="spacing" textLength="118.46" x="974" y="574.3938">persist state/audit</text></g><!--link communication-service container to MongoDB--><g class="link" data-entity-1="ent0011" data-entity-2="ent0016" data-link-type="dependency" data-source-line="57" id="lnk37"><path d="M475.11,589.6569 C466.43,613.6869 456.5,654.9669 479,678.4769 C486,685.7969 650.96,685.1869 661,686.4769 C762.29,699.4969 873.0755,726.4278 935.0555,742.6478" fill="none" id="communication-service container-to-MongoDB" style="stroke:#181818;stroke-width:1;"/><polygon fill="#181818" points="940.86,744.1669,933.1659,738.0186,936.0229,742.901,931.1405,745.758,940.86,744.1669" style="stroke:#181818;stroke-width:1;"/><text fill="#000000" font-family="sans-serif" font-size="13" lengthAdjust="spacing" textLength="140.9307" x="480" y="674.5438">persist outbound logs</text></g><!--link Support Automation Stack to Secret Manager--><g class="link" data-entity-1="ent0007" data-entity-2="ent0022" data-link-type="dependency" data-source-line="59" id="lnk38"><path d="M1003.1698,170.8347 C1003.3472,170.8996 1003.5272,170.9655 1003.7097,171.0324 C1004.4397,171.3002 1005.2096,171.5845 1006.017,171.885 C1012.4766,174.2888 1021.3406,177.7269 1031.4212,182.0194 C1051.5825,190.6044 1076.61,202.6069 1097,216.5869 C1128.15,237.9469 1154.8955,264.8341 1173.1755,284.7741" fill="none" id="Support Automation Stack-to-Secret Manager" style="stroke:#181818;stroke-width:1;"/><polygon fill="#181818" points="1177.23,289.1969,1174.0967,279.8597,1173.8512,285.5113,1168.1997,285.2658,1177.23,289.1969" style="stroke:#181818;stroke-width:1;"/><text fill="#000000" font-family="sans-serif" font-size="13" lengthAdjust="spacing" textLength="80.8247" x="1118" y="229.6538">read secrets</text></g><!--link Support Automation Stack to Monitoring/Logging--><g class="link" data-entity-1="ent0007" data-entity-2="ent0023" data-link-type="dependency" data-source-line="60" id="lnk39"><path d="M1003.1887,168.8167 C1003.4997,168.8519 1003.8189,168.8884 1004.1463,168.9259 C1009.3854,169.527 1016.7185,170.4224 1025.7377,171.6611 C1043.7759,174.1384 1068.5581,177.9887 1096.8188,183.6031 C1153.34,194.8319 1223.775,213.1169 1282,241.5869 C1309.36,254.9669 1333.2221,271.1909 1352.8121,285.7309" fill="none" id="Support Automation Stack-to-Monitoring/Logging" style="stroke:#181818;stroke-width:1;"/><polygon fill="#181818" points="1357.63,289.3069,1352.7871,280.731,1353.615,286.3269,1348.0191,287.1549,1357.63,289.3069" style="stroke:#181818;stroke-width:1;"/><text fill="#000000" font-family="sans-serif" font-size="13" lengthAdjust="spacing" textLength="97.0049" x="1261" y="229.6538">emit telemetry</text></g><!--link Jenkins CI/CD to Support Automation Stack--><g class="link" data-entity-1="ent0021" data-entity-2="ent0007" data-link-type="dependency" data-source-line="61" id="lnk40"><path d="M1543.71,289.2269 C1528.81,274.0369 1505.99,253.3969 1482,241.5869 C1433.285,217.6069 1313.05,199.2944 1204.245,186.9281 C1149.8425,180.745 1098.2975,176.0484 1059.9788,172.8733 C1040.8194,171.2857 1024.9666,170.0785 1013.7164,169.256 C1010.9039,169.0503 1008.379,168.8687 1006.162,168.7113 C1005.0536,168.6325 1010.0074,168.979 1009.0554,168.9123" fill="none" id="Jenkins CI/CD-to-Support Automation Stack" style="stroke:#181818;stroke-width:1;"/><polygon fill="#181818" points="1003.0701,168.4932,1011.7686,173.1121,1008.0579,168.8425,1012.3275,165.1317,1003.0701,168.4932" style="stroke:#181818;stroke-width:1;"/><text fill="#000000" font-family="sans-serif" font-size="13" lengthAdjust="spacing" textLength="80.1074" x="1462" y="229.6538">build/deploy</text></g><?plantuml-src ZPNFRjim3CRlVWeYzypt7WPqoO1rQuS0xWimCkiIaILFeefwGzzzjDsqiP74Fbhw-1F_V9B5Do0Uzbx4rr1o82FiNPO9YoNOfAZh5A18JUE3m6tIR-mai8OjDTQtDJc1BMCLiCuovqk2rKVSvXcT8xk2Vna01k4dD7Ao_xr6jh2nh91LzdQC7vPtmRzmIM4QNJmyxg2WyA9Rdp5RRmvA_E6ZG0w_qfw28w48ltLxG0p2CxKKWkOmQ4uFiXo578LrrCFO41Zl1DbrvuwL4hG1j437cgIiO-lClDZukawEJP_ZlDm7yqnHma8vbZMxDJPyMHAev0X_4YNA3Igz4xoTj1m5uHxRuuXA_TvZr9q7xog__NOwqbVHWQ250h6OJbJb9RPVj62utTsjnbwnc1JGht_GTXRboOSQ7hstxAefy2Uv0xi8cxjyintp2ZA111xGwSJ2Qfe7YmyApEzzLNNWximBVeNr-klOZN03aLm9yTrYWRHvKRAng0-xuYsbiDlxfA2QOjGqDOLh-XvuqOAASzegjFoNIg0NJJsxekvX9qtNS6CnHdvgStfLUvdvy3ahAdCWQ8TYigBrpOOCHLwzFnss5q1tTT2LsLn03vsuhoiu40hbgL574x1GlJZ3kKkhT9zaDDtFR6U3Bpekw5lSBh79yMPgO4CXgloOHfmTwvdOsplrQkJgMUBYPayPxpEhiMdqnYrjz1bGb6vgwboMfRqyG_aOZ_LLr9PU_byCqnY_9mfIy-WJq2_7sV0pJuuYg6Rj2rcgIKARJTwpzuClWczWdzYMUTd_eFy3?></g></svg>