<svg xmlns="http://www.w3.org/2000/svg" xmlns:xlink="http://www.w3.org/1999/xlink" contentStyleType="text/css" data-diagram-type="DESCRIPTION" height="1025px" preserveAspectRatio="none" style="width:1352px;height:1025px;background:#FFFFFF;" version="1.1" viewBox="0 0 1352 1025" width="1352px" zoomAndPan="magnify"><?plantuml 1.2026.3beta5?><defs/><g><g class="title" data-source-line="6"><text fill="#000000" font-family="sans-serif" font-size="14" font-weight="700" lengthAdjust="spacing" textLength="481.5303" x="431.8398" y="22.9951">Customer Support Automation - Data Flow Diagram (Level 1)</text></g><!--entity E1--><g class="entity" data-qualified-name="E1" data-source-line="8" id="ent0002"><ellipse cx="832.002" cy="51.2969" fill="#F1F1F1" rx="8" ry="8" style="stroke:#181818;stroke-width:0.5;"/><path d="M832.002,59.2969 L832.002,86.2969 M819.002,67.2969 L845.002,67.2969 M832.002,86.2969 L819.002,101.2969 M832.002,86.2969 L845.002,101.2969" fill="none" style="stroke:#181818;stroke-width:0.5;"/><text fill="#000000" font-family="sans-serif" font-size="14" lengthAdjust="spacing" textLength="68.0039" x="798" y="115.792">Customer</text></g><!--entity E2--><g class="entity" data-qualified-name="E2" data-source-line="9" id="ent0003"><ellipse cx="1128.9967" cy="686.7769" fill="#F1F1F1" rx="8" ry="8" style="stroke:#181818;stroke-width:0.5;"/><path d="M1128.9967,694.7769 L1128.9967,721.7769 M1115.9967,702.7769 L1141.9967,702.7769 M1128.9967,721.7769 L1115.9967,736.7769 M1128.9967,721.7769 L1141.9967,736.7769" fill="none" style="stroke:#181818;stroke-width:0.5;"/><text fill="#000000" font-family="sans-serif" font-size="14" lengthAdjust="spacing" textLength="101.2334" x="1078.38" y="751.272">Support Agent</text></g><!--entity P1--><g class="entity" data-qualified-name="P1" data-source-line="11" id="ent0004"><rect fill="#F1F1F1" height="36.2969" rx="5" ry="5" style="stroke:#181818;stroke-width:0.5;" width="205.1377" x="327.43" y="319.3869"/><text fill="#000000" font-family="sans-serif" font-size="14" lengthAdjust="spacing" textLength="185.1377" x="337.43" y="342.382">P1: Email Intake &amp; Parsing</text></g><!--entity P2--><g class="entity" data-qualified-name="P2" data-source-line="12" id="ent0005"><rect fill="#F1F1F1" height="36.2969" rx="5" ry="5" style="stroke:#181818;stroke-width:0.5;" width="209.3145" x="452.34" y="437.1869"/><text fill="#000000" font-family="sans-serif" font-size="14" lengthAdjust="spacing" textLength="189.3145" x="462.34" y="460.182">P2: AI Triage &amp; Enrichment</text></g><!--entity P3--><g class="entity" data-qualified-name="P3" data-source-line="13" id="ent0006"><rect fill="#F1F1F1" height="36.2969" rx="5" ry="5" style="stroke:#181818;stroke-width:0.5;" width="232.0508" x="549.97" y="698.2769"/><text fill="#000000" font-family="sans-serif" font-size="14" lengthAdjust="spacing" textLength="212.0508" x="559.97" y="721.272">P3: Ticket Sync (Monday.com)</text></g><!--entity P4--><g class="entity" data-qualified-name="P4" data-source-line="14" id="ent0007"><rect fill="#F1F1F1" height="36.2969" rx="5" ry="5" style="stroke:#181818;stroke-width:0.5;" width="222.6787" x="977.66" y="836.5769"/><text fill="#000000" font-family="sans-serif" font-size="14" lengthAdjust="spacing" textLength="202.6787" x="987.66" y="859.572">P4: Communication Manager</text></g><!--entity P5--><g class="entity" data-qualified-name="P5" data-source-line="15" id="ent0008"><rect fill="#F1F1F1" height="36.2969" rx="5" ry="5" style="stroke:#181818;stroke-width:0.5;" width="233.9307" x="648.03" y="559.9769"/><text fill="#000000" font-family="sans-serif" font-size="14" lengthAdjust="spacing" textLength="213.9307" x="658.03" y="582.972">P5: Orchestration &amp; Escalation</text></g><!--entity D1--><g class="entity" data-qualified-name="D1" data-source-line="17" id="ent0009"><path d="M258.37,442.6869 C258.37,432.6869 338.0043,432.6869 338.0043,432.6869 C338.0043,432.6869 417.6386,432.6869 417.6386,442.6869 L417.6386,467.9838 C417.6386,477.9838 338.0043,477.9838 338.0043,477.9838 C338.0043,477.9838 258.37,477.9838 258.37,467.9838 L258.37,442.6869" fill="#F1F1F1" style="stroke:#181818;stroke-width:0.5;"/><path d="M258.37,442.6869 C258.37,452.6869 338.0043,452.6869 338.0043,452.6869 C338.0043,452.6869 417.6386,452.6869 417.6386,442.6869" fill="none" style="stroke:#181818;stroke-width:0.5;"/><text fill="#000000" font-family="sans-serif" font-size="14" lengthAdjust="spacing" textLength="139.2686" x="268.37" y="469.682">D1: Messages Store</text></g><!--entity D2--><g class="entity" data-qualified-name="D2" data-source-line="18" id="ent0010"><path d="M555.87,842.0769 C555.87,832.0769 625.9989,832.0769 625.9989,832.0769 C625.9989,832.0769 696.1278,832.0769 696.1278,842.0769 L696.1278,867.3738 C696.1278,877.3738 625.9989,877.3738 625.9989,877.3738 C625.9989,877.3738 555.87,877.3738 555.87,867.3738 L555.87,842.0769" fill="#F1F1F1" style="stroke:#181818;stroke-width:0.5;"/><path d="M555.87,842.0769 C555.87,852.0769 625.9989,852.0769 625.9989,852.0769 C625.9989,852.0769 696.1278,852.0769 696.1278,842.0769" fill="none" style="stroke:#181818;stroke-width:0.5;"/><text fill="#000000" font-family="sans-serif" font-size="14" lengthAdjust="spacing" textLength="120.2578" x="565.87" y="869.072">D2: Tickets Store</text></g><!--entity D3--><g class="entity" data-qualified-name="D3" data-source-line="19" id="ent0011"><path d="M917.25,565.4769 C917.25,555.4769 999,555.4769 999,555.4769 C999,555.4769 1080.75,555.4769 1080.75,565.4769 L1080.75,590.7738 C1080.75,600.7738 999,600.7738 999,600.7738 C999,600.7738 917.25,600.7738 917.25,590.7738 L917.25,565.4769" fill="#F1F1F1" style="stroke:#181818;stroke-width:0.5;"/><path d="M917.25,565.4769 C917.25,575.4769 999,575.4769 999,575.4769 C999,575.4769 1080.75,575.4769 1080.75,565.4769" fill="none" style="stroke:#181818;stroke-width:0.5;"/><text fill="#000000" font-family="sans-serif" font-size="14" lengthAdjust="spacing" textLength="143.5" x="927.25" y="592.472">D3: AI Insights Store</text></g><!--entity D4--><g class="entity" data-qualified-name="D4" data-source-line="20" id="ent0012"><path d="M141.48,964.8669 C141.48,954.8669 219.9966,954.8669 219.9966,954.8669 C219.9966,954.8669 298.5132,954.8669 298.5132,964.8669 L298.5132,990.1638 C298.5132,1000.1638 219.9966,1000.1638 219.9966,1000.1638 C219.9966,1000.1638 141.48,1000.1638 141.48,990.1638 L141.48,964.8669" fill="#F1F1F1" style="stroke:#181818;stroke-width:0.5;"/><path d="M141.48,964.8669 C141.48,974.8669 219.9966,974.8669 219.9966,974.8669 C219.9966,974.8669 298.5132,974.8669 298.5132,964.8669" fill="none" style="stroke:#181818;stroke-width:0.5;"/><text fill="#000000" font-family="sans-serif" font-size="14" lengthAdjust="spacing" textLength="137.0332" x="151.48" y="991.862">D4: Audit Log Store</text></g><!--entity X1--><g class="entity" data-qualified-name="X1" data-source-line="22" id="ent0013"><path d="M739.8192,840.6185 C742.909,835.4278 748.9217,835.62 751.9618,840.6774 C756.2656,834.3581 762.3732,832.2905 767.0003,840.339 C770.5651,834.8871 774.5329,832.7275 779.3977,838.9595 C782.7358,831.8688 788.9227,831.8499 792.8248,838.4045 C795.565,832.6682 801.1461,831.9502 805.1084,837.0146 C810.6879,831.2654 815.1955,831.1587 818.9709,838.8721 C821.9937,833.3215 827.6075,832.5422 830.6378,838.8647 C835.3248,831.7953 839.9865,832.4209 844.9053,838.6153 C848.8471,833.8175 853.6247,832.901 856.9152,839.3131 C861.7433,833.613 866.4758,834.1045 870.6446,840.0878 C879.1612,843.6266 880.6087,851.0183 872.3704,856.3366 C877.6603,861.9826 878.1621,867.2109 869.7699,870.3109 C865.3647,876.7456 861.1932,876.0414 856.3547,870.8092 C854.1767,877.3841 848.0922,878.1735 843.7154,873.2199 C839.8766,879.7032 835.3476,879.9658 830.9184,873.8179 C827.361,880.3762 821.058,879.6775 817.4631,873.8587 C815.1928,880.4449 809.7692,880.2874 806.0772,875.2517 C801.6327,880.9569 795.4003,881.6508 791.5081,874.6199 C787.4518,879.7634 781.2671,880.9733 778.2886,873.4914 C774.1561,878.256 768.1306,878.2783 765.7442,871.5805 C761.3197,877.3523 757.5431,877.3905 753.8821,870.8452 C748.6975,877.9055 743.9284,877.2019 739.1344,870.4288 C732.2821,867.7326 731.2902,860.9741 736.8048,856.2465 C730.7486,849.9099 731.7017,844.2211 739.8192,840.6185" fill="#F1F1F1" style="stroke:#181818;stroke-width:0.5;"/><text fill="#000000" font-family="sans-serif" font-size="14" lengthAdjust="spacing" textLength="116.2178" x="745.89" y="859.572">Monday.com API</text></g><!--entity X2--><g class="entity" data-qualified-name="X2" data-source-line="23" id="ent0014"><path d="M447.0858,564.2016 C448.7963,559.5698 453.1676,557.8605 456.6539,562.3359 C459.908,557.1934 465.4459,556.4704 468.5482,562.4975 C472.5181,556.9974 476.0684,556.8344 480.1767,562.3514 C482.9726,556.7019 486.0924,556.7996 490.2047,561.013 C494.2266,554.6809 499.7733,555.8026 502.5523,562.2171 C506.1547,557.489 510.4124,557.4805 513.1542,563.0989 C517.8022,557.2941 521.3638,558.1084 524.6713,564.3776 C527.5598,558.5522 531.9969,558.9848 535.3347,563.9329 C544.7004,563.1281 548.268,570.9244 544.8704,578.4838 C550.7107,588.3788 547.8585,594.7385 536.0121,595.3374 C532.6174,599.5841 528.0396,599.2047 525.6386,594.2206 C522.5749,599.4734 517.7979,599.671 514.0515,595.0193 C510.9302,599.8309 506.485,599.6677 503.2036,595.2065 C499.7504,600.9207 494.3203,602.3505 490.1225,596.0148 C487.1973,601.3695 482.7407,600.1809 480.1406,595.6853 C476.5446,600.6516 471.6383,601.7614 467.9783,595.7563 C464.5691,600.1854 460.1783,600.6997 457.6614,594.8599 C454.747,601.4214 448.9574,600.1693 445.6313,595.293 C436.8417,591.3101 435.5328,586.1272 441.5613,578.5436 C436.2409,571.3954 438.1637,565.8637 447.0858,564.2016" fill="#F1F1F1" style="stroke:#181818;stroke-width:0.5;"/><text fill="#000000" font-family="sans-serif" font-size="14" lengthAdjust="spacing" textLength="75.2158" x="452.39" y="582.972">Claude API</text></g><!--entity X3--><g class="entity" data-qualified-name="X3" data-source-line="24" id="ent0015"><path d="M778.8387,205.499 C782.8291,199.4786 789.4406,198.6411 793.5227,205.3935 C795.7726,199.2409 801.5533,196.3755 806.5114,202.537 C809.9714,197.1311 815.5142,196.7014 819.1612,202.3225 C824.281,195.6759 829.1637,194.7675 833.9349,202.6764 C837.4673,195.9465 843.3511,196.1407 847.2463,202.3017 C852.1414,197.7427 856.0307,198.0352 859.106,204.2963 C864.1672,198.2224 868.6838,196.1849 874.0086,204.0137 C879.3138,198.4956 884.2166,199.6135 887.5432,206.222 C893.9818,209.9591 894.9922,215.5894 888.3324,220.0729 C894.3899,224.8819 894.2972,230.1941 888.1138,234.8217 C884.4715,242.5439 877.5064,242.7804 873.5487,235.1204 C869.6133,242.5378 865.5538,242.1824 860.5768,236.1229 C857.2297,242.7541 850.2292,243.0669 845.84,237.3685 C842.464,243.153 838.1809,243.7492 833.396,239.0393 C827.858,244.1194 823.2644,243.9796 819.5711,236.9358 C815.7085,243.0611 810.6373,244.6016 805.9714,237.7795 C801.176,244.6376 795.031,243.5628 792.0024,236.0608 C788.2916,241.7917 782.7031,242.776 779.2249,235.8264 C768.977,233.7233 767.0982,227.9733 772.0269,219.2715 C767.5352,211.8792 770.126,206.3604 778.8387,205.499" fill="#F1F1F1" style="stroke:#181818;stroke-width:0.5;"/><text fill="#000000" font-family="sans-serif" font-size="14" lengthAdjust="spacing" textLength="94.1514" x="784.92" y="224.082">SMTP Service</text></g><!--link E1 to X3--><g class="link" data-entity-1="ent0002" data-entity-2="ent0015" data-link-type="dependency" data-source-line="26" id="lnk16"><path d="M797.74,106.1169 C784.58,117.4869 771.04,132.2469 764,149.0869 C756.34,167.4169 765.2797,180.0988 782.4397,192.1488" fill="none" id="E1-to-X3" style="stroke:#181818;stroke-width:1;"/><polygon fill="#181818" points="787.35,195.5969,782.2833,187.1513,783.2581,192.7235,777.6859,193.6983,787.35,195.5969" style="stroke:#181818;stroke-width:1;"/><text fill="#000000" font-family="sans-serif" font-size="13" lengthAdjust="spacing" textLength="89.8955" x="765" y="162.1538">support email</text></g><!--link X3 to E1--><g class="link" data-entity-1="ent0015" data-entity-2="ent0002" data-link-type="dependency" data-source-line="44" id="lnk31"><path d="M846.6,195.8069 C851.56,186.9269 856.49,176.3869 859,166.0869 C862.78,150.5869 861.2557,139.3588 855.4757,124.8888" fill="none" id="X3-to-E1" style="stroke:#181818;stroke-width:1;"/><polygon fill="#181818" points="853.25,119.3169,852.8739,129.1585,855.1047,123.9601,860.3031,126.191,853.25,119.3169" style="stroke:#181818;stroke-width:1;"/><text fill="#000000" font-family="sans-serif" font-size="13" lengthAdjust="spacing" textLength="176.5347" x="862" y="162.1538">acknowledgement/updates</text></g><!--link X3 to P1--><g class="link" data-entity-1="ent0015" data-entity-2="ent0004" data-link-type="dependency" data-source-line="27" id="lnk17"><path d="M769.63,238.2769 C693.65,260.2569 571.9237,295.4795 496.6337,317.2595" fill="none" id="X3-to-P1" style="stroke:#181818;stroke-width:1;"/><polygon fill="#181818" points="490.87,318.9269,500.6271,320.2683,495.6731,317.5374,498.404,312.5834,490.87,318.9269" style="stroke:#181818;stroke-width:1;"/><text fill="#000000" font-family="sans-serif" font-size="13" lengthAdjust="spacing" textLength="115.3433" x="645" y="285.4538">inbound message</text></g><!--link P1 to D1--><g class="link" data-entity-1="ent0004" data-entity-2="ent0009" data-link-type="dependency" data-source-line="28" id="lnk18"><path d="M402.25,356.1269 C391.18,364.1369 378.97,374.3669 370,385.6869 C358.89,399.6969 352.6645,412.5818 347.2945,426.8418" fill="none" id="P1-to-D1" style="stroke:#181818;stroke-width:1;"/><polygon fill="#181818" points="345.18,432.4569,352.0951,425.444,346.9421,427.7777,344.6084,422.6246,345.18,432.4569" style="stroke:#181818;stroke-width:1;"/><text fill="#000000" font-family="sans-serif" font-size="13" lengthAdjust="spacing" textLength="107.1421" x="371" y="398.7538">parsed message</text></g><!--link P1 to P2--><g class="link" data-entity-1="ent0004" data-entity-2="ent0005" data-link-type="dependency" data-source-line="29" id="lnk19"><path d="M449.97,356.1269 C459.94,364.9469 472.15,375.8269 483,385.6869 C501.94,402.8869 518.9571,418.6993 533.8571,432.6293" fill="none" id="P1-to-P2" style="stroke:#181818;stroke-width:1;"/><polygon fill="#181818" points="538.24,436.7269,534.3974,427.6586,534.5876,433.3122,528.9339,433.5024,538.24,436.7269" style="stroke:#181818;stroke-width:1;"/><text fill="#000000" font-family="sans-serif" font-size="13" lengthAdjust="spacing" textLength="126.2993" x="503" y="398.7538">normalized request</text></g><!--link P2 to X2--><g class="link" data-entity-1="ent0005" data-entity-2="ent0014" data-link-type="dependency" data-source-line="31" id="lnk20"><path d="M464.3,473.9169 C446.88,481.5169 430.77,492.4069 420,507.9769 C408.05,525.2569 418.7006,538.6405 438.2306,551.2605" fill="none" id="P2-to-X2" style="stroke:#181818;stroke-width:1;"/><polygon fill="#181818" points="443.27,554.5169,437.8818,546.2727,439.0705,551.8032,433.5399,552.9919,443.27,554.5169" style="stroke:#181818;stroke-width:1;"/><text fill="#000000" font-family="sans-serif" font-size="13" lengthAdjust="spacing" textLength="92.1045" x="421" y="521.0438">triage request</text></g><!--link X2 to P2--><g class="link" data-entity-1="ent0014" data-entity-2="ent0005" data-link-type="dependency" data-source-line="32" id="lnk21"><path d="M502.49,554.5969 C515.45,531.2469 532.5199,500.4739 544.3499,479.1439" fill="none" id="X2-to-P2" style="stroke:#181818;stroke-width:1;"/><polygon fill="#181818" points="547.26,473.8969,539.3968,479.8274,544.8349,478.2694,546.3929,483.7075,547.26,473.8969" style="stroke:#181818;stroke-width:1;"/><text fill="#000000" font-family="sans-serif" font-size="13" lengthAdjust="spacing" textLength="166.6323" x="529" y="521.0438">intent/entities/confidence</text></g><!--link P2 to D3--><g class="link" data-entity-1="ent0005" data-entity-2="ent0011" data-link-type="dependency" data-source-line="33" id="lnk22"><path d="M661.89,473.6469 C708.57,482.3369 763.94,494.0069 813,507.9769 C858.89,521.0469 904.0044,537.9755 940.8544,552.8155" fill="none" id="P2-to-D3" style="stroke:#181818;stroke-width:1;"/><polygon fill="#181818" points="946.42,555.0569,939.5658,547.9844,941.782,553.1891,936.5773,555.4053,946.42,555.0569" style="stroke:#181818;stroke-width:1;"/><text fill="#000000" font-family="sans-serif" font-size="13" lengthAdjust="spacing" textLength="60.6836" x="866" y="521.0438">AI insight</text></g><!--link P2 to P5--><g class="link" data-entity-1="ent0005" data-entity-2="ent0008" data-link-type="dependency" data-source-line="34" id="lnk23"><path d="M629.99,473.8969 C654.78,481.8969 681.79,493.0169 704,507.9769 C724.45,521.7569 738.8957,539.0851 749.9257,554.6151" fill="none" id="P2-to-P5" style="stroke:#181818;stroke-width:1;"/><polygon fill="#181818" points="753.4,559.5069,751.4497,549.853,750.5047,555.4304,744.9274,554.4855,753.4,559.5069" style="stroke:#181818;stroke-width:1;"/><text fill="#000000" font-family="sans-serif" font-size="13" lengthAdjust="spacing" textLength="79.4663" x="725" y="521.0438">triage result</text></g><!--link P5 to P3--><g class="link" data-entity-1="ent0008" data-entity-2="ent0006" data-link-type="dependency" data-source-line="36" id="lnk24"><path d="M704.81,596.6969 C688.41,604.5469 672.55,615.6669 663,631.2769 C650.64,651.4769 653.5326,674.0207 658.4926,692.1007" fill="none" id="P5-to-P3" style="stroke:#181818;stroke-width:1;"/><polygon fill="#181818" points="660.08,697.8869,661.5564,688.1493,658.7572,693.065,653.8415,690.2658,660.08,697.8869" style="stroke:#181818;stroke-width:1;"/><text fill="#000000" font-family="sans-serif" font-size="13" lengthAdjust="spacing" textLength="176.4966" x="664" y="644.3438">create/update ticket action</text></g><!--link P3 to X1--><g class="link" data-entity-1="ent0006" data-entity-2="ent0013" data-link-type="dependency" data-source-line="37" id="lnk25"><path d="M699.64,734.9569 C720.3,746.9269 746.29,764.2569 765,784.5769 C777.6,798.2569 785.2056,811.3178 791.9856,825.7278" fill="none" id="P3-to-X1" style="stroke:#181818;stroke-width:1;"/><polygon fill="#181818" points="794.54,831.1569,794.3278,821.3103,792.4113,826.6326,787.089,824.7162,794.54,831.1569" style="stroke:#181818;stroke-width:1;"/><text fill="#000000" font-family="sans-serif" font-size="13" lengthAdjust="spacing" textLength="122.4399" x="779" y="797.6438">board item API call</text></g><!--link X1 to P3--><g class="link" data-entity-1="ent0013" data-entity-2="ent0006" data-link-type="dependency" data-source-line="38" id="lnk26"><path d="M730.54,835.7369 C699.33,826.4669 668.04,814.4269 659,801.5769 C645.26,782.0269 649.8136,758.9007 656.4236,740.5807" fill="none" id="X1-to-P3" style="stroke:#181818;stroke-width:1;"/><polygon fill="#181818" points="658.46,734.9369,651.6429,742.0451,656.763,739.6401,659.1681,744.7602,658.46,734.9369" style="stroke:#181818;stroke-width:1;"/><text fill="#000000" font-family="sans-serif" font-size="13" lengthAdjust="spacing" textLength="96.8018" x="660" y="797.6438">ticket id/status</text></g><!--link P3 to D2--><g class="link" data-entity-1="ent0006" data-entity-2="ent0010" data-link-type="dependency" data-source-line="39" id="lnk27"><path d="M549.51,734.5669 C521.27,744.5069 494.27,760.1069 477,784.5769 C472.64,790.7469 472.63,795.4069 477,801.5769 C486.79,815.3769 516.0302,826.3865 549.6602,835.7565" fill="none" id="P3-to-D2" style="stroke:#181818;stroke-width:1;"/><polygon fill="#181818" points="555.44,837.3669,547.8438,831.0981,550.6235,836.0249,545.6966,838.8045,555.44,837.3669" style="stroke:#181818;stroke-width:1;"/><text fill="#000000" font-family="sans-serif" font-size="13" lengthAdjust="spacing" textLength="144.2695" x="478" y="797.6438">ticket record/mapping</text></g><!--link P3 to P4--><g class="link" data-entity-1="ent0006" data-entity-2="ent0007" data-link-type="dependency" data-source-line="40" id="lnk28"><path d="M737.3,735.0369 C786.26,747.6169 852.52,765.6169 910,784.5769 C957.62,800.2769 1005.5577,819.1426 1041.5677,833.8926" fill="none" id="P3-to-P4" style="stroke:#181818;stroke-width:1;"/><polygon fill="#181818" points="1047.12,836.1669,1040.3078,829.054,1042.4931,834.2717,1037.2754,836.457,1047.12,836.1669" style="stroke:#181818;stroke-width:1;"/><text fill="#000000" font-family="sans-serif" font-size="13" lengthAdjust="spacing" textLength="162.3604" x="955" y="797.6438">ticket reference + status</text></g><!--link P5 to P4--><g class="link" data-entity-1="ent0008" data-entity-2="ent0007" data-link-type="dependency" data-source-line="42" id="lnk29"><path d="M802.97,596.7669 C817.88,605.3469 834.01,616.9269 845,631.2769 C880.02,677.0169 840.59,717.8769 885,754.5769 C968.21,823.3169 1054.55,703.6769 1126,784.5769 C1139.61,799.9869 1128.5284,817.02 1113.6784,831.9" fill="none" id="P5-to-P4" style="stroke:#181818;stroke-width:1;"/><polygon fill="#181818" points="1109.44,836.1469,1118.6288,832.6021,1112.972,832.6078,1112.9663,826.9509,1109.44,836.1469" style="stroke:#181818;stroke-width:1;"/><text fill="#000000" font-family="sans-serif" font-size="13" lengthAdjust="spacing" textLength="174.021" x="886" y="720.9938">communication instruction</text></g><!--link P4 to X3--><g class="link" data-entity-1="ent0007" data-entity-2="ent0015" data-link-type="dependency" data-source-line="43" id="lnk30"><path d="M1129.88,836.2169 C1172.45,814.9069 1233,774.5669 1233,717.4269 C1233,336.5369 1233,336.5369 1233,336.5369 C1233,266.8569 1012.8219,236.8264 900.1919,225.8964" fill="none" id="P4-to-X3" style="stroke:#181818;stroke-width:1;"/><polygon fill="#181818" points="894.22,225.3169,902.7916,230.1675,899.1966,225.7998,903.5643,222.2049,894.22,225.3169" style="stroke:#181818;stroke-width:1;"/><text fill="#000000" font-family="sans-serif" font-size="13" lengthAdjust="spacing" textLength="102.21" x="1234" y="521.0438">outbound email</text></g><!--link P5 to E2--><g class="link" data-entity-1="ent0008" data-entity-2="ent0003" data-link-type="dependency" data-source-line="46" id="lnk32"><path d="M868.67,596.7369 C951.25,610.8969 1053.75,628.8269 1058,631.2769 C1077.37,642.4469 1090.3485,656.129 1102.5485,672.959" fill="none" id="P5-to-E2" style="stroke:#181818;stroke-width:1;"/><polygon fill="#181818" points="1106.07,677.8169,1104.0264,668.1824,1103.1354,673.7686,1097.5492,672.8777,1106.07,677.8169" style="stroke:#181818;stroke-width:1;"/><text fill="#000000" font-family="sans-serif" font-size="13" lengthAdjust="spacing" textLength="97.8618" x="1080" y="644.3438">escalation task</text></g><!--link E2 to P5--><g class="link" data-entity-1="ent0003" data-entity-2="ent0008" data-link-type="dependency" data-source-line="47" id="lnk33"><path d="M1078,689.3969 C1069.12,685.3669 1059.89,681.4869 1051,678.2769 C1000.11,659.8869 984.27,665.5769 933,648.2769 C914.7,642.0969 910.83,638.6969 893,631.2769 C864.98,619.6169 838.9509,609 814.1709,598.96" fill="none" id="E2-to-P5" style="stroke:#181818;stroke-width:1;"/><polygon fill="#181818" points="808.61,596.7069,815.4493,603.7938,813.2441,598.5844,818.4534,596.3792,808.61,596.7069" style="stroke:#181818;stroke-width:1;"/><text fill="#000000" font-family="sans-serif" font-size="13" lengthAdjust="spacing" textLength="115.6162" x="934" y="644.3438">approval/override</text></g><!--link P1 to D4--><g class="link" data-entity-1="ent0004" data-entity-2="ent0012" data-link-type="dependency" data-source-line="49" id="lnk34"><path d="M327.09,346.1569 C201.6,358.3469 6,387.9869 6,454.3269 C6,454.3269 6,454.3269 6,855.7169 C6,920.0369 74.3655,949.1397 135.3855,963.3097" fill="none" id="P1-to-D4" style="stroke:#181818;stroke-width:1;"/><polygon fill="#181818" points="141.23,964.6669,133.3681,958.7348,136.3596,963.5359,131.5585,966.5274,141.23,964.6669" style="stroke:#181818;stroke-width:1;"/><text fill="#000000" font-family="sans-serif" font-size="13" lengthAdjust="spacing" textLength="118.8979" x="7" y="644.3438">intake audit event</text></g><!--link P2 to D4--><g class="link" data-entity-1="ent0005" data-entity-2="ent0012" data-link-type="dependency" data-source-line="50" id="lnk35"><path d="M466.7,473.9369 C346.53,498.6269 149,544.2269 149,577.1269 C149,577.1269 149,577.1269 149,855.7169 C149,894.6469 172.6677,927.6813 193.4777,950.3013" fill="none" id="P2-to-D4" style="stroke:#181818;stroke-width:1;"/><polygon fill="#181818" points="197.54,954.7169,194.3903,945.3852,194.1548,951.0372,188.5028,950.8016,197.54,954.7169" style="stroke:#181818;stroke-width:1;"/><text fill="#000000" font-family="sans-serif" font-size="13" lengthAdjust="spacing" textLength="116.7271" x="150" y="720.9938">triage audit event</text></g><!--link P3 to D4--><g class="link" data-entity-1="ent0006" data-entity-2="ent0012" data-link-type="dependency" data-source-line="51" id="lnk36"><path d="M594.63,735.0169 C555.34,746.2469 506.49,762.8069 466,784.5769 C375.34,833.3069 288.1026,911.3071 246.8926,950.4071" fill="none" id="P3-to-D4" style="stroke:#181818;stroke-width:1;"/><polygon fill="#181818" points="242.54,954.5369,251.8221,951.244,246.1672,951.0954,246.3157,945.4405,242.54,954.5369" style="stroke:#181818;stroke-width:1;"/><text fill="#000000" font-family="sans-serif" font-size="13" lengthAdjust="spacing" textLength="108.3101" x="391" y="859.2838">sync audit event</text></g><!--link P4 to D4--><g class="link" data-entity-1="ent0007" data-entity-2="ent0012" data-link-type="dependency" data-source-line="52" id="lnk37"><path d="M977.17,871.2669 C798.74,896.0669 459.9229,943.1709 304.8729,964.7209" fill="none" id="P4-to-D4" style="stroke:#181818;stroke-width:1;"/><polygon fill="#181818" points="298.93,965.5469,308.395,968.2698,303.8824,964.8586,307.2937,960.346,298.93,965.5469" style="stroke:#181818;stroke-width:1;"/><text fill="#000000" font-family="sans-serif" font-size="13" lengthAdjust="spacing" textLength="178.9912" x="708" y="920.9338">communication audit event</text></g><!--link P5 to D4--><g class="link" data-entity-1="ent0008" data-entity-2="ent0012" data-link-type="dependency" data-source-line="53" id="lnk38"><path d="M647.63,592.6869 C528.58,612.9869 348.4,662.9669 251,784.5769 C211.01,834.4969 212.6477,909.7162 216.4977,948.5262" fill="none" id="P5-to-D4" style="stroke:#181818;stroke-width:1;"/><polygon fill="#181818" points="217.09,954.4969,220.182,945.146,216.5964,949.5213,212.2211,945.9357,217.09,954.4969" style="stroke:#181818;stroke-width:1;"/><text fill="#000000" font-family="sans-serif" font-size="13" lengthAdjust="spacing" textLength="177.4551" x="252" y="797.6438">state transition audit event</text></g><?plantuml-src PLHDZzem4BtxLumuL5jLMveGBXmg8P9AI8iQbJrm7HnlrYAnKt-msbRzxnt7X2Jj0GdytZpFctd6wGwSXhDsJhTGIIEuarenUv6gGuCjX1DKTIFWDmFueRsgTjeeOI3vmlumvgGZRESj2T3XqNUTDWwsddvZq897oD4XV6lq6-GIww3wy2Ikee7a8sF8dJQm61GMW1QAP3Y-wzL2kOYbZ8rDBSfa0qMBie6zSdWHy05AD5QgkcUNoOoSRc2xXsT3RGHceOpah-qWNQOpyce3pv9VX8FZk-BmSD2gmlVFNBSV8tqresSRsEcszKhoQFo0Ygw9ZifinbrluBlXhy8w4xdKY-NOz3zYmPgnYkPsHai5ERay26j9pyAH9YDwKfvCEUdGxuoIJYchtlzUMLc_pcchAOsiR7qb7JpfUahA6EEDzXKinbd0jjptw2aPm5s3lX8Za0x0yV1Smb6Og-HHyRHYh4ZWyV4hVOKDsDkwHTWeewE0b0aXKfr3zg2DKs1bhCe3HacruZ-eJ0bIshJOo5y46_7Jqy0P8w2_CE0kHc70JkbOAfMZO2pf8vqKTicrUf6LK5mC2dbecUOfupo7ut8z5RQ-2NUk8nGgk17enD9tD741BaOCuyChe-LJi7NMQ2gGJlGp1ee7ZIGPTMwLibfQXyxReJXFHv12fqsrRB7hw4aCZ3ARCbw42QxW4znqxjq66fzbcgmwus-zPkFYj7TnFxFD5S46yelIRuseQX5UsittU4iHsXNtz8D3Us75P9JKkz5NR9RwAeoX5R3xzhEuf_3kiGyi_Qse-o9w-BQ86RmQOHkUzWpCHd3kVSPQJoHSlqU358D_YNy1?></g></svg>