<svg xmlns="http://www.w3.org/2000/svg" xmlns:xlink="http://www.w3.org/1999/xlink" contentStyleType="text/css" data-diagram-type="DESCRIPTION" height="598px" preserveAspectRatio="none" style="width:1183px;height:598px;background:#FFFFFF;" version="1.1" viewBox="0 0 1183 598" width="1183px" zoomAndPan="magnify"><?plantuml 1.2026.3beta5?><defs/><g><g class="title" data-source-line="5"><text fill="#000000" font-family="sans-serif" font-size="14" font-weight="700" lengthAdjust="spacing" textLength="534.7617" x="321.0742" y="22.9951">Customer Support Automation - System Architecture (Logical View)</text></g><!--entity Customer--><g class="entity" data-qualified-name="Customer" data-source-line="7" id="ent0002"><ellipse cx="421.612" cy="51.2969" fill="#F1F1F1" rx="8" ry="8" style="stroke:#181818;stroke-width:0.5;"/><path d="M421.612,59.2969 L421.612,86.2969 M408.612,67.2969 L434.612,67.2969 M421.612,86.2969 L408.612,101.2969 M421.612,86.2969 L434.612,101.2969" fill="none" style="stroke:#181818;stroke-width:0.5;"/><text fill="#000000" font-family="sans-serif" font-size="14" lengthAdjust="spacing" textLength="68.0039" x="387.61" y="115.792">Customer</text></g><!--entity Agent--><g class="entity" data-qualified-name="Agent" data-source-line="8" id="ent0003"><ellipse cx="56.6167" cy="517.9669" fill="#F1F1F1" rx="8" ry="8" style="stroke:#181818;stroke-width:0.5;"/><path d="M56.6167,525.9669 L56.6167,552.9669 M43.6167,533.9669 L69.6167,533.9669 M56.6167,552.9669 L43.6167,567.9669 M56.6167,552.9669 L69.6167,567.9669" fill="none" style="stroke:#181818;stroke-width:0.5;"/><text fill="#000000" font-family="sans-serif" font-size="14" lengthAdjust="spacing" textLength="101.2334" x="6" y="582.462">Support Agent</text></g><!--entity Manager--><g class="entity" data-qualified-name="Manager" data-source-line="9" id="ent0004"><ellipse cx="579.6201" cy="187.5969" fill="#F1F1F1" rx="8" ry="8" style="stroke:#181818;stroke-width:0.5;"/><path d="M579.6201,195.5969 L579.6201,222.5969 M566.6201,203.5969 L592.6201,203.5969 M579.6201,222.5969 L566.6201,237.5969 M579.6201,222.5969 L592.6201,237.5969" fill="none" style="stroke:#181818;stroke-width:0.5;"/><text fill="#000000" font-family="sans-serif" font-size="14" lengthAdjust="spacing" textLength="121.1602" x="519.04" y="252.092">Support Manager</text></g><!--entity SMTP--><g class="entity" data-qualified-name="SMTP" data-source-line="11" id="ent0005"><rect fill="#F1F1F1" height="36.2969" rx="2.5" ry="2.5" style="stroke:#181818;stroke-width:0.5;" width="124.2549" x="359.49" y="199.0969"/><text fill="#000000" font-family="sans-serif" font-size="14" lengthAdjust="spacing" textLength="104.2549" x="369.49" y="222.092">SMTP Gateway</text></g><!--entity Services--><g class="entity" data-qualified-name="Services" data-source-line="12" id="ent0006"><rect fill="#F1F1F1" height="134.0781" rx="2.5" ry="2.5" style="stroke:#181818;stroke-width:0.5;" width="161.709" x="419.76" y="315.3869"/><text fill="#000000" font-family="sans-serif" font-size="14" lengthAdjust="spacing" textLength="141.709" x="429.76" y="338.382">Application Services</text><text fill="#000000" font-family="sans-serif" font-size="14" lengthAdjust="spacing" textLength="65.8301" x="429.76" y="354.6789">- Listener</text><text fill="#000000" font-family="sans-serif" font-size="14" lengthAdjust="spacing" textLength="53.7783" x="429.76" y="370.9757">- Triage</text><text fill="#000000" font-family="sans-serif" font-size="14" lengthAdjust="spacing" textLength="105.3965" x="429.76" y="387.2726">- Orchestration</text><text fill="#000000" font-family="sans-serif" font-size="14" lengthAdjust="spacing" textLength="90.043" x="429.76" y="403.5695">- Ticket Sync</text><text fill="#000000" font-family="sans-serif" font-size="14" lengthAdjust="spacing" textLength="119.8477" x="429.76" y="419.8664">- Communication</text><text fill="#000000" font-family="sans-serif" font-size="14" lengthAdjust="spacing" textLength="80.9648" x="429.76" y="436.1632">- Admin API</text></g><!--entity MondayAdapter--><g class="entity" data-qualified-name="MondayAdapter" data-source-line="13" id="ent0007"><rect fill="#F1F1F1" height="36.2969" rx="2.5" ry="2.5" style="stroke:#181818;stroke-width:0.5;" width="169.8574" x="142.69" y="529.4669"/><text fill="#000000" font-family="sans-serif" font-size="14" lengthAdjust="spacing" textLength="149.8574" x="152.69" y="552.462">Monday.com Adapter</text></g><!--entity ClaudeAdapter--><g class="entity" data-qualified-name="ClaudeAdapter" data-source-line="14" id="ent0008"><rect fill="#F1F1F1" height="36.2969" rx="2.5" ry="2.5" style="stroke:#181818;stroke-width:0.5;" width="128.8555" x="347.19" y="529.4669"/><text fill="#000000" font-family="sans-serif" font-size="14" lengthAdjust="spacing" textLength="108.8555" x="357.19" y="552.462">Claude Adapter</text></g><!--entity Redis--><g class="entity" data-qualified-name="Redis" data-source-line="16" id="ent0009"><rect fill="#F1F1F1" height="36.2969" rx="2.5" ry="2.5" style="stroke:#181818;stroke-width:0.5;" width="157.1084" x="511.06" y="529.4669"/><text fill="#000000" font-family="sans-serif" font-size="14" lengthAdjust="spacing" textLength="137.1084" x="521.06" y="552.462">Redis Queue/Cache</text></g><!--entity Mongo--><g class="entity" data-qualified-name="Mongo" data-source-line="17" id="ent0010"><path d="M702.94,534.9669 C702.94,524.9669 746.6172,524.9669 746.6172,524.9669 C746.6172,524.9669 790.2945,524.9669 790.2945,534.9669 L790.2945,560.2638 C790.2945,570.2638 746.6172,570.2638 746.6172,570.2638 C746.6172,570.2638 702.94,570.2638 702.94,560.2638 L702.94,534.9669" fill="#F1F1F1" style="stroke:#181818;stroke-width:0.5;"/><path d="M702.94,534.9669 C702.94,544.9669 746.6172,544.9669 746.6172,544.9669 C746.6172,544.9669 790.2945,544.9669 790.2945,534.9669" fill="none" style="stroke:#181818;stroke-width:0.5;"/><text fill="#000000" font-family="sans-serif" font-size="14" lengthAdjust="spacing" textLength="67.3545" x="712.94" y="561.962">MongoDB</text></g><!--entity Secrets--><g class="entity" data-qualified-name="Secrets" data-source-line="18" id="ent0011"><rect fill="#F1F1F1" height="36.2969" rx="2.5" ry="2.5" style="stroke:#181818;stroke-width:0.5;" width="130.8721" x="825.18" y="529.4669"/><text fill="#000000" font-family="sans-serif" font-size="14" lengthAdjust="spacing" textLength="110.8721" x="835.18" y="552.462">Secret Manager</text></g><!--entity Obs--><g class="entity" data-qualified-name="Obs" data-source-line="19" id="ent0012"><rect fill="#F1F1F1" height="52.5938" rx="2.5" ry="2.5" style="stroke:#181818;stroke-width:0.5;" width="178.5801" x="991.33" y="521.3169"/><text fill="#000000" font-family="sans-serif" font-size="14" lengthAdjust="spacing" textLength="92.7637" x="1001.33" y="544.312">Observability</text><text fill="#000000" font-family="sans-serif" font-size="14" lengthAdjust="spacing" textLength="158.5801" x="1001.33" y="560.6089">(Logs, Metrics, Traces)</text></g><!--link Customer to SMTP--><g class="link" data-entity-1="ent0002" data-entity-2="ent0005" data-link-type="dependency" data-source-line="21" id="lnk13"><path d="M410.28,119.2769 C410.28,145.2569 410.28,172.4469 410.28,192.7569" fill="none" id="Customer-to-SMTP" style="stroke:#181818;stroke-width:1;"/><polygon fill="#181818" points="410.28,198.7569,414.28,189.7569,410.28,193.7569,406.28,189.7569,410.28,198.7569" style="stroke:#181818;stroke-width:1;"/><text fill="#000000" font-family="sans-serif" font-size="13" lengthAdjust="spacing" textLength="103.7461" x="306.28" y="155.0838">support request</text></g><!--link SMTP to Customer--><g class="link" data-entity-1="ent0005" data-entity-2="ent0002" data-link-type="dependency" data-source-line="33" id="lnk24"><path d="M432.95,198.8569 C432.95,178.5869 432.95,151.3969 432.95,125.3869" fill="none" id="SMTP-to-Customer" style="stroke:#181818;stroke-width:1;"/><polygon fill="#181818" points="432.95,119.3869,428.95,128.3869,432.95,124.3869,436.95,128.3869,432.95,119.3869" style="stroke:#181818;stroke-width:1;"/><text fill="#000000" font-family="sans-serif" font-size="13" lengthAdjust="spacing" textLength="176.5347" x="255.95" y="172.1938">acknowledgement/updates</text></g><!--link SMTP to Services--><g class="link" data-entity-1="ent0005" data-entity-2="ent0006" data-link-type="dependency" data-source-line="22" id="lnk14"><path d="M451.75,235.8669 C451.75,255.1069 451.75,280.2769 451.75,308.9369" fill="none" id="SMTP-to-Services" style="stroke:#181818;stroke-width:1;"/><polygon fill="#181818" points="451.75,314.9369,455.75,305.9369,451.75,309.9369,447.75,305.9369,451.75,314.9369" style="stroke:#181818;stroke-width:1;"/><text fill="#000000" font-family="sans-serif" font-size="13" lengthAdjust="spacing" textLength="151.3789" x="299.75" y="271.4738">inbound/outbound mail</text></g><!--link Services to ClaudeAdapter--><g class="link" data-entity-1="ent0006" data-entity-2="ent0008" data-link-type="dependency" data-source-line="23" id="lnk15"><path d="M461.97,449.6169 C461.97,478.3769 461.97,503.7269 461.97,523.0269" fill="none" id="Services-to-ClaudeAdapter" style="stroke:#181818;stroke-width:1;"/><polygon fill="#181818" points="461.97,529.0269,465.97,520.0269,461.97,524.0269,457.97,520.0269,461.97,529.0269" style="stroke:#181818;stroke-width:1;"/><text fill="#000000" font-family="sans-serif" font-size="13" lengthAdjust="spacing" textLength="71.5127" x="389.97" y="485.3938">triage calls</text></g><!--link Services to MondayAdapter--><g class="link" data-entity-1="ent0006" data-entity-2="ent0007" data-link-type="dependency" data-source-line="24" id="lnk16"><path d="M419.45,382.7669 C338.97,382.7669 227.62,382.7669 227.62,382.7669 C227.62,382.7669 227.62,479.9169 227.62,523.0269" fill="none" id="Services-to-MondayAdapter" style="stroke:#181818;stroke-width:1;"/><polygon fill="#181818" points="227.62,529.0269,231.62,520.0269,227.62,524.0269,223.62,520.0269,227.62,529.0269" style="stroke:#181818;stroke-width:1;"/><text fill="#000000" font-family="sans-serif" font-size="13" lengthAdjust="spacing" textLength="103.708" x="146.4" y="378.8338">ticket sync calls</text></g><!--link Services to Redis--><g class="link" data-entity-1="ent0006" data-entity-2="ent0009" data-link-type="dependency" data-source-line="25" id="lnk17"><path d="M546.27,449.6169 C546.27,478.3769 546.27,503.7269 546.27,523.0269" fill="none" id="Services-to-Redis" style="stroke:#181818;stroke-width:1;"/><polygon fill="#181818" points="546.27,529.0269,550.27,520.0269,546.27,524.0269,542.27,520.0269,546.27,529.0269" style="stroke:#181818;stroke-width:1;"/><text fill="#000000" font-family="sans-serif" font-size="13" lengthAdjust="spacing" textLength="85.7505" x="547.27" y="485.3938">async events</text></g><!--link Services to Mongo--><g class="link" data-entity-1="ent0006" data-entity-2="ent0010" data-link-type="dependency" data-source-line="26" id="lnk18"><path d="M581.85,416.7669 C653.5,416.7669 746.62,416.7669 746.62,416.7669 C746.62,416.7669 746.62,480.9569 746.62,518.5269" fill="none" id="Services-to-Mongo" style="stroke:#181818;stroke-width:1;"/><polygon fill="#181818" points="746.62,524.5269,750.62,515.5269,746.62,519.5269,742.62,515.5269,746.62,524.5269" style="stroke:#181818;stroke-width:1;"/><text fill="#000000" font-family="sans-serif" font-size="13" lengthAdjust="spacing" textLength="132.2344" x="585.11" y="412.8338">state and audit data</text></g><!--link Services to Secrets--><g class="link" data-entity-1="ent0006" data-entity-2="ent0011" data-link-type="dependency" data-source-line="27" id="lnk19"><path d="M581.9,382.7669 C696.2,382.7669 890.62,382.7669 890.62,382.7669 C890.62,382.7669 890.62,479.9169 890.62,523.0269" fill="none" id="Services-to-Secrets" style="stroke:#181818;stroke-width:1;"/><polygon fill="#181818" points="890.62,529.0269,894.62,520.0269,890.62,524.0269,886.62,520.0269,890.62,529.0269" style="stroke:#181818;stroke-width:1;"/><text fill="#000000" font-family="sans-serif" font-size="13" lengthAdjust="spacing" textLength="72.0396" x="736.39" y="378.8338">credentials</text></g><!--link Services to Obs--><g class="link" data-entity-1="ent0006" data-entity-2="ent0012" data-link-type="dependency" data-source-line="28" id="lnk20"><path d="M581.87,349.7669 C741.5,349.7669 1080.62,349.7669 1080.62,349.7669 C1080.62,349.7669 1080.62,460.9269 1080.62,514.9369" fill="none" id="Services-to-Obs" style="stroke:#181818;stroke-width:1;"/><polygon fill="#181818" points="1080.62,520.9369,1084.62,511.9369,1080.62,515.9369,1076.62,511.9369,1080.62,520.9369" style="stroke:#181818;stroke-width:1;"/><text fill="#000000" font-family="sans-serif" font-size="13" lengthAdjust="spacing" textLength="63.502" x="852.83" y="345.8338">telemetry</text></g><!--link Services to Agent--><g class="link" data-entity-1="ent0006" data-entity-2="ent0003" data-link-type="dependency" data-source-line="30" id="lnk21"><path d="M447.9,449.7069 C447.9,483.6669 447.9,517.7669 447.9,517.7669 C447.9,517.7669 219.24,517.7669 113.37,517.7669" fill="none" id="Services-to-Agent" style="stroke:#181818;stroke-width:1;"/><polygon fill="#181818" points="107.37,517.7669,116.37,521.7669,112.37,517.7669,116.37,513.7669,107.37,517.7669" style="stroke:#181818;stroke-width:1;"/><text fill="#000000" font-family="sans-serif" font-size="13" lengthAdjust="spacing" textLength="180.6353" x="312.67" y="513.8338">escalation and review tasks</text></g><!--link Agent to Services--><g class="link" data-entity-1="ent0003" data-entity-2="ent0006" data-link-type="dependency" data-source-line="31" id="lnk22"><path d="M107.49,513.7669 C210.45,513.7669 433.83,513.7669 433.83,513.7669 C433.83,513.7669 433.83,487.9469 433.83,455.6369" fill="none" id="Agent-to-Services" style="stroke:#181818;stroke-width:1;"/><polygon fill="#181818" points="433.83,449.6369,429.83,458.6369,433.83,454.6369,437.83,458.6369,433.83,449.6369" style="stroke:#181818;stroke-width:1;"/><text fill="#000000" font-family="sans-serif" font-size="13" lengthAdjust="spacing" textLength="112.0361" x="189.73" y="509.8338">approve/override</text></g><!--link Manager to Services--><g class="link" data-entity-1="ent0004" data-entity-2="ent0006" data-link-type="dependency" data-source-line="32" id="lnk23"><path d="M550.25,255.5569 C550.25,273.2869 550.25,288.8769 550.25,309.1869" fill="none" id="Manager-to-Services" style="stroke:#181818;stroke-width:1;"/><polygon fill="#181818" points="550.25,315.1869,554.25,306.1869,550.25,310.1869,546.25,306.1869,550.25,315.1869" style="stroke:#181818;stroke-width:1;"/><text fill="#000000" font-family="sans-serif" font-size="13" lengthAdjust="spacing" textLength="103.873" x="446.25" y="298.4338">SLA and reports</text></g><?plantuml-src TPF1Rjim38RlUWgYfnLObdiF0xmCA0OaQBS4E_N2o8GhH9OqYKhWjnybEqQyPeSW5FM9-lbJPX-0FHmzi--XDP4q6-zKEXaNC68FslV1EtAyvy4I501TP-a6iSOH3u70HtxtIh5X8JSvIKsAiCyXo0uqMTPOoiCAzaDYwg69-jsmrCoHuDFMTqQZXT-6BezAeMOVvphJyc4kruce1y0qHlzkxz1XHx42KwpKt8nmkyChF2FJ1OSAbSGjq8HWHKtLkwTuDfhIcrl1reXoHx74XsYaS8bUf15A72jVjum-4KkVJfVbnlTzTbEzacZQtZXeNd-CbqyNt0hOUTVYy4Ko0cFWQpCrFMLk-Ot5tDA27LDNzXR-HQr9y3DJflK6HNlbQrQro7Z4H5L2vxz_kzxR-OM3f2CjZHvJYovUZabwmwEnXeStLsQSFiEEE1ejmI6YjFrOJmkgrFniLgs_kDNNEXTuWZJDDTAVB4QhcfwPoJxXZ3lwxDgrprm3wD5ODGFN4mjdv1ZNIOAyFfi-qWlF2pqEDybm_tTaDFX9-YeGdSMC-uKxNxfZUOc08bTa6OOoWe_qPA_myjzAHOFthXOVYqQor8lDW_f8r2z664gYVdpYvUv8P_doW36TaXgPEmvZ2D6VQIs_64rBQde1zzZzjfagb-6bvTJcKKjDVNB-OgdjHBFZTGxY0AM_?></g></svg>