<svg xmlns="http://www.w3.org/2000/svg" xmlns:xlink="http://www.w3.org/1999/xlink" contentStyleType="text/css" data-diagram-type="DESCRIPTION" height="1104px" preserveAspectRatio="none" style="width:1440px;height:1104px;background:#FFFFFF;" version="1.1" viewBox="0 0 1440 1104" width="1440px" zoomAndPan="magnify"><?plantuml 1.2026.3beta5?><defs/><g><g class="title" data-source-line="5"><text fill="#000000" font-family="sans-serif" font-size="14" font-weight="700" lengthAdjust="spacing" textLength="400.0322" x="516.5806" y="22.9951">Customer Support Automation - Use Case Diagram</text></g><!--cluster Customer Support Automation Platform--><g class="cluster" data-qualified-name="Customer Support Automation Platform" data-source-line="11" id="ent0005"><rect fill="none" height="923.33" rx="2.5" ry="2.5" style="stroke:#181818;stroke-width:1;" width="1164" x="143.58" y="167.0969"/><text fill="#000000" font-family="sans-serif" font-size="14" font-weight="700" lengthAdjust="spacing" textLength="314.4258" x="568.3671" y="182.092">Customer Support Automation Platform</text></g><!--entity UC_Submit--><g class="entity" data-qualified-name="Customer Support Automation Platform.UC_Submit" data-source-line="12" id="ent0006"><ellipse cx="269.5813" cy="226.4011" fill="#F1F1F1" rx="109.5213" ry="24.3043" style="stroke:#181818;stroke-width:0.5;"/><text fill="#000000" font-family="sans-serif" font-size="14" lengthAdjust="spacing" textLength="171.4043" x="183.8792" y="226.5458">Submit Support Request</text><text fill="#000000" font-family="sans-serif" font-size="14" lengthAdjust="spacing" textLength="74.9697" x="232.0964" y="242.8427">(via Email)</text></g><!--entity UC_Ack--><g class="entity" data-qualified-name="Customer Support Automation Platform.UC_Ack" data-source-line="13" id="ent0007"><ellipse cx="520.5831" cy="226.3995" fill="#F1F1F1" rx="106.2131" ry="23.6426" style="stroke:#181818;stroke-width:0.5;"/><text fill="#000000" font-family="sans-serif" font-size="14" lengthAdjust="spacing" textLength="189.6631" x="425.7516" y="231.0479">Receive Acknowledgement</text></g><!--entity UC_Details--><g class="entity" data-qualified-name="Customer Support Automation Platform.UC_Details" data-source-line="14" id="ent0008"><ellipse cx="755.5751" cy="226.3979" fill="#F1F1F1" rx="93.7051" ry="21.141" style="stroke:#181818;stroke-width:0.5;"/><text fill="#000000" font-family="sans-serif" font-size="14" lengthAdjust="spacing" textLength="162.0801" x="674.5351" y="231.0463">Provide Missing Details</text></g><!--entity UC_Status--><g class="entity" data-qualified-name="Customer Support Automation Platform.UC_Status" data-source-line="15" id="ent0009"><ellipse cx="980.5758" cy="226.394" fill="#F1F1F1" rx="95.8858" ry="21.5772" style="stroke:#181818;stroke-width:0.5;"/><text fill="#000000" font-family="sans-serif" font-size="14" lengthAdjust="spacing" textLength="166.9473" x="897.1022" y="231.0425">Receive Status Updates</text></g><!--entity UC_Resolved--><g class="entity" data-qualified-name="Customer Support Automation Platform.UC_Resolved" data-source-line="16" id="ent0010"><ellipse cx="1201.5778" cy="226.3934" fill="#F1F1F1" rx="90.2978" ry="24.2865" style="stroke:#181818;stroke-width:0.5;"/><text fill="#000000" font-family="sans-serif" font-size="14" lengthAdjust="spacing" textLength="133.6699" x="1134.7429" y="225.4962">Receive Resolution</text><text fill="#000000" font-family="sans-serif" font-size="14" lengthAdjust="spacing" textLength="80.3291" x="1161.4133" y="241.7931">Notification</text></g><!--entity UC_Ingest--><g class="entity" data-qualified-name="Customer Support Automation Platform.UC_Ingest" data-source-line="18" id="ent0011"><ellipse cx="666.5753" cy="366.3594" fill="#F1F1F1" rx="83.1653" ry="25.2926" style="stroke:#181818;stroke-width:0.5;"/><text fill="#000000" font-family="sans-serif" font-size="14" lengthAdjust="spacing" textLength="117.209" x="607.9708" y="363.9455">Ingest and Parse</text><text fill="#000000" font-family="sans-serif" font-size="14" lengthAdjust="spacing" textLength="100.3789" x="616.3858" y="380.2423">Inbound Email</text></g><!--entity UC_Triage--><g class="entity" data-qualified-name="Customer Support Automation Platform.UC_Triage" data-source-line="19" id="ent0012"><ellipse cx="666.5846" cy="507.1953" fill="#F1F1F1" rx="91.6546" ry="25.1184" style="stroke:#181818;stroke-width:0.5;"/><text fill="#000000" font-family="sans-serif" font-size="14" lengthAdjust="spacing" textLength="130.6416" x="601.2638" y="505.0377">Classify Intent and</text><text fill="#000000" font-family="sans-serif" font-size="14" lengthAdjust="spacing" textLength="106.9756" x="613.0968" y="521.3346">Extract Entities</text></g><!--entity UC_Ticket--><g class="entity" data-qualified-name="Customer Support Automation Platform.UC_Ticket" data-source-line="20" id="ent0013"><ellipse cx="911.5807" cy="635.1081" fill="#F1F1F1" rx="94.3307" ry="24.8213" style="stroke:#181818;stroke-width:0.5;"/><text fill="#000000" font-family="sans-serif" font-size="14" lengthAdjust="spacing" textLength="102.2451" x="860.4582" y="629.8226">Create/Update</text><text fill="#000000" font-family="sans-serif" font-size="14" lengthAdjust="spacing" textLength="136.418" x="843.3718" y="646.1195">Monday.com Ticket</text></g><!--entity UC_Thread--><g class="entity" data-qualified-name="Customer Support Automation Platform.UC_Thread" data-source-line="21" id="ent0014"><ellipse cx="870.5767" cy="507.1934" fill="#F1F1F1" rx="77.7767" ry="24.3865" style="stroke:#181818;stroke-width:0.5;"/><text fill="#000000" font-family="sans-serif" font-size="14" lengthAdjust="spacing" textLength="113.9619" x="813.5957" y="506.1412">Maintain Thread</text><text fill="#000000" font-family="sans-serif" font-size="14" lengthAdjust="spacing" textLength="72.0029" x="834.5752" y="522.4381">Continuity</text></g><!--entity UC_FollowUp--><g class="entity" data-qualified-name="Customer Support Automation Platform.UC_FollowUp" data-source-line="22" id="ent0015"><ellipse cx="715.5806" cy="715.2981" fill="#F1F1F1" rx="73.4106" ry="24.4612" style="stroke:#181818;stroke-width:0.5;"/><text fill="#000000" font-family="sans-serif" font-size="14" lengthAdjust="spacing" textLength="106.9346" x="662.1133" y="714.1309">Send Follow-up</text><text fill="#000000" font-family="sans-serif" font-size="14" lengthAdjust="spacing" textLength="69.9111" x="680.625" y="730.4278">Questions</text></g><!--entity UC_Comm--><g class="entity" data-qualified-name="Customer Support Automation Platform.UC_Comm" data-source-line="23" id="ent0016"><ellipse cx="911.5809" cy="1048.7984" fill="#F1F1F1" rx="88.6609" ry="25.6315" style="stroke:#181818;stroke-width:0.5;"/><text fill="#000000" font-family="sans-serif" font-size="14" lengthAdjust="spacing" textLength="114.0303" x="854.5658" y="1044.705">Send Structured</text><text fill="#000000" font-family="sans-serif" font-size="14" lengthAdjust="spacing" textLength="123.3682" x="849.8969" y="1061.0019">Customer Replies</text></g><!--entity UC_Escalate--><g class="entity" data-qualified-name="Customer Support Automation Platform.UC_Escalate" data-source-line="24" id="ent0017"><ellipse cx="463.5757" cy="635.1022" fill="#F1F1F1" rx="112.8757" ry="25.7253" style="stroke:#181818;stroke-width:0.5;"/><text fill="#000000" font-family="sans-serif" font-size="14" lengthAdjust="spacing" textLength="148.4561" x="389.3476" y="631.1437">Escalate High-Risk or</text><text fill="#000000" font-family="sans-serif" font-size="14" lengthAdjust="spacing" textLength="157.5889" x="384.7812" y="647.4405">Low-Confidence Cases</text></g><!--entity UC_Review--><g class="entity" data-qualified-name="Customer Support Automation Platform.UC_Review" data-source-line="26" id="ent0018"><ellipse cx="1118.5756" cy="795.166" fill="#F1F1F1" rx="115.0456" ry="25.4091" style="stroke:#181818;stroke-width:0.5;"/><text fill="#000000" font-family="sans-serif" font-size="14" lengthAdjust="spacing" textLength="171.6299" x="1032.7606" y="793.5545">Review AI Summary and</text><text fill="#000000" font-family="sans-serif" font-size="14" lengthAdjust="spacing" textLength="130.9424" x="1053.1044" y="809.8514">Recommendations</text></g><!--entity UC_Override--><g class="entity" data-qualified-name="Customer Support Automation Platform.UC_Override" data-source-line="27" id="ent0019"><ellipse cx="1118.5784" cy="921.8705" fill="#F1F1F1" rx="96.1684" ry="24.2936" style="stroke:#181818;stroke-width:0.5;"/><text fill="#000000" font-family="sans-serif" font-size="14" lengthAdjust="spacing" textLength="142.6113" x="1047.2727" y="920.9623">Approve or Override</text><text fill="#000000" font-family="sans-serif" font-size="14" lengthAdjust="spacing" textLength="86.0234" x="1075.5667" y="937.2591">AI Response</text></g><!--entity UC_Close--><g class="entity" data-qualified-name="Customer Support Automation Platform.UC_Close" data-source-line="28" id="ent0020"><ellipse cx="1101.5805" cy="507.1973" fill="#F1F1F1" rx="86.7605" ry="24.2804" style="stroke:#181818;stroke-width:0.5;"/><text fill="#000000" font-family="sans-serif" font-size="14" lengthAdjust="spacing" textLength="128.29" x="1037.4355" y="506.3096">Update Ticket and</text><text fill="#000000" font-family="sans-serif" font-size="14" lengthAdjust="spacing" textLength="76.8496" x="1063.1557" y="522.6064">Close Case</text></g><!--entity UC_Monitor--><g class="entity" data-qualified-name="Customer Support Automation Platform.UC_Monitor" data-source-line="29" id="ent0021"><ellipse cx="381.5757" cy="507.1985" fill="#F1F1F1" rx="96.5557" ry="25.1916" style="stroke:#181818;stroke-width:0.5;"/><text fill="#000000" font-family="sans-serif" font-size="14" lengthAdjust="spacing" textLength="114.7207" x="324.2153" y="502.4641">Monitor SLA and</text><text fill="#000000" font-family="sans-serif" font-size="14" lengthAdjust="spacing" textLength="137.4092" x="312.8711" y="518.761">Operational Metrics</text></g><!--entity Customer--><g class="entity" data-qualified-name="Customer" data-source-line="7" id="ent0002"><ellipse cx="755.582" cy="59.2969" fill="#F1F1F1" rx="16" ry="16" style="stroke:#181818;stroke-width:0.5;"/><path d="M755.582,79.2969 C759.582,79.2969 762.582,79.2969 766.582,75.2969 C774.582,75.2969 782.582,83.2969 782.582,91.2969 L782.582,95.2969 C782.582,99.2969 778.582,103.2969 774.582,103.2969 L736.582,103.2969 C732.582,103.2969 728.582,99.2969 728.582,95.2969 L728.582,91.2969 C728.582,83.2969 736.582,75.2969 744.582,75.2969 C748.582,79.2969 751.582,79.2969 755.582,79.2969" fill="#F1F1F1" style="stroke:#181818;stroke-width:0.5;"/><text fill="#000000" font-family="sans-serif" font-size="14" lengthAdjust="spacing" textLength="68.0039" x="721.58" y="116.792">Customer</text></g><!--entity Agent--><g class="entity" data-qualified-name="Agent" data-source-line="8" id="ent0003"><ellipse cx="1374.5767" cy="344.2069" fill="#F1F1F1" rx="16" ry="16" style="stroke:#181818;stroke-width:0.5;"/><path d="M1374.5767,364.2069 C1378.5767,364.2069 1381.5767,364.2069 1385.5767,360.2069 C1393.5767,360.2069 1401.5767,368.2069 1401.5767,376.2069 L1401.5767,380.2069 C1401.5767,384.2069 1397.5767,388.2069 1393.5767,388.2069 L1355.5767,388.2069 C1351.5767,388.2069 1347.5767,384.2069 1347.5767,380.2069 L1347.5767,376.2069 C1347.5767,368.2069 1355.5767,360.2069 1363.5767,360.2069 C1367.5767,364.2069 1370.5767,364.2069 1374.5767,364.2069" fill="#F1F1F1" style="stroke:#181818;stroke-width:0.5;"/><text fill="#000000" font-family="sans-serif" font-size="14" lengthAdjust="spacing" textLength="101.2334" x="1323.96" y="401.702">Support Agent</text></g><!--entity Manager--><g class="entity" data-qualified-name="Manager" data-source-line="9" id="ent0004"><ellipse cx="66.5801" cy="344.2069" fill="#F1F1F1" rx="16" ry="16" style="stroke:#181818;stroke-width:0.5;"/><path d="M66.5801,364.2069 C70.5801,364.2069 73.5801,364.2069 77.5801,360.2069 C85.5801,360.2069 93.5801,368.2069 93.5801,376.2069 L93.5801,380.2069 C93.5801,384.2069 89.5801,388.2069 85.5801,388.2069 L47.5801,388.2069 C43.5801,388.2069 39.5801,384.2069 39.5801,380.2069 L39.5801,376.2069 C39.5801,368.2069 47.5801,360.2069 55.5801,360.2069 C59.5801,364.2069 62.5801,364.2069 66.5801,364.2069" fill="#F1F1F1" style="stroke:#181818;stroke-width:0.5;"/><text fill="#000000" font-family="sans-serif" font-size="14" lengthAdjust="spacing" textLength="121.1602" x="6" y="401.702">Support Manager</text></g><!--link Customer to UC_Submit--><g class="link" data-entity-1="ent0002" data-entity-2="ent0006" data-link-type="dependency" data-source-line="32" id="lnk22"><path d="M721.33,86.6169 C656.45,95.1869 511.85,117.5769 396.58,159.0969 C364.64,170.6069 335.839,185.6745 311.069,200.0545" fill="none" id="Customer-to-UC_Submit" style="stroke:#181818;stroke-width:1;"/><polygon fill="#181818" points="305.88,203.0669,315.6717,202.0076,310.2041,200.5565,311.6552,195.0889,305.88,203.0669" style="stroke:#181818;stroke-width:1;"/></g><!--link Customer to UC_Details--><g class="link" data-entity-1="ent0002" data-entity-2="ent0008" data-link-type="dependency" data-source-line="33" id="lnk23"><path d="M755.58,120.3769 C755.58,147.5169 755.58,176.9769 755.58,198.9669" fill="none" id="Customer-to-UC_Details" style="stroke:#181818;stroke-width:1;"/><polygon fill="#181818" points="755.58,204.9669,759.58,195.9669,755.58,199.9669,751.58,195.9669,755.58,204.9669" style="stroke:#181818;stroke-width:1;"/></g><!--link Customer to UC_Ack--><g class="link" data-entity-1="ent0002" data-entity-2="ent0007" data-link-type="dependency" data-source-line="34" id="lnk24"><path d="M721.16,103.3869 C677.05,130.2169 606.0756,173.3879 561.3756,200.5879" fill="none" id="Customer-to-UC_Ack" style="stroke:#181818;stroke-width:1;"/><polygon fill="#181818" points="556.25,203.7069,566.0178,202.4455,560.5214,201.1077,561.8591,195.6114,556.25,203.7069" style="stroke:#181818;stroke-width:1;"/></g><!--link Customer to UC_Status--><g class="link" data-entity-1="ent0002" data-entity-2="ent0009" data-link-type="dependency" data-source-line="35" id="lnk25"><path d="M789.75,104.1569 C833.15,131.7269 902.3455,175.6995 944.2955,202.3495" fill="none" id="Customer-to-UC_Status" style="stroke:#181818;stroke-width:1;"/><polygon fill="#181818" points="949.36,205.5669,943.9082,197.3646,945.1396,202.8858,939.6184,204.1172,949.36,205.5669" style="stroke:#181818;stroke-width:1;"/></g><!--link Customer to UC_Resolved--><g class="link" data-entity-1="ent0002" data-entity-2="ent0010" data-link-type="dependency" data-source-line="36" id="lnk26"><path d="M789.79,86.4369 C852.09,94.5269 987.42,115.8569 1093.58,159.0969 C1121.5,170.4669 1145.5247,185.2447 1166.4247,199.6947" fill="none" id="Customer-to-UC_Resolved" style="stroke:#181818;stroke-width:1;"/><polygon fill="#181818" points="1171.36,203.1069,1166.2319,194.6984,1167.2473,200.2634,1161.6823,201.2788,1171.36,203.1069" style="stroke:#181818;stroke-width:1;"/></g><!--link Agent to UC_Review--><g class="link" data-entity-1="ent0003" data-entity-2="ent0018" data-link-type="dependency" data-source-line="38" id="lnk27"><path d="M1323.75,401.0369 C1311.21,410.9569 1298.53,422.5269 1288.58,435.0069 C1200.84,545.0369 1146.7552,702.0455 1127.6852,763.6155" fill="none" id="Agent-to-UC_Review" style="stroke:#181818;stroke-width:1;"/><polygon fill="#181818" points="1125.91,769.3469,1132.3937,761.9332,1127.3893,764.5707,1124.7518,759.5664,1125.91,769.3469" style="stroke:#181818;stroke-width:1;"/></g><!--link Agent to UC_Override--><g class="link" data-entity-1="ent0003" data-entity-2="ent0019" data-link-type="dependency" data-source-line="39" id="lnk28"><path d="M1348.26,405.2669 C1332.14,432.1669 1314.58,469.8269 1314.58,506.1969 C1314.58,506.1969 1314.58,506.1969 1314.58,796.1669 C1314.58,856.7669 1252.815,887.4897 1197.035,903.9397" fill="none" id="Agent-to-UC_Override" style="stroke:#181818;stroke-width:1;"/><polygon fill="#181818" points="1191.28,905.6369,1201.0439,906.9277,1196.0758,904.2226,1198.781,899.2545,1191.28,905.6369" style="stroke:#181818;stroke-width:1;"/></g><!--link Agent to UC_Close--><g class="link" data-entity-1="ent0003" data-entity-2="ent0020" data-link-type="dependency" data-source-line="40" id="lnk29"><path d="M1323.52,397.3669 C1318.21,400.0869 1312.83,402.6869 1307.58,405.0069 C1268.61,422.1769 1255.17,417.0069 1216.58,435.0069 C1186.79,448.8969 1160.157,465.5211 1137.637,480.7811" fill="none" id="Agent-to-UC_Close" style="stroke:#181818;stroke-width:1;"/><polygon fill="#181818" points="1132.67,484.1469,1142.3644,482.4096,1136.8092,481.3421,1137.8767,475.7869,1132.67,484.1469" style="stroke:#181818;stroke-width:1;"/></g><!--link Manager to UC_Monitor--><g class="link" data-entity-1="ent0004" data-entity-2="ent0021" data-link-type="dependency" data-source-line="42" id="lnk30"><path d="M127.38,397.4469 C132.84,400.0369 138.3,402.5869 143.58,405.0069 C207.5,434.1869 276.662,463.2221 325.082,483.1621" fill="none" id="Manager-to-UC_Monitor" style="stroke:#181818;stroke-width:1;"/><polygon fill="#181818" points="330.63,485.4469,323.8312,478.3211,326.0067,483.5429,320.7849,485.7184,330.63,485.4469" style="stroke:#181818;stroke-width:1;"/></g><!--link Manager to UC_Escalate--><g class="link" data-entity-1="ent0004" data-entity-2="ent0017" data-link-type="dependency" data-source-line="43" id="lnk31"><path d="M107.71,405.4769 C147.01,440.8069 208.78,493.6069 267.58,532.3869 C314.94,563.6269 367.6162,590.2026 408.2162,609.2126" fill="none" id="Manager-to-UC_Escalate" style="stroke:#181818;stroke-width:1;"/><polygon fill="#181818" points="413.65,611.7569,407.1954,604.3179,409.1218,609.6366,403.803,611.563,413.65,611.7569" style="stroke:#181818;stroke-width:1;"/></g><!--link UC_Submit to UC_Ingest--><g class="link" data-entity-1="ent0006" data-entity-2="ent0011" data-link-type="dependency" data-source-line="45" id="lnk32"><path d="M327.31,247.4569 C403.97,274.0969 532.6925,318.8274 607.2525,344.7374" fill="none" id="UC_Submit-to-UC_Ingest" style="stroke:#181818;stroke-width:1;stroke-dasharray:7,7;"/><polygon fill="#181818" points="612.92,346.7069,605.7317,339.9743,608.197,345.0656,603.1057,347.531,612.92,346.7069" style="stroke:#181818;stroke-width:1;"/><text fill="#000000" font-family="sans-serif" font-size="13" lengthAdjust="spacing" textLength="63.0068" x="468.58" y="293.7738">&#171;include&#187;</text></g><!--link UC_Ingest to UC_Triage--><g class="link" data-entity-1="ent0011" data-entity-2="ent0012" data-link-type="dependency" data-source-line="46" id="lnk33"><path d="M666.58,391.8569 C666.58,417.2369 666.58,450.6469 666.58,475.9369" fill="none" id="UC_Ingest-to-UC_Triage" style="stroke:#181818;stroke-width:1;stroke-dasharray:7,7;"/><polygon fill="#181818" points="666.58,481.9369,670.58,472.9369,666.58,476.9369,662.58,472.9369,666.58,481.9369" style="stroke:#181818;stroke-width:1;"/><text fill="#000000" font-family="sans-serif" font-size="13" lengthAdjust="spacing" textLength="63.0068" x="667.58" y="448.0738">&#171;include&#187;</text></g><!--link UC_Triage to UC_Ticket--><g class="link" data-entity-1="ent0012" data-entity-2="ent0013" data-link-type="dependency" data-source-line="47" id="lnk34"><path d="M708.7,529.8369 C753.71,552.9769 819.3139,586.6835 864.2639,609.7935" fill="none" id="UC_Triage-to-UC_Ticket" style="stroke:#181818;stroke-width:1;stroke-dasharray:7,7;"/><polygon fill="#181818" points="869.6,612.5369,863.4248,604.8644,865.1533,610.2507,859.7669,611.9791,869.6,612.5369" style="stroke:#181818;stroke-width:1;"/><text fill="#000000" font-family="sans-serif" font-size="13" lengthAdjust="spacing" textLength="63.0068" x="804.58" y="575.4538">&#171;include&#187;</text></g><!--link UC_Ingest to UC_Thread--><g class="link" data-entity-1="ent0011" data-entity-2="ent0014" data-link-type="dependency" data-source-line="48" id="lnk35"><path d="M699.81,389.9669 C738.2,416.0969 795.95,455.4007 833.75,481.1307" fill="none" id="UC_Ingest-to-UC_Thread" style="stroke:#181818;stroke-width:1;stroke-dasharray:7,7;"/><polygon fill="#181818" points="838.71,484.5069,833.5208,476.1359,834.5767,481.6934,829.0192,482.7492,838.71,484.5069" style="stroke:#181818;stroke-width:1;"/><text fill="#000000" font-family="sans-serif" font-size="13" lengthAdjust="spacing" textLength="63.0068" x="787.58" y="448.0738">&#171;include&#187;</text></g><!--link UC_Triage to UC_FollowUp--><g class="link" data-entity-1="ent0012" data-entity-2="ent0015" data-link-type="dependency" data-source-line="49" id="lnk36"><path d="M672.39,532.6469 C681.87,572.5269 699.1621,645.2296 708.5421,684.6796" fill="none" id="UC_Triage-to-UC_FollowUp" style="stroke:#181818;stroke-width:1;stroke-dasharray:7,7;"/><polygon fill="#181818" points="709.93,690.5169,711.7396,680.8357,708.7734,685.6525,703.9566,682.6863,709.93,690.5169" style="stroke:#181818;stroke-width:1;"/><text fill="#000000" font-family="sans-serif" font-size="13" lengthAdjust="spacing" textLength="61.1851" x="683.58" y="575.4538">&#171;extend&#187;</text></g><!--link UC_FollowUp to UC_Comm--><g class="link" data-entity-1="ent0015" data-entity-2="ent0016" data-link-type="dependency" data-source-line="50" id="lnk37"><path d="M729.05,739.6769 C746.24,769.4469 776.93,822.4469 803.58,867.5769 C836.5,923.3269 872.588,983.271 893.528,1017.941" fill="none" id="UC_FollowUp-to-UC_Comm" style="stroke:#181818;stroke-width:1;stroke-dasharray:7,7;"/><polygon fill="#181818" points="896.63,1023.0769,895.401,1013.305,894.045,1018.7969,888.5531,1017.441,896.63,1023.0769" style="stroke:#181818;stroke-width:1;"/><text fill="#000000" font-family="sans-serif" font-size="13" lengthAdjust="spacing" textLength="63.0068" x="804.58" y="863.6438">&#171;include&#187;</text></g><!--link UC_Ticket to UC_Comm--><g class="link" data-entity-1="ent0013" data-entity-2="ent0016" data-link-type="dependency" data-source-line="51" id="lnk38"><path d="M911.58,660.3269 C911.58,733.0569 911.58,943.1169 911.58,1016.8269" fill="none" id="UC_Ticket-to-UC_Comm" style="stroke:#181818;stroke-width:1;stroke-dasharray:7,7;"/><polygon fill="#181818" points="911.58,1022.8269,915.58,1013.8269,911.58,1017.8269,907.58,1013.8269,911.58,1022.8269" style="stroke:#181818;stroke-width:1;"/><text fill="#000000" font-family="sans-serif" font-size="13" lengthAdjust="spacing" textLength="63.0068" x="912.58" y="863.6438">&#171;include&#187;</text></g><!--link UC_Triage to UC_Escalate--><g class="link" data-entity-1="ent0012" data-entity-2="ent0017" data-link-type="dependency" data-source-line="52" id="lnk39"><path d="M628.32,530.2569 C611.71,539.9569 592.09,551.5769 574.58,562.3869 C549.3,577.9869 526.2107,592.8817 504.6007,607.0217" fill="none" id="UC_Triage-to-UC_Escalate" style="stroke:#181818;stroke-width:1;stroke-dasharray:7,7;"/><polygon fill="#181818" points="499.58,610.3069,509.3012,608.7262,503.7639,607.5692,504.9209,602.032,499.58,610.3069" style="stroke:#181818;stroke-width:1;"/><text fill="#000000" font-family="sans-serif" font-size="13" lengthAdjust="spacing" textLength="61.1851" x="575.58" y="575.4538">&#171;extend&#187;</text></g><!--link UC_Escalate to UC_Review--><g class="link" data-entity-1="ent0017" data-entity-2="ent0018" data-link-type="dependency" data-source-line="53" id="lnk40"><path d="M563.12,647.6669 C632.04,656.7169 725.58,671.0969 806.58,690.8369 C897.91,713.0969 995.2905,747.3943 1057.1105,770.5243" fill="none" id="UC_Escalate-to-UC_Review" style="stroke:#181818;stroke-width:1;stroke-dasharray:7,7;"/><polygon fill="#181818" points="1062.73,772.6269,1055.7024,765.7267,1058.047,770.8747,1052.899,773.2194,1062.73,772.6269" style="stroke:#181818;stroke-width:1;"/><text fill="#000000" font-family="sans-serif" font-size="13" lengthAdjust="spacing" textLength="63.0068" x="970.58" y="719.8638">&#171;include&#187;</text></g><!--link UC_Review to UC_Override--><g class="link" data-entity-1="ent0018" data-entity-2="ent0019" data-link-type="dependency" data-source-line="54" id="lnk41"><path d="M1118.58,820.8069 C1118.58,842.9469 1118.58,869.2669 1118.58,891.1269" fill="none" id="UC_Review-to-UC_Override" style="stroke:#181818;stroke-width:1;stroke-dasharray:7,7;"/><polygon fill="#181818" points="1118.58,897.1269,1122.58,888.1269,1118.58,892.1269,1114.58,888.1269,1118.58,897.1269" style="stroke:#181818;stroke-width:1;"/><text fill="#000000" font-family="sans-serif" font-size="13" lengthAdjust="spacing" textLength="63.0068" x="1119.58" y="863.6438">&#171;include&#187;</text></g><!--link UC_Override to UC_Comm--><g class="link" data-entity-1="ent0019" data-entity-2="ent0016" data-link-type="dependency" data-source-line="55" id="lnk42"><path d="M1082.52,944.6269 C1045.11,967.2069 992.0072,999.257 954.1072,1022.127" fill="none" id="UC_Override-to-UC_Comm" style="stroke:#181818;stroke-width:1;stroke-dasharray:7,7;"/><polygon fill="#181818" points="948.97,1025.2269,958.7424,1024.0018,953.251,1022.6436,954.6091,1017.1522,948.97,1025.2269" style="stroke:#181818;stroke-width:1;"/><text fill="#000000" font-family="sans-serif" font-size="13" lengthAdjust="spacing" textLength="63.0068" x="1027.58" y="989.2338">&#171;include&#187;</text></g><!--link UC_Close to UC_Ticket--><g class="link" data-entity-1="ent0020" data-entity-2="ent0013" data-link-type="dependency" data-source-line="56" id="lnk43"><path d="M1068.92,529.8369 C1034.44,552.6969 985.3315,585.2326 950.4115,608.3726" fill="none" id="UC_Close-to-UC_Ticket" style="stroke:#181818;stroke-width:1;stroke-dasharray:7,7;"/><polygon fill="#181818" points="945.41,611.6869,955.1218,610.0498,949.5779,608.925,950.7028,603.3811,945.41,611.6869" style="stroke:#181818;stroke-width:1;"/><text fill="#000000" font-family="sans-serif" font-size="13" lengthAdjust="spacing" textLength="63.0068" x="1018.58" y="575.4538">&#171;include&#187;</text></g><!--link UC_Monitor to UC_Escalate--><g class="link" data-entity-1="ent0021" data-entity-2="ent0017" data-link-type="dependency" data-source-line="57" id="lnk44"><path d="M397.39,532.4669 C411.82,554.6269 429.7651,582.1894 444.2651,604.4494" fill="none" id="UC_Monitor-to-UC_Escalate" style="stroke:#181818;stroke-width:1;stroke-dasharray:7,7;"/><polygon fill="#181818" points="447.54,609.4769,445.9794,599.7525,444.811,605.2873,439.2761,604.1189,447.54,609.4769" style="stroke:#181818;stroke-width:1;"/><text fill="#000000" font-family="sans-serif" font-size="13" lengthAdjust="spacing" textLength="61.1851" x="427.58" y="575.4538">&#171;extend&#187;</text></g><?plantuml-src XLHDRzf04BtlhnXnQW-azof2GZHLaKAJGdApL6tMWxF2ddNNQmYg-jyxzdvWGqGkY9rvxystdQd16NWnpfaAScrHEMr8D3jDjRIoWbggdInmuuubGkUML9Gu04ZbZFLkUS36L2Y4quwVYxPXLRImQUlQM0Vpbj-o2m1JU6uO8VddcvO52mdHAoLMU4uIkK1o4v2D_tVkNadYD6qF2F-5IFd2v5eoZwLqMsEh2VmL06s3gikBfLygxH9XZNzQR5n6d_PQmbqbTVcv3_Uy-EsXG_8Q5Uezmbpjo1nAp0kiOW5COFCG_MZDNkS8AzqqcWhuXexbcuWEp_VqDqwwba5rBXqcWhU-Xr_pYCgsApkZdyRfhLPz4oApz-yn5qFoaWgk72Jby2XjWnajwSMq_EpR4BaUDYGkIia5RO-m9CVLTmePtRqvozE3E-8zqQUadonl0exe5hcgBxwuZ5Q6SdcyKRogJrhjC7NJluRCbTJ4FIDuUcKD3hem78rQxOw9r7j60qUkwBifItEOjdL6lxfvSszIXjxtN5-GDiwsohKMkqXnqzPObuFo5gQgXiIxHabUF8GVkdYThdMp0sCpkkVWdEoMru6KFv4a4IbYFDcznWFCbxofLINjqNUP1yu1EJavAi6ZX_nvNVFs8GU7XprQou4pOZNUX9g969dHEUJwoOHf-BYBqeJBJeLtbj5m3EdkU3VtSyzvgD7sQSeILkYiLYdVW1N_X4YDdKvdWwCxDyTZERTt9tSXuU_at7mwWlvRSpBtlHlPKbT6Lb-o21-YQ8srd9bFKqr5mStDx7HHy1LkRpMfiirnDXCdUq3vmxb41Nj4-I5zfDLVnKTQyH1w7BxnRUSUbXm1s2tzEs8-bUkOKS1qBES1aoC0mpLSo0LxGCMfNUAIvsfoVia_Q6nSysib_0S0?></g></svg>