<svg xmlns="http://www.w3.org/2000/svg" xmlns:xlink="http://www.w3.org/1999/xlink" contentStyleType="text/css" data-diagram-type="DESCRIPTION" height="686px" preserveAspectRatio="none" style="width:1033px;height:686px;background:#FFFFFF;" version="1.1" viewBox="0 0 1033 686" width="1033px" zoomAndPan="magnify"><?plantuml 1.2026.3beta5?><defs/><g><g class="title" data-source-line="5"><text fill="#000000" font-family="sans-serif" font-size="14" font-weight="700" lengthAdjust="spacing" textLength="670.8789" x="177.6309" y="22.9951">Customer Support Automation - System Architecture (Runtime / Infrastructure View)</text></g><!--cluster Container Platform--><g class="cluster" data-qualified-name="Container Platform" data-source-line="13" id="ent0006"><polygon fill="none" points="35.43,281.3969,45.43,271.3969,707.43,271.3969,707.43,651.0669,697.43,661.0669,35.43,661.0669,35.43,281.3969" style="stroke:#181818;stroke-width:1;"/><line style="stroke:#181818;stroke-width:1;" x1="697.43" x2="707.43" y1="281.3969" y2="271.3969"/><line style="stroke:#181818;stroke-width:1;" x1="35.43" x2="697.43" y1="281.3969" y2="281.3969"/><line style="stroke:#181818;stroke-width:1;" x1="697.43" x2="697.43" y1="281.3969" y2="661.0669"/><text fill="#000000" font-family="sans-serif" font-size="14" font-weight="700" lengthAdjust="spacing" textLength="150.4385" x="292.2108" y="297.392">Container Platform</text></g><!--cluster Support Automation Stack--><g class="cluster" data-qualified-name="Container Platform.Support Automation Stack" data-source-line="14" id="ent0007"><rect fill="none" height="317.67" rx="2.5" ry="2.5" style="stroke:#181818;stroke-width:1;" width="624" x="59.43" y="319.3969"/><path d="M278.5413,319.3969 L278.5413,328.6937 L268.5413,338.6937 L59.43,338.6937" fill="none" style="stroke:#181818;stroke-width:1;"/><text fill="#000000" font-family="sans-serif" font-size="14" font-weight="700" lengthAdjust="spacing" textLength="209.1113" x="62.43" y="333.392">Support Automation Stack</text></g><!--entity Services--><g class="entity" data-qualified-name="Container Platform.Support Automation Stack.Services" data-source-line="15" id="ent0008"><rect fill="#F1F1F1" height="144.0781" rx="2.5" ry="2.5" style="stroke:#181818;stroke-width:0.5;" width="212.9697" x="356.94" y="354.3969"/><rect fill="#F1F1F1" height="10" style="stroke:#181818;stroke-width:0.5;" width="15" x="549.9097" y="359.3969"/><rect fill="#F1F1F1" height="2" style="stroke:#181818;stroke-width:0.5;" width="4" x="547.9097" y="361.3969"/><rect fill="#F1F1F1" height="2" style="stroke:#181818;stroke-width:0.5;" width="4" x="547.9097" y="365.3969"/><text fill="#000000" font-family="sans-serif" font-size="14" lengthAdjust="spacing" textLength="141.709" x="371.94" y="387.392">Application Services</text><text fill="#000000" font-family="sans-serif" font-size="14" lengthAdjust="spacing" textLength="117.1201" x="371.94" y="403.6889">- listener-service</text><text fill="#000000" font-family="sans-serif" font-size="14" lengthAdjust="spacing" textLength="105.916" x="371.94" y="419.9857">- triage-service</text><text fill="#000000" font-family="sans-serif" font-size="14" lengthAdjust="spacing" textLength="158.1426" x="371.94" y="436.2826">- orchestration-service</text><text fill="#000000" font-family="sans-serif" font-size="14" lengthAdjust="spacing" textLength="141.1895" x="371.94" y="452.5795">- ticket-sync-service</text><text fill="#000000" font-family="sans-serif" font-size="14" lengthAdjust="spacing" textLength="172.9697" x="371.94" y="468.8764">- communication-service</text><text fill="#000000" font-family="sans-serif" font-size="14" lengthAdjust="spacing" textLength="79.7754" x="371.94" y="485.1732">- admin-api</text></g><!--entity Redis--><g class="entity" data-qualified-name="Container Platform.Support Automation Stack.Redis" data-source-line="16" id="ent0009"><path d="M80.22,576.6169 L128.6311,576.6169 C133.6311,576.6169 133.6311,589.7653 133.6311,589.7653 C133.6311,589.7653 133.6311,602.9137 128.6311,602.9137 L80.22,602.9137 C75.22,602.9137 75.22,589.7653 75.22,589.7653 C75.22,589.7653 75.22,576.6169 80.22,576.6169" fill="#F1F1F1" style="stroke:#181818;stroke-width:0.5;"/><path d="M128.6311,576.6169 C123.6311,576.6169 123.6311,589.7653 123.6311,589.7653 C123.6311,602.9137 128.6311,602.9137 128.6311,602.9137" fill="none" style="stroke:#181818;stroke-width:0.5;"/><text fill="#000000" font-family="sans-serif" font-size="14" lengthAdjust="spacing" textLength="38.4111" x="80.22" y="594.612">Redis</text></g><!--entity Mongo--><g class="entity" data-qualified-name="Container Platform.Support Automation Stack.Mongo" data-source-line="17" id="ent0010"><path d="M168.75,577.1169 C168.75,567.1169 212.4272,567.1169 212.4272,567.1169 C212.4272,567.1169 256.1045,567.1169 256.1045,577.1169 L256.1045,602.4137 C256.1045,612.4137 212.4272,612.4137 212.4272,612.4137 C212.4272,612.4137 168.75,612.4137 168.75,602.4137 L168.75,577.1169" fill="#F1F1F1" style="stroke:#181818;stroke-width:0.5;"/><path d="M168.75,577.1169 C168.75,587.1169 212.4272,587.1169 212.4272,587.1169 C212.4272,587.1169 256.1045,587.1169 256.1045,577.1169" fill="none" style="stroke:#181818;stroke-width:0.5;"/><text fill="#000000" font-family="sans-serif" font-size="14" lengthAdjust="spacing" textLength="67.3545" x="178.75" y="604.112">MongoDB</text></g><!--entity Secrets--><g class="entity" data-qualified-name="Container Platform.Support Automation Stack.Secrets" data-source-line="18" id="ent0011"><rect fill="#F1F1F1" height="46.2969" rx="2.5" ry="2.5" style="stroke:#181818;stroke-width:0.5;" width="150.8721" x="290.99" y="566.6169"/><rect fill="#F1F1F1" height="10" style="stroke:#181818;stroke-width:0.5;" width="15" x="421.8621" y="571.6169"/><rect fill="#F1F1F1" height="2" style="stroke:#181818;stroke-width:0.5;" width="4" x="419.8621" y="573.6169"/><rect fill="#F1F1F1" height="2" style="stroke:#181818;stroke-width:0.5;" width="4" x="419.8621" y="577.6169"/><text fill="#000000" font-family="sans-serif" font-size="14" lengthAdjust="spacing" textLength="110.8721" x="305.99" y="599.612">Secret Manager</text></g><!--entity Telemetry--><g class="entity" data-qualified-name="Container Platform.Support Automation Stack.Telemetry" data-source-line="19" id="ent0012"><rect fill="#F1F1F1" height="62.5938" rx="2.5" ry="2.5" style="stroke:#181818;stroke-width:0.5;" width="190.2129" x="477.32" y="558.4769"/><rect fill="#F1F1F1" height="10" style="stroke:#181818;stroke-width:0.5;" width="15" x="647.5329" y="563.4769"/><rect fill="#F1F1F1" height="2" style="stroke:#181818;stroke-width:0.5;" width="4" x="645.5329" y="565.4769"/><rect fill="#F1F1F1" height="2" style="stroke:#181818;stroke-width:0.5;" width="4" x="645.5329" y="569.4769"/><text fill="#000000" font-family="sans-serif" font-size="14" lengthAdjust="spacing" textLength="92.7637" x="492.32" y="591.472">Observability</text><text fill="#000000" font-family="sans-serif" font-size="14" lengthAdjust="spacing" textLength="150.2129" x="492.32" y="607.7689">(Logs/Metrics/Traces)</text></g><!--entity Customer--><g class="entity" data-qualified-name="Customer" data-source-line="7" id="ent0002"><ellipse cx="239.422" cy="51.2969" fill="#F1F1F1" rx="8" ry="8" style="stroke:#181818;stroke-width:0.5;"/><path d="M239.422,59.2969 L239.422,86.2969 M226.422,67.2969 L252.422,67.2969 M239.422,86.2969 L226.422,101.2969 M239.422,86.2969 L252.422,101.2969" fill="none" style="stroke:#181818;stroke-width:0.5;"/><text fill="#000000" font-family="sans-serif" font-size="14" lengthAdjust="spacing" textLength="68.0039" x="205.42" y="115.792">Customer</text></g><!--entity Agent--><g class="entity" data-qualified-name="Agent" data-source-line="8" id="ent0003"><ellipse cx="390.4267" cy="187.5969" fill="#F1F1F1" rx="8" ry="8" style="stroke:#181818;stroke-width:0.5;"/><path d="M390.4267,195.5969 L390.4267,222.5969 M377.4267,203.5969 L403.4267,203.5969 M390.4267,222.5969 L377.4267,237.5969 M390.4267,222.5969 L403.4267,237.5969" fill="none" style="stroke:#181818;stroke-width:0.5;"/><text fill="#000000" font-family="sans-serif" font-size="14" lengthAdjust="spacing" textLength="101.2334" x="339.81" y="252.092">Support Agent</text></g><!--entity Manager--><g class="entity" data-qualified-name="Manager" data-source-line="9" id="ent0004"><ellipse cx="536.4301" cy="187.5969" fill="#F1F1F1" rx="8" ry="8" style="stroke:#181818;stroke-width:0.5;"/><path d="M536.4301,195.5969 L536.4301,222.5969 M523.4301,203.5969 L549.4301,203.5969 M536.4301,222.5969 L523.4301,237.5969 M536.4301,222.5969 L549.4301,237.5969" fill="none" style="stroke:#181818;stroke-width:0.5;"/><text fill="#000000" font-family="sans-serif" font-size="14" lengthAdjust="spacing" textLength="121.1602" x="475.85" y="252.092">Support Manager</text></g><!--entity SMTP--><g class="entity" data-qualified-name="SMTP" data-source-line="11" id="ent0005"><path d="M183.6327,202.3066 C187.8649,197.2591 191.909,196.6254 195.2019,203.2386 C198.0254,196.6726 202.4491,196.4054 207.0261,201.4533 C210.5352,196.2968 214.0667,197.6893 217.1626,201.9004 C220.3364,195.8816 225.0378,194.2411 230.1027,199.7838 C233.7681,194.8488 237.2451,194.5279 241.5727,198.9741 C244.7404,194.6852 249.6958,195.3786 251.7661,200.2017 C255.0749,194.7644 261.2752,195.1937 264.3865,200.4351 C268.259,195.4623 272.0931,196.2594 274.7051,201.6858 C279.6702,196.1927 283.5872,196.6309 287.4082,202.9194 C290.4556,197.6702 295.2394,197.5011 297.8808,203.3041 C307.2069,205.7237 308.4597,211.7828 302.8972,218.9699 C308.0442,225.0395 305.9233,231.8475 297.8392,233.2211 C294.7907,239.4951 290.758,239.3558 286.2918,234.7218 C284.3979,241.5236 278.9899,242.0254 274.8261,236.9048 C272.3298,243.8104 267.4652,245.1778 262.5749,239.1772 C259.6421,244.189 256.2475,244.4594 252.3582,240.2354 C250.1928,247.1519 245.1504,247.8512 240.5706,242.5683 C236.1879,246.7953 232.8342,246.3222 229.626,241.1942 C224.5352,245.2092 220.5366,245.85 217.7614,238.7275 C213.0721,244.3862 207.673,242.393 205.285,236.2869 C201.7214,240.7615 198.3009,241.1435 194.5449,236.5139 C189.3503,241.3412 183.9277,239.7163 183.0377,232.4261 C175.4172,228.7804 175.7334,221.8282 182.4929,217.6522 C176.3299,212.547 175.5177,206.3513 183.6327,202.3066" fill="#F1F1F1" style="stroke:#181818;stroke-width:0.5;"/><text fill="#000000" font-family="sans-serif" font-size="14" lengthAdjust="spacing" textLength="100.6045" x="189.12" y="222.092">SMTP Provider</text></g><!--entity Monday--><g class="entity" data-qualified-name="Monday" data-source-line="23" id="ent0013"><path d="M732.2492,575.6585 C735.339,570.4678 741.3517,570.66 744.3918,575.7174 C748.6956,569.3981 754.8032,567.3305 759.4303,575.379 C762.9951,569.9271 766.9629,567.7675 771.8277,573.9995 C775.1658,566.9088 781.3527,566.8899 785.2548,573.4445 C787.995,567.7082 793.5761,566.9902 797.5384,572.0546 C803.1179,566.3054 807.6255,566.1987 811.4009,573.9121 C814.4237,568.3615 820.0375,567.5822 823.0678,573.9047 C827.7548,566.8353 832.4165,567.4609 837.3353,573.6553 C841.2771,568.8575 846.0547,567.941 849.3452,574.3531 C854.1733,568.653 858.9058,569.1445 863.0746,575.1278 C871.5912,578.6666 873.0387,586.0583 864.8004,591.3766 C870.0903,597.0226 870.5921,602.2509 862.1999,605.3509 C857.7947,611.7856 853.6232,611.0814 848.7847,605.8492 C846.6067,612.4241 840.5222,613.2135 836.1454,608.2599 C832.3066,614.7432 827.7776,615.0058 823.3484,608.8579 C819.791,615.4162 813.488,614.7175 809.8931,608.8987 C807.6228,615.4849 802.1992,615.3274 798.5072,610.2917 C794.0627,615.9969 787.8303,616.6908 783.9381,609.6599 C779.8818,614.8034 773.6971,616.0133 770.7186,608.5314 C766.5861,613.296 760.5606,613.3183 758.1742,606.6205 C753.7497,612.3923 749.9731,612.4305 746.3121,605.8852 C741.1275,612.9455 736.3584,612.2419 731.5644,605.4688 C724.7121,602.7726 723.7202,596.0141 729.2348,591.2865 C723.1786,584.9499 724.1317,579.2611 732.2492,575.6585" fill="#F1F1F1" style="stroke:#181818;stroke-width:0.5;"/><text fill="#000000" font-family="sans-serif" font-size="14" lengthAdjust="spacing" textLength="116.2178" x="738.32" y="594.612">Monday.com API</text></g><!--entity Claude--><g class="entity" data-qualified-name="Claude" data-source-line="24" id="ent0014"><path d="M914.5158,575.8416 C916.2263,571.2098 920.5976,569.5005 924.0839,573.9759 C927.338,568.8334 932.8759,568.1104 935.9782,574.1375 C939.9481,568.6374 943.4984,568.4744 947.6067,573.9914 C950.4026,568.3419 953.5224,568.4396 957.6347,572.653 C961.6566,566.3209 967.2033,567.4426 969.9823,573.8571 C973.5847,569.129 977.8424,569.1205 980.5842,574.7389 C985.2322,568.9341 988.7938,569.7484 992.1013,576.0176 C994.9898,570.1922 999.4269,570.6248 1002.7647,575.5729 C1012.1304,574.7681 1015.698,582.5644 1012.3004,590.1238 C1018.1407,600.0188 1015.2885,606.3785 1003.4421,606.9774 C1000.0474,611.2241 995.4696,610.8447 993.0686,605.8606 C990.0049,611.1134 985.2279,611.311 981.4815,606.6593 C978.3602,611.4709 973.915,611.3077 970.6336,606.8465 C967.1804,612.5607 961.7503,613.9905 957.5525,607.6548 C954.6273,613.0095 950.1707,611.8209 947.5706,607.3253 C943.9746,612.2916 939.0683,613.4014 935.4083,607.3963 C931.9991,611.8254 927.6083,612.3397 925.0914,606.4999 C922.177,613.0614 916.3874,611.8093 913.0613,606.933 C904.2717,602.9501 902.9628,597.7672 908.9913,590.1836 C903.6709,583.0354 905.5937,577.5037 914.5158,575.8416" fill="#F1F1F1" style="stroke:#181818;stroke-width:0.5;"/><text fill="#000000" font-family="sans-serif" font-size="14" lengthAdjust="spacing" textLength="75.2158" x="919.82" y="594.612">Claude API</text></g><!--entity Jenkins--><g class="entity" data-qualified-name="Jenkins" data-source-line="25" id="ent0015"><polygon fill="#F1F1F1" points="631.72,204.0969,641.72,194.0969,765.1263,194.0969,765.1263,230.3937,755.1263,240.3937,631.72,240.3937,631.72,204.0969" style="stroke:#181818;stroke-width:0.5;"/><line style="stroke:#181818;stroke-width:0.5;" x1="755.1263" x2="765.1263" y1="204.0969" y2="194.0969"/><line style="stroke:#181818;stroke-width:0.5;" x1="631.72" x2="755.1263" y1="204.0969" y2="204.0969"/><line style="stroke:#181818;stroke-width:0.5;" x1="755.1263" x2="755.1263" y1="204.0969" y2="240.3937"/><text fill="#000000" font-family="sans-serif" font-size="14" lengthAdjust="spacing" textLength="93.4063" x="646.72" y="227.092">Jenkins CI/CD</text></g><!--link Customer to SMTP--><g class="link" data-entity-1="ent0002" data-entity-2="ent0005" data-link-type="dependency" data-source-line="27" id="lnk16"><path d="M239.43,119.2769 C239.43,143.2169 239.43,167.2669 239.43,187.7269" fill="none" id="Customer-to-SMTP" style="stroke:#181818;stroke-width:1;"/><polygon fill="#181818" points="239.43,193.7269,243.43,184.7269,239.43,188.7269,235.43,184.7269,239.43,193.7269" style="stroke:#181818;stroke-width:1;"/><text fill="#000000" font-family="sans-serif" font-size="13" lengthAdjust="spacing" textLength="89.8955" x="149.43" y="152.5738">support email</text></g><!--link SMTP to Services--><g class="link" data-entity-1="ent0005" data-entity-2="ent0008" data-link-type="dependency" data-source-line="28" id="lnk17"><path d="M297.86,240.6869 C297.86,288.1369 297.86,391.0669 297.86,391.0669 C297.86,391.0669 318.66,391.0669 350.7,391.0669" fill="none" id="SMTP-to-Services" style="stroke:#181818;stroke-width:1;"/><polygon fill="#181818" points="356.7,391.0669,347.7,387.0669,351.7,391.0669,347.7,395.0669,356.7,391.0669" style="stroke:#181818;stroke-width:1;"/><text fill="#000000" font-family="sans-serif" font-size="13" lengthAdjust="spacing" textLength="151.3789" x="145.86" y="358.3638">inbound/outbound mail</text></g><!--link Services to Redis--><g class="link" data-entity-1="ent0008" data-entity-2="ent0009" data-link-type="dependency" data-source-line="29" id="lnk18"><path d="M356.69,427.0669 C250.86,427.0669 104.43,427.0669 104.43,427.0669 C104.43,427.0669 104.43,531.0769 104.43,570.1769" fill="none" id="Services-to-Redis" style="stroke:#181818;stroke-width:1;"/><polygon fill="#181818" points="104.43,576.1769,108.43,567.1769,104.43,571.1769,100.43,567.1769,104.43,576.1769" style="stroke:#181818;stroke-width:1;"/><text fill="#000000" font-family="sans-serif" font-size="13" lengthAdjust="spacing" textLength="148.1162" x="7" y="423.1338">async workflow events</text></g><!--link Services to Mongo--><g class="link" data-entity-1="ent0008" data-entity-2="ent0010" data-link-type="dependency" data-source-line="30" id="lnk19"><path d="M356.68,463.0669 C289.38,463.0669 215.11,463.0669 215.11,463.0669 C215.11,463.0669 215.11,524.3169 215.11,560.8269" fill="none" id="Services-to-Mongo" style="stroke:#181818;stroke-width:1;"/><polygon fill="#181818" points="215.11,566.8269,219.11,557.8269,215.11,561.8269,211.11,557.8269,215.11,566.8269" style="stroke:#181818;stroke-width:1;"/><text fill="#000000" font-family="sans-serif" font-size="13" lengthAdjust="spacing" textLength="146.8022" x="87.02" y="459.1338">persist state and audit</text></g><!--link Services to Monday--><g class="link" data-entity-1="ent0008" data-entity-2="ent0013" data-link-type="dependency" data-source-line="31" id="lnk20"><path d="M570.38,463.0669 C649.74,463.0669 744.22,463.0669 744.22,463.0669 C744.22,463.0669 744.22,523.5969 744.22,560.2369" fill="none" id="Services-to-Monday" style="stroke:#181818;stroke-width:1;"/><polygon fill="#181818" points="744.22,566.2369,748.22,557.2369,744.22,561.2369,740.22,557.2369,744.22,566.2369" style="stroke:#181818;stroke-width:1;"/><text fill="#000000" font-family="sans-serif" font-size="13" lengthAdjust="spacing" textLength="132.3486" x="575.89" y="459.1338">ticket create/update</text></g><!--link Services to Claude--><g class="link" data-entity-1="ent0008" data-entity-2="ent0014" data-link-type="dependency" data-source-line="32" id="lnk21"><path d="M570.31,427.0669 C715.57,427.0669 957.43,427.0669 957.43,427.0669 C957.43,427.0669 957.43,515.4669 957.43,560.4569" fill="none" id="Services-to-Claude" style="stroke:#181818;stroke-width:1;"/><polygon fill="#181818" points="957.43,566.4569,961.43,557.4569,957.43,561.4569,953.43,557.4569,957.43,566.4569" style="stroke:#181818;stroke-width:1;"/><text fill="#000000" font-family="sans-serif" font-size="13" lengthAdjust="spacing" textLength="122.332" x="710.56" y="423.1338">triage and drafting</text></g><!--link Agent to Services--><g class="link" data-entity-1="ent0003" data-entity-2="ent0008" data-link-type="dependency" data-source-line="34" id="lnk22"><path d="M398.99,255.6169 C398.99,283.0969 398.99,314.9469 398.99,348.0269" fill="none" id="Agent-to-Services" style="stroke:#181818;stroke-width:1;"/><polygon fill="#181818" points="398.99,354.0269,402.99,345.0269,398.99,349.0269,394.99,345.0269,398.99,354.0269" style="stroke:#181818;stroke-width:1;"/><text fill="#000000" font-family="sans-serif" font-size="13" lengthAdjust="spacing" textLength="130.1968" x="267.99" y="317.8838">review and override</text></g><!--link Manager to Services--><g class="link" data-entity-1="ent0004" data-entity-2="ent0008" data-link-type="dependency" data-source-line="35" id="lnk23"><path d="M522.88,255.6169 C522.88,283.0969 522.88,314.9469 522.88,348.0269" fill="none" id="Manager-to-Services" style="stroke:#181818;stroke-width:1;"/><polygon fill="#181818" points="522.88,354.0269,526.88,345.0269,522.88,349.0269,518.88,345.0269,522.88,354.0269" style="stroke:#181818;stroke-width:1;"/><text fill="#000000" font-family="sans-serif" font-size="13" lengthAdjust="spacing" textLength="88.8608" x="433.88" y="317.8838">SLA/reporting</text></g><!--link Jenkins to Services--><g class="link" data-entity-1="ent0015" data-entity-2="ent0008" data-link-type="dependency" data-source-line="37" id="lnk24"><path d="M649.63,240.6869 C649.63,288.1369 649.63,391.0669 649.63,391.0669 C649.63,391.0669 617.89,391.0669 576.39,391.0669" fill="none" id="Jenkins-to-Services" style="stroke:#181818;stroke-width:1;"/><polygon fill="#181818" points="570.39,391.0669,579.39,395.0669,575.39,391.0669,579.39,387.0669,570.39,391.0669" style="stroke:#181818;stroke-width:1;"/><text fill="#000000" font-family="sans-serif" font-size="13" lengthAdjust="spacing" textLength="108.4497" x="650.63" y="351.5638">build and deploy</text></g><!--link Services to Secrets--><g class="link" data-entity-1="ent0008" data-entity-2="ent0011" data-link-type="dependency" data-source-line="38" id="lnk25"><path d="M399.4,498.5469 C399.4,522.9969 399.4,542.5869 399.4,560.4269" fill="none" id="Services-to-Secrets" style="stroke:#181818;stroke-width:1;"/><polygon fill="#181818" points="399.4,566.4269,403.4,557.4269,399.4,561.4269,395.4,557.4269,399.4,566.4269" style="stroke:#181818;stroke-width:1;"/><text fill="#000000" font-family="sans-serif" font-size="13" lengthAdjust="spacing" textLength="105.7329" x="293.4" y="528.5538">read credentials</text></g><!--link Services to Telemetry--><g class="link" data-entity-1="ent0008" data-entity-2="ent0012" data-link-type="dependency" data-source-line="39" id="lnk26"><path d="M523.61,498.5469 C523.61,519.4069 523.61,535.0969 523.61,552.0969" fill="none" id="Services-to-Telemetry" style="stroke:#181818;stroke-width:1;"/><polygon fill="#181818" points="523.61,558.0969,527.61,549.0969,523.61,553.0969,519.61,549.0969,523.61,558.0969" style="stroke:#181818;stroke-width:1;"/><text fill="#000000" font-family="sans-serif" font-size="13" lengthAdjust="spacing" textLength="155.1875" x="524.61" y="524.3938">emit traces and metrics</text></g><?plantuml-src RLInRkCm3Dtr5KIcTl1vxt10BbrQDBYWAMxgmbXCAiGMVHALm3Zqtu-MbI1jiida8_Nu-6JX7eHXmoBSWNM16d7iJTmxtsF03k87MZuwluCjjf4kCgtp94DFm44-s1XnqX8iKjHM562T-bupC4_wZMDNg60zHA4Evg7vSA9tfK1mzvgyk8wWXYU_3HWbf2dpnz7ntXXiXCEvSVcSdVlloCiCC4wdx-abUjnHo81oDgPfELd5BDzMi0fySBOWneWndYt1RC5UK6SCi6fHjXow6Vmp04fHoSvkpBSMRFOJ2A3XhcUlZ60sx_lMDGL3uU0QYk--KWLL3RsWYbDmZ4bmol4omYeMgIYv_WlKDNkIAWw-kGphnLtovRxB1DhE-GfxDurQY6IoVnCbdUcLh8ivcqyvPL5mWr6pI_OxVlmrIJcUly-vfYRGLycdKFoE_BqPUU76jKw6Tt_tmhjOBqc7RsBz5b1vtUVwDsgfq_YW7JxDvtbrUh_5uOUsXFdgwKH9GoV0eiMaMpmbfy-osMVowc8DFjMBnvmk4MFEzgtKzRxwcHq13n3Bjgb3rveSF2EAa8foViF9svgJv0DCw1FWL975LJYEguCZX_ssvIFGGRM9r_2ijS9x2b4T0r5G253RwqnERXQe4benEGHq1LfHfrvtITVm8jL3yLxkR0DkHL-zCVbLtHesq47VPqRpWKBGHsJAwc_1ro_pEj0eOcvxsi4Dv2Qvrauig6zvk6PSN9L9e1tdiqhIwG_g6djsaAAfSw9JZlRA_Rl9SVy1?></g></svg>